STARTFONT 2.3
FONT -FontForge-Monoton-Book-R-Normal--36-360-72-72-P-244-ISO10646-1
SIZE 36 72 72  2
FONTBOUNDINGBOX 68 57 -6 -15
COMMENT "Generated by fontforge, http://fontforge.sourceforge.net"
COMMENT "Copyright (c) 2011 by vernon adams. All rights reserved."
STARTPROPERTIES 41
FOUNDRY "FontForge"
FAMILY_NAME "Monoton"
WEIGHT_NAME "Book"
SLANT "R"
SETWIDTH_NAME "Normal"
ADD_STYLE_NAME ""
PIXEL_SIZE 36
POINT_SIZE 360
RESOLUTION_X 72
RESOLUTION_Y 72
SPACING "P"
AVERAGE_WIDTH 244
CHARSET_REGISTRY "ISO10646"
CHARSET_ENCODING "1"
FONTNAME_REGISTRY ""
CHARSET_COLLECTIONS "ISO8859-2 ISO8859-9 ISO8859-4 ISO10646-1"
BITS_PER_PIXEL 2
FONT_NAME "Monoton-Regular"
FACE_NAME "Monoton"
COPYRIGHT "Copyright (c) 2011 by vernon adams. All rights reserved."
FONT_VERSION "1.000"
FONT_ASCENT 29
FONT_DESCENT 7
UNDERLINE_POSITION -2
UNDERLINE_THICKNESS 1
X_HEIGHT 25
CAP_HEIGHT 28
DEFAULT_CHAR 1
RAW_ASCENT 799
RAW_DESCENT 200
NORM_SPACE 4
RELATIVE_WEIGHT 40
RELATIVE_SETWIDTH 50
SUPERSCRIPT_X 0
SUPERSCRIPT_Y 12
SUPERSCRIPT_SIZE 21
SUBSCRIPT_X 0
SUBSCRIPT_Y 2
SUBSCRIPT_SIZE 21
AVG_LOWERCASE_WIDTH 261
AVG_UPPERCASE_WIDTH 286
ENDPROPERTIES
CHARS 372
STARTCHAR glyph1.dup1
ENCODING 0
SWIDTH 108 0
DWIDTH 4 0
BBX 1 1 0 0
BITMAP
00
ENDCHAR
STARTCHAR uni0002
ENCODING 2
SWIDTH 108 0
DWIDTH 4 0
BBX 1 1 0 0
BITMAP
00
ENDCHAR
STARTCHAR uni0009
ENCODING 9
SWIDTH 108 0
DWIDTH 4 0
BBX 1 1 0 0
BITMAP
00
ENDCHAR
STARTCHAR uni000A
ENCODING 10
SWIDTH 108 0
DWIDTH 4 0
BBX 1 1 0 0
BITMAP
00
ENDCHAR
STARTCHAR uni000D
ENCODING 13
SWIDTH 108 0
DWIDTH 4 0
BBX 1 1 0 0
BITMAP
00
ENDCHAR
STARTCHAR space
ENCODING 32
SWIDTH 108 0
DWIDTH 4 0
BBX 1 1 0 0
BITMAP
00
ENDCHAR
STARTCHAR exclam
ENCODING 33
SWIDTH 336 0
DWIDTH 12 0
BBX 10 31 1 -2
BITMAP
725CA0
725CA0
725CA0
725CA0
725CA0
725CA0
725CA0
725CA0
725CA0
725CA0
725CA0
725CA0
725CA0
725CA0
725CA0
725CA0
725CA0
725CA0
725CA0
725CA0
725CA0
114450
000000
000000
7FFFE0
155540
6AAA90
6AAA90
000000
7FFFE0
155540
ENDCHAR
STARTCHAR quotedbl
ENCODING 34
SWIDTH 538 0
DWIDTH 19 0
BBX 17 12 1 17
BITMAP
A3580735C0
A3580735C0
A3580735C0
A3580735C0
A3580735C0
A3580735C0
A3580735C0
A3580735C0
A3580735C0
A3580735C0
A3580735C0
1104011040
ENDCHAR
STARTCHAR numbersign
ENCODING 35
SWIDTH 1014 0
DWIDTH 37 0
BBX 36 33 0 -2
BITMAP
000000114400144100
000000A35C0028D600
000000A3680035CA00
000000D72800728D00
000001CA3400A35C00
0000028D7000A35800
000AA68CA6A9D72AAA
000AA75CA6A9CA35A9
00055728D5528D7154
002FEA35DFFA8D67FC
00000A3280035CA000
006A9D72AAA728DAA4
006A9CA36A9A35DAA4
000028D7000A358000
000028CA000D728000
000035CA001CA34000
0000728D0028D70000
0000A35C0028D60000
0000A3280035CA0000
0000D72800728D0000
0001CA3400A35C0000
05568D7154A3585500
0FFA8CA7FDD72AFE00
00035CA001CA340000
1AA728DAAA8D76A900
1A9A35CAA68D66A800
154A3285535CA15000
7FDD72AFF728DFF800
001CA3400A35C00000
0028D7000A35800000
0028CA000D72800000
0035CA001CA3400000
00728D0028D7000000
ENDCHAR
STARTCHAR dollar
ENCODING 36
SWIDTH 686 0
DWIDTH 25 0
BBX 23 40 1 -6
BITMAP
000070A00000
000070A00000
000070A00000
000005500000
0006FFFF9000
007E4001BE40
02D06AA906E0
0B4BE56BE478
1D3905502F40
38E1BFFF8240
72CB9005B800
A35D1AA91000
A328BAAB8000
A728D0000000
A728D0000000
A35CBFFA4000
728E0556E400
35C7A5542D00
28A0AABF4740
1D2D0001E2C0
0B47FFE838E0
02E0155B5D70
006E9542CA34
0006AFF4D634
00000028D724
00000018D728
000BAAB4D734
00516A92CA34
00B9401B5D70
0A0AFFF838E0
07E00501E2C0
B46FAAAF4B40
2E41AAA46D00
06F94016E400
001BFFFE4000
000005400000
000070A00000
000070A00000
000070A00000
000010000000
ENDCHAR
STARTCHAR percent
ENCODING 37
SWIDTH 1504 0
DWIDTH 54 0
BBX 53 34 1 -3
BITMAP
0000150000000000000000000000
0007FFF800000000000000000000
007D001B40000A35C00000000000
02E1AA91E0000A35800000000000
074BA6B878000D72800000000000
1D39150B5D001CA3400000000000
28A1FFD2CB0028D7000000000000
71C78074E34028CA000000000000
A35D1A1D728035CA000000000000
9728BA8A35C0728D000000000000
D735C0D725C0A35C000014000000
D635C0D729C09728001BFF900000
D725D1D735C0D72400B9017D0000
A72CBB8A3581CA340781AA478000
638E151C72828D701E1FAAE1E000
35D795B4D3435CA038B4002D7400
28B0BF928A035CD0B2D2FF4B1C00
0E2D001E1D0728D0D75E41E28D00
0787EAF8740A35C1CA386875CA00
01E06A42D00D72828D71EF28D700
006E516E400D63429CA3435CA300
0006FFE4001CA3025CA7028CA340
000000000028D7029CA3435CA300
000000000035CA028D71EB28D700
0000000000328D01CA386875D600
0000000000728C00D75E41E28D00
0000000000A35C00B2D2FF4B1C00
0000000000D7280038B4102D7400
0000000001CA34001E1FAAE1E000
0000000001C970000781AA478000
00000000028D700001B9016D0000
00000000035CA000001BFFE00000
000000000728D000000014000000
0000000005148000000000000000
ENDCHAR
STARTCHAR ampersand
ENCODING 38
SWIDTH 1029 0
DWIDTH 37 0
BBX 35 29 1 0
BITMAP
0006FFFFFD1CA72800
002E5400001CA72800
01E45AAAA81CA72800
0787EAAAA81CA72800
0E2E0000001CA72800
28B4BFFFFD1CA72800
35D7D555541CA72800
728E16AAA81CA72800
A35CBAAAA81CA72800
A728D000001CA72800
A728D000001CA72800
A368BAAAAA9CA729A8
728D2AAAAA9CA72AA8
35C78000001CA72800
1CA1FFFFFFDCA72AFC
35C79555555CA72954
729D1AAAAA9CA729A8
A368BAAAAA9CA72AA8
A728D000001CA72800
A728D000001CA32800
A35CBFFFFF4CA35FF0
728E1555554D72C150
35D7D555550A38B950
2CB4AFFFFF475D1BF0
0E2E00000002878000
0786FAAAAA40E1BEA0
01E4155555403D0550
006F955555000BE550
0006BFFFFF40006FF0
ENDCHAR
STARTCHAR quotesingle
ENCODING 39
SWIDTH 257 0
DWIDTH 9 0
BBX 7 12 1 17
BITMAP
A358
A358
A358
A358
A358
A358
A358
A358
A358
A358
A358
1104
ENDCHAR
STARTCHAR parenleft
ENCODING 40
SWIDTH 410 0
DWIDTH 15 0
BBX 13 34 1 -3
BITMAP
00001540
0006FF80
002E4000
01E06B80
0387E540
0A2D0540
1C74BF80
38D39000
328A1A40
735C7940
A358D000
A368D000
A328D000
A328D000
A328D000
A328D000
A328D000
A328D000
A328D000
A328D000
A328D000
A328D000
A328D000
A358D000
735C7540
728A1B80
34D78000
1C71BE40
0E2D1540
07479500
01E0AF80
007D0000
0007FA40
00001640
ENDCHAR
STARTCHAR parenright
ENCODING 41
SWIDTH 408 0
DWIDTH 15 0
BBX 13 34 1 -3
BITMAP
55000000
BFE00000
006E0000
BA478000
56F4A000
542D3800
BF875D00
01E2CA00
A838D700
5B1CA340
028D6340
018D7340
01CD7240
01CD7240
01CD7240
01CD7240
01CD7240
01CD7240
01CD7240
01CD7240
01CD7240
01CD7240
018D7340
028D7340
5B5CA340
B928D700
00B2CA00
AF875D00
541D2800
56F4B000
BE42D000
006E0000
ABE40000
65000000
ENDCHAR
STARTCHAR asterisk
ENCODING 42
SWIDTH 664 0
DWIDTH 24 0
BBX 22 23 1 3
BITMAP
000045100000
0001CA300000
0001CA300000
0101CA300400
03D1CA307C00
04B9CA36D100
1E0BCA3E0B40
07D18A247900
A47D0A07D1E0
2E0B8A6E0B80
06E1BFE0B900
00B82F82E000
07D1FFE47D00
6E0B8A2E0B80
A0B90A06D1A0
07D1CA347D00
1E1BCA3E4B40
00B9CA36E000
0791CA307C00
0101CA300400
0001CA300000
0001CA300000
000040100000
ENDCHAR
STARTCHAR plus
ENCODING 43
SWIDTH 601 0
DWIDTH 22 0
BBX 20 17 1 6
BITMAP
0018962400
001CD72400
001CD72400
001CD72400
001CD72400
6ABCD72EA9
6AACD72AA9
156CD72954
BFFCD72FFD
001CD72400
6AACD72AA9
6AACD72AA9
001CD72400
001CD72400
001CD72400
001CD72400
0018962400
ENDCHAR
STARTCHAR comma
ENCODING 44
SWIDTH 252 0
DWIDTH 9 0
BBX 7 12 1 -5
BITMAP
5114
A368
A368
A368
A368
5368
0328
0B28
7D34
5070
16D0
BE00
ENDCHAR
STARTCHAR hyphen
ENCODING 45
SWIDTH 473 0
DWIDTH 17 0
BBX 15 7 1 11
BITMAP
6AAAAAA4
6AAAAAA4
15555550
7FFFFFF8
00000000
6AAAAAA4
6AAAAAA4
ENDCHAR
STARTCHAR period
ENCODING 46
SWIDTH 255 0
DWIDTH 9 0
BBX 7 7 1 0
BITMAP
5554
BFF8
0000
6AA8
5554
1554
BFF8
ENDCHAR
STARTCHAR slash
ENCODING 47
SWIDTH 447 0
DWIDTH 16 0
BBX 15 33 1 -4
BITMAP
0001CA34
00028D70
00035CA0
00035C90
000728D0
000A35C0
000D7280
000D7240
001CA340
0028D700
0035CA00
0035CD00
00728D00
00A35C00
00D72800
00D73400
01CA3400
028D7000
035CA000
035CD000
0728D000
0A35C000
0D728000
0D734000
1CA34000
28D70000
35CA0000
35CD0000
728D0000
A35C0000
D7280000
D7340000
45100000
ENDCHAR
STARTCHAR zero
ENCODING 48
SWIDTH 843 0
DWIDTH 30 0
BBX 29 33 1 -2
BITMAP
0000005540000000
00006FFFF9000000
0002E5001BD00000
001F46AA90B80000
00787E96BE1E0000
01D2E01507D78000
038B4BFFE4B5D000
0B2C7D006E2C7000
1D75E1AA478A3800
28E38BAAE1D75C00
35CB2D002CB28D00
728D74000A35CA00
735CA0000728D700
A368D000035C9700
A728C000029CA300
9729C000028CA340
D725C000028DA340
9729C000028CA340
A728D000029CA300
A358D000035C9700
735CA0000728D700
728D34000E35CA00
35C71D0028B28D00
2CA287EAE1D75C00
0D74E06A474E3800
0B2D2E416D2CB000
038B46FFE0B5D000
01E2E40407878000
00786FAABD1E0000
001F41AA51B80000
0002F9005B900000
00001BFFF9000000
0000001500000000
ENDCHAR
STARTCHAR one
ENCODING 49
SWIDTH 426 0
DWIDTH 15 0
BBX 13 29 1 0
BITMAP
FFFFFF80
00000000
AAAAAA40
AAAAAA80
00000000
FFFFFF80
55DA7680
00DA3680
00DA3680
00DA3680
00DA3680
00DA3680
00DA3680
00DA3680
00DA3680
00DA3680
00DA3680
00DA3680
00DA3680
00DA3680
00DA3680
00DA3680
00DA3680
00DA3680
00DA3680
00DA3680
00DA3680
00DA3680
00DA3680
ENDCHAR
STARTCHAR two
ENCODING 50
SWIDTH 583 0
DWIDTH 21 0
BBX 19 31 1 0
BITMAP
0055500000
6FFFFF9000
A50005B900
06AFA91B40
7EA56BD2D0
101540B8A0
2BFFF91D34
2500178B28
05AAA0D358
1FA9ACA35C
00000D735C
00000DA35C
000028D728
0000728E34
0000D72CB0
00028D75D0
000B28E380
001DB2CB00
0035D75D00
00A34D3800
02CA28A000
075CB1C000
0D75D74000
28E34D0000
5555555550
BFFFFFFFD0
0000000000
AAAAAAAA90
5555555550
5555555540
BFFFFFFFE0
ENDCHAR
STARTCHAR three
ENCODING 51
SWIDTH 612 0
DWIDTH 22 0
BBX 20 33 1 -2
BITMAP
0015540000
6FFFFF9000
A50001BD00
05AAA90B80
7FA56BE1D0
1005507C74
1BFFFE4A28
294006D38D
05AAA475CA
2EAAAE28DA
00000358D7
00000358D7
007FFA68DA
001556F9CA
0015541F4D
007FFF92D8
000001B4B0
007FE91E28
00155BD35D
001550B1CA
007FFE28DA
00000758D7
00000358D7
1FAAAE28D6
016AA475CA
3A5406D34D
1AFFFE0A28
5000407874
7FAAABD1D0
056AA90B40
E94005B900
6BFFFF9000
0005500000
ENDCHAR
STARTCHAR four
ENCODING 52
SWIDTH 622 0
DWIDTH 22 0
BBX 21 29 1 0
BITMAP
0001D72CA000
00028A34D000
00075C72C000
000A28E34000
000D75C70000
002CA28E0000
0034D75C0000
00728A280000
00E35D740000
01CB28A00000
038D34D00000
071CB2C00000
0A38D3472800
1D71C7072800
28E38E072800
75C71C072800
A28A28072800
555555555500
BFFFFFFFFF40
000000000000
BFFFFFFFFF40
555555555540
555555555500
BFFFFFFFFF40
000000011400
000000072800
000000072800
000000072800
000000072800
ENDCHAR
STARTCHAR five
ENCODING 53
SWIDTH 691 0
DWIDTH 25 0
BBX 23 31 1 -2
BITMAP
3FFFFFFFFF40
000000000000
2AAAAAAAAA00
2AAAAAAAAA00
000000000000
3FFFFFFFFF40
369D55555500
368D00000000
368D00000000
368D15500000
368DFFFE8000
368D0005F400
368DABA41E00
368D956B8380
368D5550B1D0
368DFABD2CB0
368D00078A34
368DBFE1D728
1144556CA358
0000000D735C
0000001D635C
000FAAB8A368
0041AA42C728
00B9406F5D70
091BFFE478A0
47D00406E2C0
E07FAABE4B40
2E05AA907D00
06E9401BE000
006BFFF90000
000015000000
ENDCHAR
STARTCHAR six
ENCODING 54
SWIDTH 781 0
DWIDTH 28 0
BBX 26 33 1 -2
BITMAP
00000155000000
0000AFFFF90000
000B94001BD000
007916AA907D00
01D1FA56BE4B00
074B805506E000
0D2D2FFFE46000
2CB1F5006F0000
35D786AA510000
728E2EAAB00000
A35CB400000000
A368D015400000
A328DBFFFA0000
A728C50017E000
A728C5AAA47800
A728CE956E4E00
A728C05542D380
A728CBFAF875D0
A728C5001E28A0
A728C6BF938D70
A728DE55B5CA70
A368D00029CA30
A35CB00035CA30
728E2EAAE28D70
35D741A9475CA0
28A1F9016D38D0
0D2D1BFFE0A2C0
074B90000B8740
01E1BEAAFD1D00
007906AA41B400
000BE5006B8000
00006FFFE80000
00000014000000
ENDCHAR
STARTCHAR seven
ENCODING 55
SWIDTH 631 0
DWIDTH 23 0
BBX 21 29 1 0
BITMAP
FFFFF9CA3680
0000028D7280
AAAAA75CA340
AAAAA75CD700
00000728D600
FFFFEA35CA00
555549728D00
00000D735C00
00001CA35800
000028D72800
000025CA3400
000035C97000
0000728D7000
0000A35CA000
0000A728D000
0000D725C000
0001CA35C000
00028D728000
00028CA34000
00035CA70000
000728D70000
000A35CA0000
000A328D0000
000D729C0000
001CA35C0000
0018D7280000
0028DA340000
0035CA300000
00728D700000
ENDCHAR
STARTCHAR eight
ENCODING 56
SWIDTH 808 0
DWIDTH 29 0
BBX 27 33 1 -2
BITMAP
00001555500000
0006FFFFFE4000
007E400006F400
02E06BFEA42E00
0B4BE5556F8780
1D3D055541F1D0
28A1BFFFF928B0
71C790001B4E34
A35D1AAA91D728
A328B955B8A358
A728D0000D735C
A328D00009735C
A35C7FFFF9635C
728A05555BE728
34D2E955506D34
2C746AAAFE4B60
0E1E400006E1D0
2782FFFFE438A0
35B815556F4D34
725FA55542C728
A359ABFFF8A358
A728C0001D635C
A728D0000D735C
A35CBAAAB8A35C
728E1AAA91D728
35D790001B4E34
28B0BFFFF92CB0
0E2D015501F1D0
0747EAAAAF8780
01E06AAAA42E00
002E500006F400
0006FFFFFE4000
00000555400000
ENDCHAR
STARTCHAR nine
ENCODING 57
SWIDTH 782 0
DWIDTH 28 0
BBX 26 33 1 -2
BITMAP
00000554000000
0002FFFFE40000
002E50016E4000
01E46AA942E000
0747E95AF47800
1D2D01501F4E00
28B0BFFF92D740
72C79001B8B2C0
A35D1AA91E38D0
D728BA6BD75CA0
D735C000B28CA0
D735C000368D70
D728B55B35CD70
A35D1BE935CD70
72C7900635CD70
38A1BFFE35CD70
1D2D055035CD70
0747E9AB35CD70
01E46AA435CD70
002E500635CD70
0002BFFE358D70
00000100728D60
00000001E35CA0
0000BAAF8B28D0
000516A42D35C0
000B9406F4A280
00A1BFFE82C700
047D00406E1D00
0B47FAABE47800
02E41AA906D000
006E9401BE0000
0006BFFF900000
00000150000000
ENDCHAR
STARTCHAR colon
ENCODING 58
SWIDTH 262 0
DWIDTH 9 0
BBX 7 17 1 5
BITMAP
6AA4
6AA8
0000
7FFC
1554
5554
6AA8
0000
0000
0000
1554
7FF8
0000
7FF8
5554
1554
7FFC
ENDCHAR
STARTCHAR semicolon
ENCODING 59
SWIDTH 261 0
DWIDTH 9 0
BBX 7 22 1 0
BITMAP
6AA4
6AA8
0000
7FFC
1554
5554
6AA8
0000
0000
0000
1104
735C
735C
735C
735C
635C
035C
0718
7D28
5074
16D0
7E40
ENDCHAR
STARTCHAR less
ENCODING 60
SWIDTH 670 0
DWIDTH 24 0
BBX 22 27 1 1
BITMAP
000000000060
000000000BE0
00000001BD00
0000002F91A0
000006E41B90
0000BE46F810
001B906E41E0
06F91BE06F80
6E41F907E410
A06F81BD06E0
07E42F91BE40
BE06F41B9000
50BE46F90000
1B906E400000
B91BE4B90000
41B9181BD000
6F841F907E40
B81F91BE06E0
6F41B906E410
02F91BE46F80
001BD06E41A0
00007E42F900
000006F41BD0
0000001F90A0
00000001BE00
0000000007E0
000000000050
ENDCHAR
STARTCHAR equal
ENCODING 61
SWIDTH 473 0
DWIDTH 17 0
BBX 15 17 1 5
BITMAP
6AAAAAA4
6AAAAAA4
00000000
7FFFFFF8
15555550
55555554
6AAAAAA4
00000000
00000000
00000000
55555554
7FFFFFF4
00000000
7FFFFFF4
15555554
15555554
7FFFFFF4
ENDCHAR
STARTCHAR greater
ENCODING 62
SWIDTH 670 0
DWIDTH 24 0
BBX 22 27 1 1
BITMAP
500000000000
7E4000000000
06E400000000
A42F90000000
6F81B9000000
01F90BE40000
B81BE06F4000
1B907E41F900
51BE46F81BD0
7D06E41B81F0
0BE42F906F90
006F4146E410
0002E1BE46F0
00001B907E40
0006F91BE060
006E41F90BE0
1BE06F41BD00
B907E42F91B0
41BD06E41B90
2F90BE46F800
B41B906E4000
06F91BE00000
6E41F9000000
A46F80000000
07E400000000
7E0000000000
500000000000
ENDCHAR
STARTCHAR question
ENCODING 63
SWIDTH 693 0
DWIDTH 25 0
BBX 23 31 1 0
BITMAP
000055400000
006FFFFA0000
07E50016E000
2D06AAA46D00
E0BEA5AF4740
07905502E1C0
091BFFF838A0
00B9001B4D34
0041AA92C728
000EA6B8A368
0000000D635C
0000000D635C
0104456CA358
0368DBA1D728
0368D0078A34
0368DFFD2CB0
0368D550B5D0
0368D56B8380
0368DAA41E00
0368D005F400
0368DFFE8000
0368D5400000
0368D0000000
011440000000
055550000000
0BFFF0000000
000000000000
0AAAA0000000
055550000000
055550000000
0BFFF0000000
ENDCHAR
STARTCHAR at
ENCODING 64
SWIDTH 1076 0
DWIDTH 39 0
BBX 37 35 1 -3
BITMAP
00000005AA5000000000
000001BFAABF90000000
00001F900001B9000000
0001F81BFFE90B800000
000782F9555BD0B40000
002D1F4169507D2D0000
00B4B46FAAFE07874000
01D3C2E40006E0A1D000
034A1E0000006D28B000
0A2C7401AA90074E3800
1D75D02FAABD01D75C00
28A380B41407C0A28900
35C702C2FFE4A034D700
728D071E406D381CA300
A35C0D386A475C0D6340
A35C1CA2EAE28D0D7280
D32828D740358D0A7280
D72828DA0035CD0A3280
D32828DA0035CD0A3280
935818D74035CD0A3280
A35C1CB1FF75CD0A3280
B28D0A290535CA0D7280
71CB074BAA69C7BC7240
38E341E05A68A150D340
2C71D02E551D3D5B8B00
0E28B406BF4B0BF91D00
074E2E000002D000B400
02C787D400007EABD000
00E1E0BFEAF406A50000
007D2E01555000000000
000F46E9555400000000
0002E46BFFF800000000
00006E50000000000000
000006FFAAFC00000000
00000005655400000000
ENDCHAR
STARTCHAR A
ENCODING 65
SWIDTH 936 0
DWIDTH 34 0
BBX 33 29 0 0
BITMAP
000000E35C70000000
000002F28A34000000
00000374D728000000
0000071CA35C000000
00000A0D728D000000
00000D5A35CB000000
00002CA728E3400000
000035C35D72800000
00007285CA35C00000
0000A35CD728D00000
0000D728A35CA00000
0002CA34728D340000
00035D7235C7280000
000728E36CA35C0000
000A35CA0D728D0000
000D728D0A35CA0000
001CA35C0728D74000
0034D728035C728000
00728A34028E35C000
00A35CB6A9D728D000
00D728D555A35CA000
01CA35D555728D7400
038D72AFFF75CB2800
0728A3400028E35C00
0A35D76AAA9D728D00
0D728D6AAA9A35CA00
1CA35C00000728D700
28D7280000035CA280
71CA340000028D35C0
ENDCHAR
STARTCHAR B
ENCODING 66
SWIDTH 862 0
DWIDTH 31 0
BBX 29 29 1 0
BITMAP
7FFFFFFFFFE40000
70000000056E0000
71AAAAAAA942D000
72AAAAAAAAF4B400
72400000001E2C00
725FFFFFFF878A00
725D555555B5D700
725C6AAAA52CA340
725CBAAAAB8D7280
725CA00001CA3580
725CA00000CA3580
725CA6AAABCA3280
725CAAAAAA1C6340
725CA00000B4D700
725CABFFFFD28E00
725CA55555B4D700
725CA6AAA91D7340
725CAAAAAB8A3280
725CA00000DA3580
725CA00001CA3680
725CABFFFF8D7280
725CA555552CA340
725CA55555F5D700
725CABFFFE878E00
725CA000002E2C00
725CAAAAABE4B400
725CA5555506D000
725CA55555BE4000
725CABFFFFA40000
ENDCHAR
STARTCHAR C
ENCODING 67
SWIDTH 852 0
DWIDTH 31 0
BBX 29 33 1 -2
BITMAP
0000001550000000
000006FFFF900000
00007E4001BD0000
0007D06AA90B8000
001E1BE96BE0B400
00B4B905407D2D00
01D3D1BFFE478B00
074E1F9006E1E280
0A28781AA47C7400
1CB1D2FAAF4B1400
28D74B4002D24000
72CA2C0000740000
639D700000100000
A368E00000000000
D728C00000000000
D735C00000000000
D635C00000000000
D735C00000000000
D728C00000000000
A368A00000000000
738D740000100000
75CA2C0000740000
28D38B4006D34000
1C71E1FAAE0A1400
0A2C781A90787400
074E1B9016E1E280
01D2D1BFFE0B4B00
0074B901007D2D00
001E0BEAAFD1F000
0007D06AA51B8000
00007E5005B90000
000006FFFE900000
0000000540000000
ENDCHAR
STARTCHAR D
ENCODING 68
SWIDTH 886 0
DWIDTH 32 0
BBX 30 29 1 0
BITMAP
7FFFFFFFFE400000
7000000016F80000
71AAAAAAA41F4000
72AAAAAAAF92D000
7240000001B8B400
725FFFFFF91E2C00
725D55555BC78E00
725C6AAA90B1D700
725CBAAABD28A380
725CA000074D75C0
725CA00001CB28D0
725CA00000D768D0
725CA00000A35CA0
725CA00000739CA0
725CA00000728CA0
725CA00000729CA0
725CA00000A35CA0
725CA00000D728D0
725CA00002CA29D0
725CA000074D75C0
725CBFFFFD28A380
725C555550B1D700
725D55555B874E00
725FFFFFF91E2800
7240000001B4B000
72EAAAAABF82D000
71555555541E0000
7555555556F40000
7FFFFFFFFE400000
ENDCHAR
STARTCHAR E
ENCODING 69
SWIDTH 706 0
DWIDTH 25 0
BBX 23 29 1 0
BITMAP
725CBFFFFFFC
725CA0000000
725CAAAAAAA8
725CBAAAAAA8
725CA0000000
725CBFFFFFFC
725CA5555554
725CA0000000
725CA0000000
725CA0000000
725CA0000000
725CBAAA4000
725CAAAA4000
725CA5550000
725CBFFF4000
725CA0000000
725CAAAA4000
725CAAAA4000
725CA0000000
725CA0000000
725CA0000000
725CA0000000
725CA5555554
725CBFFFFFFC
725CA0000000
725CBAAAAAA8
725CA5555554
725CA5555554
725CBFFFFFFC
ENDCHAR
STARTCHAR F
ENCODING 70
SWIDTH 683 0
DWIDTH 25 0
BBX 23 29 1 0
BITMAP
725CBFFFFFF4
725CA0000000
725CAAAAAAA0
725CBAAAAAA0
725CA0000000
725CBFFFFFF4
725CA5555550
725CA0000000
725CA0000000
725CA0000000
725CA0000000
725CA0000000
725CA5555550
725CBAAAAAA0
725CA0000000
725CBFFFFFE0
725CA5555550
725CA5555550
725CBFFFFFE0
725CA0000000
725CA0000000
725CA0000000
725CA0000000
725CA0000000
725CA0000000
725CA0000000
725CA0000000
725CA0000000
725CA0000000
ENDCHAR
STARTCHAR G
ENCODING 71
SWIDTH 908 0
DWIDTH 33 0
BBX 31 33 1 -2
BITMAP
0000001550000000
000006FFFF900000
00007E4001BD0000
0007D06AA90B8000
001E1BE96BE0B400
00B4B905407D2D00
01D3D1BFFE478B00
074E1F9006E1E280
0A28781AA47C7400
1CB1D2FAAF4B1400
28D74B4002D24000
72CA2C0000740000
639D700000100000
A368E00000000000
D728C00000000000
D735C00000004010
D635C0000028CA34
D735C0000028CA34
D729C0000028CA34
A328D0000028CA34
A35C70000028CA34
728A38000028CA34
38D74F400078CA34
1CB1D2FAAFF8CA34
0E38B81AA528CA34
074E1F9006F8CA34
02D3D1BFFE68CA34
00B4B9014068CA34
002E1BEAABF8CA34
0007D06AA928CA34
0000BE5005B8CA34
000006FFFF900000
0000000550000000
ENDCHAR
STARTCHAR H
ENCODING 72
SWIDTH 901 0
DWIDTH 32 0
BBX 30 29 1 0
BITMAP
725CA00000328DA0
725CA00000328DA0
725CA00000328DA0
725CA00000328DA0
725CA00000328DA0
725CA00000328DA0
725CA00000328DA0
725CA00000328DA0
725CA00000328DA0
725CA00000328DA0
725CA00000328DA0
725CBAAAAAB28DA0
725CAAAAAAB28DA0
725CA55555728DA0
725CBFFFFFF28DA0
725CA00000328DA0
725CBAAAAAB28DA0
725CAAAAAAB28DA0
725CA00000328DA0
725CA00000328DA0
725CA00000328DA0
725CA00000328DA0
725CA00000328DA0
725CA00000328DA0
725CA00000328DA0
725CA00000328DA0
725CA00000328DA0
725CA00000328DA0
725CA00000328DA0
ENDCHAR
STARTCHAR I
ENCODING 73
SWIDTH 338 0
DWIDTH 12 0
BBX 10 29 1 0
BITMAP
725CA0
725CA0
725CA0
725CA0
725CA0
725CA0
725CA0
725CA0
725CA0
725CA0
725CA0
725CA0
725CA0
725CA0
725CA0
725CA0
725CA0
725CA0
725CA0
725CA0
725CA0
725CA0
725CA0
725CA0
725CA0
725CA0
725CA0
725CA0
725CA0
ENDCHAR
STARTCHAR J
ENCODING 74
SWIDTH 434 0
DWIDTH 16 0
BBX 14 31 0 -2
BITMAP
0025CA70
0025CA70
0025CA70
0025CA70
0025CA70
0025CA70
0025CA70
0025CA70
0025CA70
0025CA70
0025CA70
0025CA70
0025CA70
0025CA70
0025CA70
0025CA70
0025CA70
0025CA70
0025CA70
0035C970
00728D70
2AD35CA0
2A4B28D0
006C75C0
7FE1D380
14078B00
2ABD2D00
2A91B400
001B8000
7FF90000
15000000
ENDCHAR
STARTCHAR K
ENCODING 75
SWIDTH 815 0
DWIDTH 29 0
BBX 28 29 1 0
BITMAP
725CA00028A34D
725CA00035C728
725CA000A28D74
725CA001D72CA0
725CA0028A35D0
725CA0075CB280
725CA00A38D740
725CA01D72CA00
725CA028E35D00
725CA075CA2800
725CA0A34D7000
725CA1C728A000
725CA28D35C000
725CA71CA28000
725CAA28D34000
725CA75CB28000
725CA28E35D000
725CA1D72CA000
725CA0A38D7400
725CA075CB2800
725CA028A35D00
725CA00D71CA00
725CA00A28D340
725CA0035C7280
725CA0028A34D0
725CA000D71CA0
725CA000A28D34
725CA00035C728
725CA00028A34D
ENDCHAR
STARTCHAR L
ENCODING 76
SWIDTH 604 0
DWIDTH 22 0
BBX 20 29 1 0
BITMAP
725CA00000
725CA00000
725CA00000
725CA00000
725CA00000
725CA00000
725CA00000
725CA00000
725CA00000
725CA00000
725CA00000
725CA00000
725CA00000
725CA00000
725CA00000
725CA00000
725CA00000
725CA00000
725CA00000
725CA00000
725CA00000
725CA00000
725CA55555
725CBFFFFE
725CA00000
725CBAAAA9
725CA55555
725CA55554
725CBFFFFE
ENDCHAR
STARTCHAR M
ENCODING 77
SWIDTH 920 0
DWIDTH 33 0
BBX 31 29 1 0
BITMAP
75D7000000035D74
7CA28000000B28F4
7D35D000000D75F4
7728A0000028A3A4
734D74000075C724
71CB280000A28D24
70E35D0001D71C24
7271CA00028E3624
7268D340075CB724
725C72C00A38D724
724A38D01C72C724
72475CB038D35724
72568E3471CA5724
725DD71CE34D9724
725CA28D8B28D724
725C35C70D74D724
725C68A398A4D724
725C8D75C5D8D724
725C9B28E29CD724
725CA35D771CD724
725CA2CA2E1CD724
725CA041141CD724
725CA000001CD724
725CA000001CD724
725CA000001CD724
725CA000001CD724
725CA000001CD724
725CA000001CD724
725CA000001CD724
ENDCHAR
STARTCHAR N
ENCODING 78
SWIDTH 877 0
DWIDTH 32 0
BBX 29 29 1 0
BITMAP
78D34D0000D735C0
7C71C70000D735C0
7A28A28000D735C0
735D75D000D735C0
72CB2CB000D735C0
70E38E3400D735C0
7275C75C00D735C0
7268A28A00D735C0
724D34D740D735C0
72471CB2C0D735C0
72568E38E0D735C0
7259D75D74D735C0
725CB28A28D735C0
725C34D34D9735C0
725C5C71C71735C0
725C9A28A38735C0
725CA75D75D735C0
725CA2CB2CA635C0
725CA0E38E3535C0
725CA075C71C35C0
725CA028A28A35C0
725CA00D35D765C0
725CA0071CB2D5C0
725CA0028E38E1C0
725CA001D75D71C0
725CA000A28A29C0
725CA00034D34EC0
725CA0001C71CBC0
725CA0000A28E3C0
ENDCHAR
STARTCHAR O
ENCODING 79
SWIDTH 933 0
DWIDTH 34 0
BBX 32 33 1 -2
BITMAP
0000001550000000
000006FFFF900000
00007E4001B90000
0007D06AA90B8000
001E1BE96BE0B400
00B4B905407D2D00
01D3D1BFFE478B00
074E1F9006E1E280
0A28781AA47C74D0
1CB1D2FAAF4B1C70
28D74B4002D38A34
72CA2C000075D728
639D7000001CA35C
A368E000000D728D
D728C000000A35C9
D735C000000729CA
D635C000000729CA
D735C000000725CA
D728C000000A35C9
A368A000000D728D
738D7400002CA35C
75CA2C000075D728
28D38B4002D38E34
1C71E1FAAE4B1CB0
0A2C781A947874D0
074E1B9016E1E280
01D2D1BFFE0B4B00
0074B90101BD2C00
001E0BEAAFD1E000
0007D06AA51B8000
00007E5005B90000
000006FFFE900000
0000000540000000
ENDCHAR
STARTCHAR P
ENCODING 80
SWIDTH 850 0
DWIDTH 31 0
BBX 29 29 1 0
BITMAP
7FFFFFFFFF900000
7000000005BD0000
71AAAAAAA90B8000
72AAAAAAABE1E000
72400000007D7400
725FFFFFFE4B1C00
725D555556E28A00
725C6AAAA474D700
725CBAAAAF1CA340
725CA000028D7340
725CA00001CD7240
725CA000028D7340
725CA155575CA340
725CA7FFFE28D700
725CA00000B1CA00
725CA6AAAF874D00
725CA555551E2C00
725CA15555F4B400
725CABFFFE82D000
725CA000006F4000
725CA6AAABF40000
725CA6AAA5400000
725CA00000000000
725CA00000000000
725CA00000000000
725CA00000000000
725CA00000000000
725CA00000000000
725CA00000000000
ENDCHAR
STARTCHAR Q
ENCODING 81
SWIDTH 937 0
DWIDTH 34 0
BBX 32 35 1 -4
BITMAP
0000001550000000
000006FFFF900000
00007E4001B90000
0007D06AA90B8000
001E1BE96BE0B400
00B4B905407D2D00
01D3D1BFFE478B00
074E1F9006E1E280
0A28781AA47C74D0
1CB1D2FAAF4B1C70
28D74B4002D38A34
72CA2C000075D728
639D7000001CA35C
A368E000000D728D
D728C000000A35C9
D735C000000729CA
D635C000000729CA
D735C000014725CA
D728C00012CA35C9
A368A00038DD728D
738D74035D2CA35C
75CA2C02C975D728
28D38B4082D38E34
1C71E1FAAE4B1CB0
0A2C781A947874D0
074E1B9016E1E280
01D2D1BFFE0B4B00
0074B90101BD2C00
001E0BEAAFD1E400
0007D06AA51B8A00
00007E5005B95340
000006FFFE9471C0
00000005400A2800
0000000000075400
0000000000028000
ENDCHAR
STARTCHAR R
ENCODING 82
SWIDTH 843 0
DWIDTH 30 0
BBX 29 29 1 0
BITMAP
7FFFFFFFFF900000
7000000005BD0000
71AAAAAAA90B8000
72AAAAAAABE1E000
72400000006D7400
725FFFFFFE4B1C00
725D555556E28A00
725C6AAAA475D700
725CBAAAAF1CA300
725CA000028CA340
725CA000028DA340
725CA000075CA340
725CABFFFE28D700
725CA5555075CB00
725CA5555AD38D00
725CAAAAAA0A2C00
725CA00001B87400
725CABFFFFD1E000
725CA555541B8000
725CA55556BD0000
725CABFFFEDA0000
725CA0035CD70000
725CA0028DA34000
725CA001CA728000
725CA000D735C000
725CA000A368D000
725CA000729CA000
725CA00035CD7000
725CA00028DA3400
ENDCHAR
STARTCHAR S
ENCODING 83
SWIDTH 682 0
DWIDTH 25 0
BBX 23 33 1 -2
BITMAP
000015500000
000BFFFF9000
00BE4001BE00
02D16AA906D0
0B0BA56BE474
1C7905506E00
34E1FFFE4240
728B4005B400
A35D1AA91000
D728F9AB4000
D735C0000000
D728D0000000
A728BFFA4000
A35D055AE400
72C7A5506D00
38E1AAFF4B40
1D3D0002E2C0
0B4BFFE874D0
02E0555F1CA0
007E95428D70
0006AFF5CA34
00000028D634
00000028D634
000FAAB5CA34
00416A828D70
00B9405F1CB0
091AFFF874D0
47D00502E2C0
E07FAAAF4B40
2E41AA946D00
06E94016E000
006BFFFE4000
000015400000
ENDCHAR
STARTCHAR T
ENCODING 84
SWIDTH 591 0
DWIDTH 21 0
BBX 19 29 1 0
BITMAP
FFFFFFFFFC
0000000000
AAAAAAAAA8
AAAAAAAAA8
0000000000
FFFFFFFFFC
5579DE7554
0035C97000
0035C97000
0035C97000
0035C97000
0035C97000
0035C97000
0035C97000
0035C97000
0035C97000
0035C97000
0035C97000
0035C97000
0035C97000
0035C97000
0035C97000
0035C97000
0035C97000
0035C97000
0035C97000
0035C97000
0035C97000
0035C97000
ENDCHAR
STARTCHAR U
ENCODING 85
SWIDTH 905 0
DWIDTH 33 0
BBX 30 31 1 -2
BITMAP
A358D0000035C970
A358D0000035C970
A358D0000035C970
A358D0000035C970
A358D0000035C970
A358D0000035C970
A358D0000035C970
A358D0000035C970
A358D0000035C970
A358D0000035C970
A358D0000035C970
A358D0000035C970
A358D0000035C970
A358D0000035C970
A358D0000035C970
A358D0000035C970
A358D0000035CD70
635CA00000358D70
728D700000B28DA0
35CA380001D75CA0
28D75E40078A38D0
1CA2D2EABD2C72C0
0E38B45A90B5D340
075E1F501B878A00
02C781BFF91E2C00
00B0B80101B4B400
002D1BEAAF82D000
000B906AA42E0000
0001BE4016F40000
00000AFFFE400000
0000000540000000
ENDCHAR
STARTCHAR V
ENCODING 86
SWIDTH 940 0
DWIDTH 34 0
BBX 32 29 1 0
BITMAP
D728D000000A38D7
A35CA000000D72CA
728D3400001CA35D
35C728000028D728
2CA35C000035CA34
0D728D0000A28D70
0A35CA0000D71CA0
0728D74001CA35D0
035CB280028D7280
028A35C0035CA340
00D728D00B28D700
00A35CA00D71CA00
00728D701CA34D00
0035CA2828D72800
0028E35C35CA3400
001D728D728D7000
000A35C8D75CA000
000728D1CA38D000
00035CA28D72C000
00028D335CA34000
0001C71728D70000
0000A34D35CA0000
0000729CA28D0000
00003568D71C0000
00002835CA340000
00001C728D700000
00000AE35CA00000
000007CB28D00000
0000038D71C00000
ENDCHAR
STARTCHAR W
ENCODING 87
SWIDTH 1161 0
DWIDTH 42 0
BBX 40 29 1 0
BITMAP
D635C0035CA3400728D7
D728D00728D7800A35CA
A35CA00A35CBC00A328D
728D7009728DD00D735C
35C9700D735CA01CA35C
28CA341CA35D7028D728
28D72828D72D3435CA34
1CA35C35CA3E28358D70
0D728D368D7728728CA0
0A358D729CA35CA35CA0
0725CAA35CB28DD728D0
0728D5D728F5CBCA35C0
035CA1CA35F4D7C97280
028D71C972A8E38D6340
01CA728D635CA35CA340
00D6375CA38D7728D700
00D72728D7CA3E35CA00
00A34A35CAD72E328D00
00728A328DD35D729C00
00358D725CA39CA35C00
0029DCA35C72A8D72800
0028A8D72835F5CA3400
001C35CA3428F58D7000
000D358D701CB28DA000
000A728DA00DA35CA000
000AA35CA00DD728D000
0007D728D00BCA35C000
0003CA35C007CA728000
0002C97280038D724000
ENDCHAR
STARTCHAR X
ENCODING 88
SWIDTH 876 0
DWIDTH 32 0
BBX 30 29 1 0
BITMAP
D34D34000B28A280
71C71C001D75D740
28A28A0038E38E00
1D75D740B2CB2C00
0B2CB2C0D75D7400
038E38E28A28A000
01D75D671C71C000
00A28A1D34D34000
0034D368A28A0000
001C7175D75D0000
000A28E38E380000
00075ACB2CB00000
0002C75D75D00000
0000DA28A2800000
00001C71C7400000
000034D34DA00000
0000A28A28740000
0001D75D76280000
00038E38E34D0000
000B2CB2D1C70000
001D75D768A28000
0028E38E0D34D000
0072C72DC71C7000
00D34D34A38A3800
028A28A075D75D00
071C71C02CB2CB00
0D34D3400E38E380
2CA28A00075D75D0
75D75D00028A28A0
ENDCHAR
STARTCHAR Y
ENCODING 89
SWIDTH 789 0
DWIDTH 28 0
BBX 27 29 1 0
BITMAP
CA3680001C9728
A368D00025CA70
328DA000725CA0
28CA34009729C0
1CA36801CA7280
0A728D029CA300
0728DA0728CA00
025CA34A328D00
01CA728CA36800
009728A8DA3400
00729C368DA000
0035CAA368D000
001C95DA358000
000D728D634000
00063758D70000
00035635CD0000
00018D735C0000
0000ECD7240000
0000B5C9700000
0000728CA00000
0000728CA00000
0000728CA00000
0000728CA00000
0000728CA00000
0000728CA00000
0000728CA00000
0000728CA00000
0000728CA00000
0000728CA00000
ENDCHAR
STARTCHAR Z
ENCODING 90
SWIDTH 854 0
DWIDTH 31 0
BBX 29 29 1 0
BITMAP
BFFFFFFFFFFFFF40
0000000000001F00
6AAAAAAAAAA0B800
6AAAAAAAAA87D240
00000000002E1E00
BFFFFFFFD1F4B800
155555550B87D240
6AAAAA907D2E1E00
6AAAAA82E1F4B800
0000001B4B87D240
000000B87D2E1E00
000006D2E1F4B400
00001E1F4B879000
0001B4B87D2D0000
000787D2E1E40000
002D2E1F4B800000
01E1B4B879000000
0B4B87D2E0000000
786D2E1E40000000
91E1F4B800000000
1B4B87D1BFFFFF40
787D2E0155555500
92E1F45555555500
1F4B82FFFFFFFF40
787D000000000000
92E1AAAAAAAAAA40
1F45555555555500
7955555555555500
BFFFFFFFFFFFFF40
ENDCHAR
STARTCHAR bracketleft
ENCODING 91
SWIDTH 320 0
DWIDTH 12 0
BBX 10 34 1 -3
BITMAP
155550
7FFFD0
700000
72FFD0
729550
724540
725FD0
725C00
725C00
725C00
725C00
725C00
725C00
725C00
725C00
725C00
725C00
725C00
725C00
725C00
725C00
725C00
725C00
725C00
725C00
725C00
725C00
725E90
724550
729540
72FFE0
700000
7AAA90
6AAA90
ENDCHAR
STARTCHAR backslash
ENCODING 92
SWIDTH 448 0
DWIDTH 16 0
BBX 15 33 1 -4
BITMAP
D7340000
D7280000
A35C0000
728D0000
35CD0000
35CA0000
28D70000
1CA34000
0D734000
0D728000
0A35C000
0728D000
035CD000
035CA000
028D7000
01CA3400
00D72400
00D72800
00A35C00
00728D00
0035C900
0035CA00
0028D700
001CA340
000D7240
00097280
000A35C0
000728D0
00035C90
00025CA0
00028D70
0001CA34
00004514
ENDCHAR
STARTCHAR bracketright
ENCODING 93
SWIDTH 319 0
DWIDTH 12 0
BBX 9 34 1 -3
BITMAP
555540
FFFFC0
0001C0
BFF5C0
5575C0
5535C0
FE35C0
0635C0
0635C0
0635C0
0635C0
0635C0
0635C0
0635C0
0635C0
0635C0
0635C0
0635C0
0635C0
0635C0
0635C0
0635C0
0635C0
0635C0
0635C0
0635C0
0635C0
AE35C0
5535C0
5575C0
FFF5C0
0001C0
AAABC0
AAAA40
ENDCHAR
STARTCHAR asciicircum
ENCODING 94
SWIDTH 475 0
DWIDTH 17 0
BBX 15 15 1 11
BITMAP
00045000
002D7000
007E3400
00A72800
00D35C00
01C28E00
028DD700
035CA340
0A287280
0D7035C0
1CA028D0
28D01C70
35C00E34
72800728
52000218
ENDCHAR
STARTCHAR underscore
ENCODING 95
SWIDTH 511 0
DWIDTH 18 0
BBX 16 7 1 -7
BITMAP
7FFFFFFE
15555555
55555555
6AAAAAAA
00000000
7FFFFFFE
15555555
ENDCHAR
STARTCHAR grave
ENCODING 96
SWIDTH 472 0
DWIDTH 17 0
BBX 15 9 1 25
BITMAP
0B400000
02F40000
B82F4000
1F81F400
01F81F40
001B81F4
0001B810
00001B40
00000100
ENDCHAR
STARTCHAR a
ENCODING 97
SWIDTH 832 0
DWIDTH 30 0
BBX 28 27 1 -1
BITMAP
00001BFF940000
0002F955AE4000
002E415542E000
00B46FABF82D00
02D2E4001F4B40
0B5E06FE91E2C0
0D387E56B878E0
28A2D0551F1D70
35C74BFFD28A28
728D3D00B4D35C
A35CB0001C728C
D728D0000A368D
D635C0000A35CD
D635C0000735C9
D735C0000735C9
D728D0000735C9
A35CA0000735C9
728D39005735C9
35D74BEFD735C9
2CA1E0550735C9
0E286E96E735C9
074B46AA4735C9
01E1F9015735C9
00781BFF9735C9
001B90100735C9
0001BEAAE735C9
000006AA400000
ENDCHAR
STARTCHAR b
ENCODING 98
SWIDTH 720 0
DWIDTH 26 0
BBX 24 26 1 0
BITMAP
155555554000
7FFFFFFFF900
700000001B80
72AAAAAA91E0
72955555BD34
724555550B5C
725FFFFFE28D
725C000075CA
725C000028CA
725C000075CA
725DFFFFE28D
725C5555075C
725C5556BD38
725CAAAAF874
725C00001A2C
725DFFFF938D
725C5555B5CA
725C000028CA
725C000029CA
725C5555B5CA
725CAAAA938D
725C00001E2C
725CFFFFF874
725C555542E0
725C55556F40
725CFFFFA400
ENDCHAR
STARTCHAR c
ENCODING 99
SWIDTH 736 0
DWIDTH 27 0
BBX 25 29 1 -2
BITMAP
00000169400000
00007FAAF90000
0007E4001BD000
002D06FF90B800
00B0BE55BE1E00
0287915507C740
0B1E1FEBE4B100
0D74B8006D2400
28A2D2BE474000
35C71F56E10000
728D3800280000
A35CA000000000
D728D000000000
D735C000000000
D635C000000000
D735C000000000
D728D000000000
A35CB000100000
728E2D00780000
35D74BABE24000
2CB1D1A90B4000
0D387D41B93400
074E0BFF91E140
02D2E0101B8740
00B46FAAF92D00
001E41AA41F400
0002F9006F8000
00002BFFE40000
00000054000000
ENDCHAR
STARTCHAR d
ENCODING 100
SWIDTH 833 0
DWIDTH 30 0
BBX 28 26 1 0
BITMAP
15555555400000
7FFFFFFFFE0000
7000000016E000
72AAAAAA947D00
72955556AE4B40
7245555502D2C0
725FFFFFF474A0
725C00005E1D34
725CAAAA828B28
725CAAAAB4E35D
725CA0002C728D
725CA0000A35CA
725CA0000728CA
725CA0000728CA
725CA0000725CA
725CA0000E35CA
725CA0002CB28D
725CBFFFE1D35C
725C5555478A28
725D55556D2C70
725FFFFFA0B4E0
7240000007C380
72EAAAAAFD1E00
7155555550B800
755555556B9000
7FFFFFFFE50000
ENDCHAR
STARTCHAR e
ENCODING 101
SWIDTH 666 0
DWIDTH 24 0
BBX 22 26 1 0
BITMAP
110455555550
725CBFFFFFE0
725CA0000000
725CBAAAAA90
725CA5555550
725CA5555540
725CBFFFFFE0
725CA0000000
725CA0000000
725CA0000000
725CBFFFFF80
725CA5555540
725CA5555540
725CBFFFFFC0
725CA0000000
725CBAAAAA80
725CA5555540
725CA0000000
725CA0000000
725CA5555550
725CBFFFFFE0
725CA0000000
725CBAAAAA90
725CA5555550
725CA5555540
725CBFFFFFE0
ENDCHAR
STARTCHAR f
ENCODING 102
SWIDTH 625 0
DWIDTH 23 0
BBX 21 26 1 0
BITMAP
110455555500
725CBFFFFF40
725CA0000000
725CBAAAAA40
725CA5555500
725CA5555500
725CBFFFFF40
725CA0000000
725CA0000000
725CA0000000
725CA0000000
725CBFFFFD00
725CA0000000
725CAAAAA900
725CBAAAA900
725CA0000000
725CBFFFFD00
725CA5555400
725CA0000000
725CA0000000
725CA0000000
725CA0000000
725CA0000000
725CA0000000
725CA0000000
725CA0000000
ENDCHAR
STARTCHAR g
ENCODING 103
SWIDTH 827 0
DWIDTH 30 0
BBX 28 29 1 -2
BITMAP
00000169400000
00007FAAF90000
0007E4001BD000
002D06FF90B800
00B0BE55BE1E00
0287915507C740
0B1E1FEBE4B100
0D74B8006D2400
28A2D2BE474000
35C71F56E10000
728D3800280000
A35CA000000000
D728D000000000
D735C000000000
D635C000062589
D735C0000A368D
D728D0000A368D
A35CB0000A368D
728E2D001E368D
35D74BAAFA368D
2CB1D1AA4A368D
0D387D416E368D
074E0BFFEA368D
02D2E0141A368D
00B46FAAFE368D
001E41AA4A368D
0002F9006E368D
00002BFFE40000
00000054000000
ENDCHAR
STARTCHAR h
ENCODING 104
SWIDTH 830 0
DWIDTH 30 0
BBX 28 26 1 0
BITMAP
11044000051144
725CA0000A368D
725CA0000A368D
725CA0000A368D
725CA0000A368D
725CA0000A368D
725CA0000A368D
725CA0000A368D
725CA0000A368D
725CA5555A368D
725CBAAAAE368D
725CA0000A368D
725CBFFFFE368D
725CA5555A368D
725CA5555A368D
725CBFFFFE368D
725CA0000A368D
725CA0000A368D
725CA0000A368D
725CA0000A368D
725CA0000A368D
725CA0000A368D
725CA0000A368D
725CA0000A368D
725CA0000A368D
725CA0000A368D
ENDCHAR
STARTCHAR i
ENCODING 105
SWIDTH 337 0
DWIDTH 12 0
BBX 10 26 1 0
BITMAP
110440
725CA0
725CA0
725CA0
725CA0
725CA0
725CA0
725CA0
725CA0
725CA0
725CA0
725CA0
725CA0
725CA0
725CA0
725CA0
725CA0
725CA0
725CA0
725CA0
725CA0
725CA0
725CA0
725CA0
725CA0
725CA0
ENDCHAR
STARTCHAR j
ENCODING 106
SWIDTH 393 0
DWIDTH 14 0
BBX 13 30 0 -4
BITMAP
00441140
01CA7280
01CA7280
01CA7280
01CA7280
01CA7280
01CA7280
01CA7280
01CA7280
01CA7280
01CA7280
01CA7280
01CA7280
01CA7280
01CA7280
01CA7280
01CA7280
01CA7280
01CA7280
028D7240
1B5CA340
7D38D700
01E1CA00
2B875D00
291D2800
05F4B000
7F82C000
102E0000
2BE40000
29000000
ENDCHAR
STARTCHAR k
ENCODING 107
SWIDTH 801 0
DWIDTH 29 0
BBX 27 26 1 0
BITMAP
11044000144104
725CA00035C728
725CA000A28D74
725CA001D72CA0
725CA0028D35C0
725CA0071CA280
725CA00E35D700
725CA01CA28D00
725CA034D71C00
725CA0B28E3400
725CA0D71CA000
725CA28A34D000
725CA75CB28000
725CAA28D34000
725CA75C728000
725CA28A34D000
725CA0D75CB000
725CA0728A3400
725CA034D71C00
725CA01CB28E00
725CA00A34D700
725CA0071CA280
725CA0028E35D0
725CA001D71CA0
725CA000A28D34
725CA00035D72C
ENDCHAR
STARTCHAR l
ENCODING 108
SWIDTH 583 0
DWIDTH 21 0
BBX 19 26 1 0
BITMAP
1104400000
725CA00000
725CA00000
725CA00000
725CA00000
725CA00000
725CA00000
725CA00000
725CA00000
725CA00000
725CA00000
725CA00000
725CA00000
725CA00000
725CA00000
725CA00000
725CA00000
725CA00000
725CA00000
725CA55554
725CBFFFF8
725CA00000
725CBAAAA8
725CA55554
725CA55554
725CBFFFF8
ENDCHAR
STARTCHAR m
ENCODING 109
SWIDTH 1167 0
DWIDTH 42 0
BBX 40 27 1 0
BITMAP
000016A500005A540000
0006FAAFE41BFABF9000
002E40007EB90001B800
01E06FFE47D1BFF90B40
0787E556F5FF955BD2D0
0E2D05542D3C155078A0
1CB4BEAF875EFEBE1D34
35D39001E1CB4006C718
728A1BF928D76FE4A28C
735CB95B5CA3E56D358D
A358D0028D63800B35C9
A368D0018D73400725CA
A368D0018D73400725CA
A368D0018D73400725CA
A368D0018D73400725CA
A368D0018D73400725CA
A368D0018D73400725CA
A368D0018D73400725CA
A368D0018D73400725CA
A368D0018D73400725CA
A368D0018D73400725CA
A368D0018D73400725CA
A368D0018D73400725CA
A368D0018D73400725CA
A368D0018D73400725CA
A368D0018D73400725CA
A368D0018D73400725CA
ENDCHAR
STARTCHAR n
ENCODING 110
SWIDTH 787 0
DWIDTH 28 0
BBX 26 26 1 0
BITMAP
10410400014450
78E38E00028CA0
7D71C700028CA0
7A28A280028CA0
735D75D0028CA0
72CB2CA0028CA0
71D34D34028CA0
7271C72C028CA0
7268E38E028CA0
725D75D7028CA0
724A28A2828CA0
72574D75D28CA0
725ACB2CB28CA0
725CE38E368CA0
725C71C71D8CA0
725C28A38E4CA0
725C1D75D74CA0
725C0A28A28CA0
725C034D35D8A0
725C01CB2CB4A0
725C00E38E38A0
725C0071C71CA0
725C0028A28EA0
725C001D75D7A0
725C000B2CB2E0
725C00034D34E0
ENDCHAR
STARTCHAR o
ENCODING 111
SWIDTH 833 0
DWIDTH 30 0
BBX 28 29 1 -2
BITMAP
00000169400000
00007FABF90000
0007E4001B9000
002D06FF90B800
00B0BE55BD1E00
0287915507C780
0B1E1FEBE4B5D0
0D74B8006D2CB0
28A2D2BE474E34
35C71F56E1D71C
728D380028B28D
A35CA0000E35CA
D728D0000729CA
D735C0000328DA
D635C0000368D6
D735C0000728CA
D728D0000A35CA
A35CB0001D728D
728E2D0078A35C
35D74BABE2C728
2CB1D1A90B5D34
0D387D41BC38A0
074E0BFF91E1C0
02D2E0141B8740
00B46FAAF92D00
001E41AA41F400
0002F9006F8000
00002BFFE40000
00000054000000
ENDCHAR
STARTCHAR p
ENCODING 112
SWIDTH 781 0
DWIDTH 28 0
BBX 26 26 1 0
BITMAP
15555555400000
7FFFFFFFFE0000
7000000006E000
72AAAAAAA47800
72955555AE4E00
7245555542D740
725FFFFFF4B1C0
725C00001E28D0
725CAAAA875CA0
725CAAAAB28D70
725CA00035CD70
725CA555B28D70
725CA6AA935CA0
725CA0001E28D0
725CA7FFF875D0
725CA55542D380
725CA5556F4B00
725CA7FFA47D00
725CA00006E000
725CA7FFFE4000
725CA555500000
725CA000000000
725CA000000000
725CA000000000
725CA000000000
725CA000000000
ENDCHAR
STARTCHAR q
ENCODING 113
SWIDTH 788 0
DWIDTH 28 0
BBX 26 30 1 -4
BITMAP
00000555555550
0002FFFFFFFFE0
002E40000000A0
00B46AAAAAA8A0
0386E955556DA0
0A1E0155550DA0
1C747FFFFF8DA0
34D2D000028DA0
728B1AAAA28DA0
A35C7AAAB28DA0
D728D000328DA0
D635C000328DA0
D635C000328DA0
D725C000328DA0
A328E400728DA0
B38D6FFF728DA0
75C74000728DA0
38A1FAAA728DA0
1D381AAA728DA0
0B4B9000328DA0
02D1BFFF728DA0
00B90155728DA0
001BEAAA728DA0
00006AAA728DA0
00000000328DA0
00000000328DA0
00000000328DA0
00000000328DA0
00000000328DA0
00000000218860
ENDCHAR
STARTCHAR r
ENCODING 114
SWIDTH 831 0
DWIDTH 30 0
BBX 28 26 1 0
BITMAP
15555555540000
7FFFFFFFFFE000
70000000006D00
72AAAAAAAA4780
729555555AE0E0
72455555542D74
725FFFFFFF4B2C
725C000001E38D
725CAAAAA875CA
725CAAAAAB28DA
725CA0000328DA
725CA6AAAB28CA
725CAAAAA875CA
725CA00006E38D
725CABFFFF4B2C
725CA155502D74
725CA6AAAAE1E0
725CAAAAAA4780
725CA000017E00
725CABFFFFF800
725CA55E775C00
725CA00A36CE00
725CA00368DB00
725CA0029CA340
725CA001CD7280
725CA000D735C0
ENDCHAR
STARTCHAR s
ENCODING 115
SWIDTH 683 0
DWIDTH 25 0
BBX 23 27 1 -1
BITMAP
0005BFFA4000
007E955AF900
02D015541B80
0E0BFFFF91B4
28790001BD14
71D1AFE90740
A34B955BE000
972800006400
D72400000000
972D00000000
A34BFFAA4000
71D0555AF400
287E55501E00
0E06FFFF8380
02E40001B4E0
006FEAA91C70
0001556B8A34
00000001D734
00000000D724
00E40002CA34
052FEABE5D70
0B805A5078A0
A1BA555BD2C0
7916FFF90B40
0BD40001B900
007FEAAF9000
00016A940000
ENDCHAR
STARTCHAR t
ENCODING 116
SWIDTH 588 0
DWIDTH 21 0
BBX 19 26 1 0
BITMAP
5555555554
FFFFFFFFFC
0000000000
AAAAAAAAA8
5555555554
5555555554
FFFFFFFFFC
0010441000
0035C97000
0035C97000
0035C97000
0035C97000
0035C97000
0035C97000
0035C97000
0035C97000
0035C97000
0035C97000
0035C97000
0035C97000
0035C97000
0035C97000
0035C97000
0035C97000
0035C97000
0035C97000
ENDCHAR
STARTCHAR u
ENCODING 117
SWIDTH 795 0
DWIDTH 29 0
BBX 26 28 1 -2
BITMAP
51044000104510
A368D00029CA30
A368D00029CA30
A368D00029CA30
A368D00029CA30
A368D00029CA30
A368D00029CA30
A368D00029CA30
A368D00029CA30
A368D00029CA30
A368D00029CA30
A368D00029CA30
A368D00029CA30
A368D00029CA30
A358D00029CA30
A35CD00035CA70
735CA000718D70
728D3801E34DA0
35C75FAB8B28D0
28A2D1A92D75C0
0D38B905F4E280
071E1BFF878B00
0287D0102E1D00
00B4BEAAF47400
002E06A946D000
0007E4016E0000
00006FFFA00000
00000050000000
ENDCHAR
STARTCHAR v
ENCODING 118
SWIDTH 855 0
DWIDTH 31 0
BBX 29 26 1 0
BITMAP
4510400000451040
D728D000028D71C0
A35C7000035CA340
728A34000728D700
38D728000E35CA00
1CA35C001CB28D00
0D728D0028D71C00
0A35CB0035CA3800
0728E340728D7000
034D7280A35CA000
01CA35C1CB28D000
00D728D28D35C000
00A35CA35CA38000
00728E2728D70000
0035D70A35CA0000
002CA35D728D0000
000D7268D35C0000
000A3535CA280000
000728728D700000
00035CA35CA00000
0002C8D728D00000
0000D28E35C00000
0000A35CB2800000
00007728D7400000
00003E35CA000000
00002D728D000000
ENDCHAR
STARTCHAR w
ENCODING 119
SWIDTH 1129 0
DWIDTH 41 0
BBX 38 27 1 -1
BITMAP
51044001144500104510
A368D00328DA0029CA30
A368D00328DA0029CA30
A368D00328DA0029CA30
A368D00328DA0029CA30
A368D00328DA0029CA30
A368D00328DA0029CA30
A368D00328DA0029CA30
A368D00328DA0029CA30
A368D00328DA0029CA30
A368D00328DA0029CA30
A368D00328DA0029CA30
A368D00328DA0029CA30
A368D00328DA0029CA30
A368D00328DA0029CA30
A368D00328DA0029CA30
A358D00728CA0035CA70
735CB41A35CB51B1CD70
728D2FF8728EFF938D60
35D78001D35D001A2CA0
28A1FAAF4A2FEAF875C0
0D2D1AA42CB46A41D380
074B9416E1FE406F4B00
01E1BFFE4B86FFE42C00
007D00007EE40406E000
0007EAABE06FAABE4000
00005AA90001AA900000
ENDCHAR
STARTCHAR x
ENCODING 120
SWIDTH 790 0
DWIDTH 28 0
BBX 27 26 1 0
BITMAP
41051400410414
A2CB1C02CB1C74
74E38A075D34E0
2C75D74E28A2C0
0E28B2AC71D740
074D3874D38E00
02C71CE28B2C00
00E286C75D7400
0075D74E38A000
002C9A2CB1C000
000E1C75D34000
000734E28B0000
0001B2C71D0000
0001D74D380000
00038E28B50000
000B2C75D70000
001D34E3938000
0038A2CB75D000
00B1D75D2CB000
01D38E294D3800
028B2C72C71D00
071D74D4E28B00
0D38A29D75D380
28B1C74A2CB1D0
75D34E034E38A0
E38A2C01C75D34
ENDCHAR
STARTCHAR y
ENCODING 121
SWIDTH 733 0
DWIDTH 26 0
BBX 25 26 1 0
BITMAP
44114000411040
D635C001CD7240
A35CA0035C9700
35CD700725CA00
28D72809729C00
0D728D1CA72800
0635CA29CA3000
035CA3728CA000
018D74A728C000
00D729CA328000
00628A8CA34000
0035C328DA0000
0018AA368D0000
000D5DA3580000
000628D6340000
0003758D600000
0001E358D00000
0000D735C00000
0000D735C00000
0000D735C00000
0000D735C00000
0000D735C00000
0000D735C00000
0000D735C00000
0000D735C00000
0000D735C00000
ENDCHAR
STARTCHAR z
ENCODING 122
SWIDTH 714 0
DWIDTH 26 0
BBX 24 26 1 0
BITMAP
155555451450
BFFFFF9D74E1
00000038A2CA
6AAAA9B1C75D
6AAAA5D38E28
1555528B2C70
BFFFE75D34D0
00000E38A280
00002CB1D700
000075D38D00
0000E28B2C00
0002C71D7400
00074E38A000
000A2CB1C000
001D74D34000
0038E28A0000
00B2C75D0000
01D34E380000
038A2CB00000
0B1D74D55554
1D38E28FFFFD
28B1C7000000
75D34E6AAAA9
E38A2C555555
CB1D75555554
4D38E3FFFFFD
ENDCHAR
STARTCHAR braceleft
ENCODING 123
SWIDTH 396 0
DWIDTH 14 0
BBX 13 39 1 -8
BITMAP
00005500
0007FF40
002D0000
00E0AF40
02C79500
035D1500
0728BF40
0A35C000
09728000
09728000
09728000
09728000
09728000
09728000
09728000
09728000
05724000
F9534000
5AD30000
54780000
FE1D0000
02CB0000
A4E34000
6D734000
0D724000
09728000
09728000
09728000
09728000
09728000
09728000
0A32C000
0A34FA40
075D1A40
028B9500
00E1BF40
00790000
000BEA40
00006A40
ENDCHAR
STARTCHAR bar
ENCODING 124
SWIDTH 266 0
DWIDTH 10 0
BBX 7 33 1 -4
BITMAP
725C
725C
725C
725C
725C
725C
725C
725C
725C
725C
725C
725C
725C
725C
725C
725C
725C
725C
725C
725C
725C
725C
725C
725C
725C
725C
725C
725C
725C
725C
725C
725C
6258
ENDCHAR
STARTCHAR braceright
ENCODING 125
SWIDTH 396 0
DWIDTH 14 0
BBX 13 39 1 -8
BITMAP
55000000
FFE00000
006D0000
FA4B4000
56E2C000
5478D000
FF1CA000
028D7000
01CA7000
01CA3000
01CA3000
01CA3000
01CA3000
01CA3000
01CA3000
00CA3900
00D71F40
00A28000
0034BA40
001D1600
00979500
00D1BF40
00CA1000
01CA3000
01CA3000
01CA3000
01CA3000
01CA3000
01CA3000
01CA3000
01CA7000
028D7000
AB5D6000
A428E000
55E1C000
FF474000
002D0000
AAE40000
A9400000
ENDCHAR
STARTCHAR asciitilde
ENCODING 126
SWIDTH 665 0
DWIDTH 24 0
BBX 22 7 1 20
BITMAP
016AAAA90850
0BEAAAA91CA0
2C0000002CA0
74BFFFFFF4D0
62D5555502C0
A346AAAAAF40
9206AAAAA400
ENDCHAR
STARTCHAR uni00A0
ENCODING 160
SWIDTH 108 0
DWIDTH 4 0
BBX 1 1 0 0
BITMAP
00
ENDCHAR
STARTCHAR exclamdown
ENCODING 161
SWIDTH 336 0
DWIDTH 12 0
BBX 10 31 1 -2
BITMAP
725CA0
725CA0
725CA0
725CA0
725CA0
725CA0
725CA0
725CA0
725CA0
725CA0
725CA0
725CA0
725CA0
725CA0
725CA0
725CA0
725CA0
725CA0
725CA0
725CA0
725CA0
114450
000000
000000
7FFFE0
155540
6AAA90
6AAA90
000000
7FFFE0
155540
ENDCHAR
STARTCHAR cent
ENCODING 162
SWIDTH 708 0
DWIDTH 26 0
BBX 24 36 1 -3
BITMAP
000005040000
00000A090000
00000A090000
00000A090000
000009090000
00001AAA4000
0002FA5AF800
001E40541B80
00B46FFF91E0
02D2E401B92C
075E06A90B49
0D387EABD1D0
28A2D0507850
35C74BFE0E00
728D3906D000
A35CA0009000
D728D0000000
D735C0000000
D735C0000000
D729C0000000
A368A0005000
728D7802D000
35CB1FFF4900
28E2D1546C40
1D74B956E1D0
0B1E1BFA4789
0287D0007D2D
00B47FAFE1B4
002E05550B80
0006E555BD00
00006BFE9000
000005050000
00000A090000
00000A090000
00000A090000
00000A090000
ENDCHAR
STARTCHAR sterling
ENCODING 163
SWIDTH 689 0
DWIDTH 25 0
BBX 23 31 1 0
BITMAP
000015540000
0006FFFFE400
007E4001AE40
01E06AA942E0
074BE96BF428
0D2D05501F40
28B1BFFF9180
35D79001B800
728E1AA90400
735CBAAA8000
A358D0000000
A358D0000000
A358D0000000
A358D0000000
A358DFFFFD00
A358D5555400
A358DAAAA900
A358DAAAA900
A358D0000000
A358DFFFFD00
A358D5555400
A358D0000000
A358D0000000
A358D0000000
A358E5555400
A358FFFFFD00
A358D0000000
A358FAAAA900
A358E5555500
A358D5555400
A358FFFFFD00
ENDCHAR
STARTCHAR currency
ENCODING 164
SWIDTH 715 0
DWIDTH 26 0
BBX 24 28 1 -1
BITMAP
00A000000A00
097400002C50
0B1D000075D0
D38B0001D38A
74D26AA54B2C
2C76E9AF9C74
0A2E0141B4E0
02B4BFFD2D80
01D2D01B8B00
028A0000E340
035C00007180
0728000025C0
0634000028D0
0A34000018D0
0A34000028D0
0634000028D0
0728000035C0
035D0000B280
02CB4001D740
01E2E56F4E40
07786BE42DD0
1D1F4006E4B0
38A2FFFE4E28
A2C71551D74E
475D0000B1D5
0938000038A0
00B000000D00
004000000500
ENDCHAR
STARTCHAR yen
ENCODING 165
SWIDTH 796 0
DWIDTH 29 0
BBX 27 29 1 0
BITMAP
D635C0001CA328
635CD00028CA34
358D7000328DA0
28D63400A328D0
0DA35C00CA3680
0A358D028DA340
0328D70368D600
028DA34A358D00
00CA35CD635C00
00A36898D73400
00728D35CD7000
0029CA635C9000
001CA1D735C000
000971CD724000
0007275C970000
00025725CA0000
0001C9729C0000
0000ECA7280000
000079CA300000
0000368D600000
02FF768D6BFD00
0155768D655500
0155368D655400
02FF768D6BFD00
0000368D600000
0000368D600000
0000368D600000
0000368D600000
0000368D600000
ENDCHAR
STARTCHAR brokenbar
ENCODING 166
SWIDTH 263 0
DWIDTH 10 0
BBX 7 33 1 -4
BITMAP
735C
735C
735C
735C
735C
735C
735C
735C
735C
735C
735C
735C
735C
6258
0000
0000
0000
0000
0000
735C
735C
735C
735C
735C
735C
735C
735C
735C
735C
735C
735C
735C
6258
ENDCHAR
STARTCHAR section
ENCODING 167
SWIDTH 108 0
DWIDTH 4 0
BBX 1 1 0 0
BITMAP
00
ENDCHAR
STARTCHAR dieresis
ENCODING 168
SWIDTH 556 0
DWIDTH 20 0
BBX 18 5 1 26
BITMAP
5214014850
A358029CA0
A358029CA0
A358029CA0
5114014450
ENDCHAR
STARTCHAR copyright
ENCODING 169
SWIDTH 869 0
DWIDTH 31 0
BBX 30 30 1 1
BITMAP
0000005540000000
00001BFFFE000000
0001FF95AFE00000
000BE00001FD0000
007E0000001F8000
01F800154007D000
03D007FFF901F400
0B802FA5BF807C00
1F00F90007E02E00
2D02E00000B00F00
3C0B800000000B40
780F400000000780
B41E0000000003C0
B42D0000000003C0
F02D0000000002D0
F02D0000000002D0
B42D0000000003C0
B42E0000000003C0
781F000000000780
7C0B800000000B80
3D07D00000A00F40
1E01F80002F01E00
0F407F506FD03D00
07D01BFFFE00B800
01F401AA9002E000
00BD0000000B8000
001F900000BE0000
0006FA405BF40000
00006FFFFF400000
000001AA94000000
ENDCHAR
STARTCHAR ordfeminine
ENCODING 170
SWIDTH 833 0
DWIDTH 30 0
BBX 28 27 1 -1
BITMAP
00001BFFA40000
0002F9556F4000
001F415541F400
00B86FEBF82D00
01D2E4001B8740
074B46FF91E1D0
0E287E55B838A0
1CB1E0550B4D34
34D74BFFD2C728
728A2D0078A35C
A35C74001D728D
A328D0000A35CA
9728C0000729CA
9729C0000728CA
A728C0000728CA
A368D0000728CA
735C70000728CA
71CA2D005728CA
28D787FBE728CA
1C71E0550728CA
0A2D2E96B728CA
038B45AA4728CA
01E1F9006728CA
007D1BFFD728CA
000B90100728CA
0001BEAAF728CA
000005AA400000
ENDCHAR
STARTCHAR guillemotleft
ENCODING 171
SWIDTH 911 0
DWIDTH 33 0
BBX 31 18 1 4
BITMAP
0000006400000064
00001BE000001BE0
0001B9000001B900
006F81B4006F91B4
06E41F9006E41F90
7E06F8147E46F814
507E42F4507E42F4
1BD06E401BE06F40
B90BE400B90BE400
41B9180041B91900
2F941B902F941B90
B81F91B4B81F90B4
6F41BD006F81BD00
01F90BE001B907E0
001BE064001BE064
00007E4000006E40
000006F4000006F4
0000001400000014
ENDCHAR
STARTCHAR logicalnot
ENCODING 172
SWIDTH 718 0
DWIDTH 26 0
BBX 24 12 1 7
BITMAP
7FFFFFFFF58D
15555555768D
55555555768D
6AAAAAAAB68D
00000000368D
7FFFFFFFF68D
15555555768D
00000000368D
00000000368D
00000000368D
00000000368D
000000001144
ENDCHAR
STARTCHAR registered
ENCODING 174
SWIDTH 869 0
DWIDTH 31 0
BBX 30 30 1 1
BITMAP
0000005540000000
00001BFFFE000000
0001FF95AFE00000
000BE00001FD0000
007E0000001F8000
01F800000007D000
03D000000001F400
0B802AAAA4007C00
1F003FFFFE002E00
2D003C005F800F00
3C003C0003D00B40
78003C0002D00780
B4003C0002E003C0
B4003C0003D003C0
F0003C001F8002D0
F0003FFFFE0002D0
B4003EABF40003C0
B4003C01F00003C0
78003C00B8000780
7C003C007C000B80
3D003C002E000F40
1E003C001F001E00
0F403C000B403D00
07D014000540B800
01F400000002E000
00BD0000000B8000
001F900000BE0000
0006FA405BF40000
00006FFFFF400000
000001AA94000000
ENDCHAR
STARTCHAR degree
ENCODING 176
SWIDTH 330 0
DWIDTH 12 0
BBX 10 10 1 28
BITMAP
005000
0BAE00
285280
63A8D0
990A60
9D0660
9A0A60
62F8D0
280280
07FD00
ENDCHAR
STARTCHAR plusminus
ENCODING 177
SWIDTH 598 0
DWIDTH 22 0
BBX 20 22 1 1
BITMAP
0018962400
0018D73400
0018D73400
0018D73400
0018D73400
AAB8D73EA9
6AA8D73AA8
1568D73954
BFF8D73FFD
0028D73400
6AA8D73AA9
6AA8D73AA8
0018D73400
0018D73400
0018D73400
0018D73400
0018962400
0000000000
2FFFFFFFF4
0555555550
1AAAAAAAA4
1AAAAAAAA4
ENDCHAR
STARTCHAR uni00B2
ENCODING 178
SWIDTH 435 0
DWIDTH 16 0
BBX 14 23 1 6
BITMAP
1AFFE800
79555B40
016A52D0
2FEAB8E0
14001CA0
00001CA0
000039D0
0000B280
0001D700
00035D00
000A3800
002CB000
0075D000
00E74000
028E0000
072C0000
1D740000
38D00000
51400000
FFFFFF80
00000000
AAAAAA40
AAAAAA40
ENDCHAR
STARTCHAR uni00B3
ENCODING 179
SWIDTH 515 0
DWIDTH 19 0
BBX 17 25 1 4
BITMAP
6BFFE40000
E9556E4000
055942D000
7FAAF87400
10001E2800
1BFF935C00
2955B28D00
000035C900
000025CD00
00AAA54D00
00AAAF8800
000001F000
00FFF92C00
00005B8A00
00AA91D700
00AABCA340
00000D7280
04001D7240
1FFFF8A340
005542C700
3A956F4D00
16AFE47800
540006E000
7FFFFE4000
0155500000
ENDCHAR
STARTCHAR acute
ENCODING 180
SWIDTH 472 0
DWIDTH 17 0
BBX 15 9 1 25
BITMAP
00000780
00007E00
0007E0B8
007D0BD0
07D0BD00
7D0B9000
10B90000
07900000
01000000
ENDCHAR
STARTCHAR uni00B5
ENCODING 181
SWIDTH 802 0
DWIDTH 29 0
BBX 27 30 1 -4
BITMAP
11045000044110
725CA00018D734
725CA00018D734
725CA00018D734
725CA00018D734
725CA00018D734
725CA00018D734
725CA00018D734
725CA00018D734
725CA00018D734
725CA00018D734
725CA00018D734
725CA00018D734
725CA00018D734
725CA00018D734
725CA00028D734
725CA00035CA34
725CA000B28D70
725CAAAB875CA0
725CA6A91E38D0
725CA501B4B1C0
725CABFF92D740
725CA0501E0E00
725CAAAAF87800
725CA6AA42E000
725CA4006E4000
725CABFFE40000
725CA054000000
725CA000000000
62589000000000
ENDCHAR
STARTCHAR paragraph
ENCODING 182
SWIDTH 676 0
DWIDTH 24 0
BBX 22 30 1 -4
BITMAP
000015555550
000BFFFFFFE0
0079000000A0
02D1AAAAA8A0
0B4BA5556CA0
1D7905550CA0
38E1FFFF8CA0
72CB40028CA0
A35D2AA28CA0
A728EAB28CA0
9729C0728CA0
A728E5B28CA0
A35C6AF28CA0
728B40728CA0
34D2FFF28CA0
2D7815728CA0
0F1F95728CA0
03D1AFF28CA0
00B900728CA0
001BFFF28CA0
000055B28CA0
000000728CA0
000000728CA0
000000728CA0
000000728CA0
000000728CA0
000000728CA0
000000728CA0
0000007A8EA0
0000002A4AA0
ENDCHAR
STARTCHAR periodcentered
ENCODING 183
SWIDTH 260 0
DWIDTH 9 0
BBX 7 7 1 14
BITMAP
1554
7FFC
0000
6AA8
6AA4
1550
7FFC
ENDCHAR
STARTCHAR cedilla
ENCODING 184
SWIDTH 321 0
DWIDTH 12 0
BBX 9 12 1 -14
BITMAP
003580
06B580
1E5180
381680
71FA80
728000
724000
72D540
34BF80
2D0000
0BEA80
005A40
ENDCHAR
STARTCHAR uni00B9
ENCODING 185
SWIDTH 359 0
DWIDTH 13 0
BBX 11 20 1 9
BITMAP
FFFFF4
000000
AAAAA4
AAEBB4
00D634
00D634
00D634
00D634
00D634
00D634
00D634
00D634
00D634
00D634
00D634
00D634
00D634
00D634
00D634
00D634
ENDCHAR
STARTCHAR ordmasculine
ENCODING 186
SWIDTH 835 0
DWIDTH 30 0
BBX 28 29 1 -2
BITMAP
00000169400000
00006FEBF90000
0006E4001BD000
002E06FF90B800
00B4BE55BE1E00
02C7D05506D380
075E1BEBE4B4E0
0D3879002E2D70
2CA2D1BE478A28
35D74B96F5D35C
728E38002C728D
A35CB0000A35CA
A328D0000728D7
9729C000035CD7
D725C000035CD7
A728C000035CD7
A368D0000728D6
725D74000E35CA
71CA2D0078B28D
38D38BEAE1D71C
1C71E0694B4E34
0A2C7E417D28B0
074B46FFD0F1D0
01D2E4141B8740
00786FAAF91E00
001F41AA41B400
0002F9006F8000
00001BFFE80000
00000055000000
ENDCHAR
STARTCHAR guillemotright
ENCODING 187
SWIDTH 912 0
DWIDTH 33 0
BBX 31 18 1 4
BITMAP
6400000064000000
6F8000002F800000
01F9000001B90000
B91BE000791BE000
1B906E401B906E40
51BE46F450BE46F4
7D06E4147D06E414
07E42F9007E42F90
006F41B4006F81B4
0191F9040191F904
1F905BE01B905BE0
B81BD0B4781BD0B4
02F91BE001F90BE0
6E41B9006F41B900
646F9000646F9000
06E4000006E40000
7E0000007E400000
5000000050000000
ENDCHAR
STARTCHAR onequarter
ENCODING 188
SWIDTH 1236 0
DWIDTH 45 0
BBX 43 33 1 -4
BITMAP
FFFFF400035CA000000000
000000000358D000000000
AAAAA0000728D000000000
AAEFB4000A35C000000000
00CA34000D728000000000
00CA34000D634000411400
00CA34001CA34002CA3800
00CA340028D700035D7000
00CA340035CA000B28A000
00CA3400368D000D35D000
00CA3400728D001CA28000
00CA3400A35C0038D74000
00CA3400D7280072CA0000
00CA3400DA3400E34D0000
00CA3401CA3401C72C2140
00CA34028D70038D343680
00CA34035CA0075CB03680
00CA340368D00A38D03680
00CA340728D00555501540
00CA340A35C00FFFFFFFF8
0000000D72800000000000
0000000DA3400AAAAAAAA4
0000001CA3400AAAAAAAA4
00000028D7000000000000
00000035CA000FFFFFFFF8
000000368D000555555550
000000728D000000003680
000000A35C000000003680
000000D728000000003680
000000DA34000000000000
000001CA30000000000000
0000028D70000000000000
0000014450000000000000
ENDCHAR
STARTCHAR onehalf
ENCODING 189
SWIDTH 1154 0
DWIDTH 42 0
BBX 40 33 1 -4
BITMAP
FFFFF400035CA0000000
000000000358D0000000
AAAAA0000728D0000000
AAEFB4000A35C0000000
00CA34000D7280000000
00CA34000D6340000000
00CA34001CA3406AA940
00CA340028D707EA5AE0
00CA340035CA00015078
00CA3400368D02FFFF5D
00CA3400728D0250028E
00CA3400A35C000001CE
00CA3400D7280000039D
00CA3400DA3400000B28
00CA3401CA3400001D70
00CA34028D70000038D0
00CA34035CA00000A280
00CA340368D00001CB00
00CA340728D000075D00
00CA340A35C0000E3800
0000000D72800028A000
0000000DA3400072C000
0000001CA34001D74000
00000028D700038E0000
00000035CA0005140000
000000368D000AAAAAA4
000000728D0005555554
000000A35C0005555550
000000D728000FFFFFF4
000000DA340000000000
000001CA300000000000
0000028D700000000000
00000144500000000000
ENDCHAR
STARTCHAR threequarters
ENCODING 190
SWIDTH 1345 0
DWIDTH 48 0
BBX 47 33 1 -4
BITMAP
6BFFE4000000D72800000000
E9556E400000DA3400000000
056942D00001CA3400000000
7FAAF4B000028D7000000000
50001E2800035CA000000000
1BFF875C000368D000451400
2955B28D000728D0028A3400
000035CD000A35C0035C7000
0000258D000D72800B28E000
00AAA54D000DA3400D75C000
00AAAF58001CA3402CA28000
000001E00028D70034D74000
01FFF9280035CA00B28A0000
00005B4A00368D00D35D0000
00AA91D700728C01CB282140
00AABCA340A35C038D343280
00000D7340D728072CB03280
04001D7340DA340E34D03280
2FFFF8A341CA300555505540
005542C7028D701FFFFFFFF8
3A956F5D035CA00000000000
1AAFA4780368D00AAAAAAAA4
540006E00728C00AAAAAAAA4
7FFFFE400A35C00000000000
015550000D72801FFFFFFFF8
000000000CA3400555555550
000000001CA3000000003280
0000000028D7000000003280
0000000035CA000000003280
00000000328D000000000000
00000000728C000000000000
00000000A35C000000000000
000000005114000000000000
ENDCHAR
STARTCHAR questiondown
ENCODING 191
SWIDTH 693 0
DWIDTH 25 0
BBX 23 31 1 0
BITMAP
000055400000
006FFFFA0000
07E50016E000
2D06AAA46D00
E0BEA5AF4740
07905502E1C0
091BFFF838A0
00B9001B4D34
0041AA92C728
000EA6B8A368
0000000D635C
0000000D635C
0104456CA358
0368DBA1D728
0368D0078A34
0368DFFD2CB0
0368D550B5D0
0368D56B8380
0368DAA41E00
0368D005F400
0368DFFE8000
0368D5400000
0368D0000000
011440000000
055550000000
0BFFF0000000
000000000000
0AAAA0000000
055550000000
055550000000
0BFFF0000000
ENDCHAR
STARTCHAR Agrave
ENCODING 192
SWIDTH 936 0
DWIDTH 34 0
BBX 33 41 0 0
BITMAP
0001D0000000000000
00007D000000000000
002E07D00000000000
0007E07D0000000000
00006E07D000000000
000006E47D00000000
0000006E4400000000
00000006D000000000
000000004000000000
000000000000000000
000000000000000000
000000000000000000
000000E35C70000000
000002F28A34000000
00000374D728000000
0000071CA35C000000
00000A0D728D000000
00000D5A35CB000000
00002CA728E3400000
000035C35D72800000
00007285CA35C00000
0000A35CD728D00000
0000D728A35CA00000
0002CA34728D340000
00035D7235C7280000
000728E36CA35C0000
000A35CA0D728D0000
000D728D0A35CA0000
001CA35C0728D74000
0034D728035C728000
00728A34028E35C000
00A35CB6A9D728D000
00D728D555A35CA000
01CA35D555728D7400
038D72AFFF75CB2800
0728A3400028E35C00
0A35D76AAA9D728D00
0D728D6AAA9A35CA00
1CA35C00000728D700
28D7280000035CA280
71CA340000028D35C0
ENDCHAR
STARTCHAR Aacute
ENCODING 193
SWIDTH 936 0
DWIDTH 34 0
BBX 33 41 0 0
BITMAP
000000000000B40000
00000000000BD00000
0000000000B91B4000
000000000B91B90000
00000000B91B900000
0000000B91B8000000
000000051B80000000
00000000B800000000
000000000000000000
000000000000000000
000000000000000000
000000000000000000
000000E35C70000000
000002F28A34000000
00000374D728000000
0000071CA35C000000
00000A0D728D000000
00000D5A35CB000000
00002CA728E3400000
000035C35D72800000
00007285CA35C00000
0000A35CD728D00000
0000D728A35CA00000
0002CA34728D340000
00035D7235C7280000
000728E36CA35C0000
000A35CA0D728D0000
000D728D0A35CA0000
001CA35C0728D74000
0034D728035C728000
00728A34028E35C000
00A35CB6A9D728D000
00D728D555A35CA000
01CA35D555728D7400
038D72AFFF75CB2800
0728A3400028E35C00
0A35D76AAA9D728D00
0D728D6AAA9A35CA00
1CA35C00000728D700
28D7280000035CA280
71CA340000028D35C0
ENDCHAR
STARTCHAR Acircumflex
ENCODING 194
SWIDTH 936 0
DWIDTH 34 0
BBX 33 41 0 0
BITMAP
000000065800000000
0000000B8D00000000
0000000ECA00000000
0000001CD740000000
00000034B280000000
0000007135C0000000
000000A368D0000000
000000D71CA0000000
0000018A0970000000
000000000000000000
000000000000000000
000000000000000000
000000E35C70000000
000002F28A34000000
00000374D728000000
0000071CA35C000000
00000A0D728D000000
00000D5A35CB000000
00002CA728E3400000
000035C35D72800000
00007285CA35C00000
0000A35CD728D00000
0000D728A35CA00000
0002CA34728D340000
00035D7235C7280000
000728E36CA35C0000
000A35CA0D728D0000
000D728D0A35CA0000
001CA35C0728D74000
0034D728035C728000
00728A34028E35C000
00A35CB6A9D728D000
00D728D555A35CA000
01CA35D555728D7400
038D72AFFF75CB2800
0728A3400028E35C00
0A35D76AAA9D728D00
0D728D6AAA9A35CA00
1CA35C00000728D700
28D7280000035CA280
71CA340000028D35C0
ENDCHAR
STARTCHAR Atilde
ENCODING 195
SWIDTH 936 0
DWIDTH 34 0
BBX 33 39 0 0
BITMAP
000016AAAA80850000
0000BAAAAA91CA0000
0003800000068D0000
00070BFFFFFE1C0000
000A39555550280000
0009706AAAAAE00000
0009606AAAAA400000
000000000000000000
000000000000000000
000000000000000000
000000E35C70000000
000002F28A34000000
00000374D728000000
0000071CA35C000000
00000A0D728D000000
00000D5A35CB000000
00002CA728E3400000
000035C35D72800000
00007285CA35C00000
0000A35CD728D00000
0000D728A35CA00000
0002CA34728D340000
00035D7235C7280000
000728E36CA35C0000
000A35CA0D728D0000
000D728D0A35CA0000
001CA35C0728D74000
0034D728035C728000
00728A34028E35C000
00A35CB6A9D728D000
00D728D555A35CA000
01CA35D555728D7400
038D72AFFF75CB2800
0728A3400028E35C00
0A35D76AAA9D728D00
0D728D6AAA9A35CA00
1CA35C00000728D700
28D7280000035CA280
71CA340000028D35C0
ENDCHAR
STARTCHAR Adieresis
ENCODING 196
SWIDTH 936 0
DWIDTH 34 0
BBX 33 37 0 0
BITMAP
000052140154500000
0000A728035CD00000
0000A728035CD00000
0000A728035CD00000
000051140104500000
000000000000000000
000000000000000000
000000000000000000
000000E35C70000000
000002F28A34000000
00000374D728000000
0000071CA35C000000
00000A0D728D000000
00000D5A35CB000000
00002CA728E3400000
000035C35D72800000
00007285CA35C00000
0000A35CD728D00000
0000D728A35CA00000
0002CA34728D340000
00035D7235C7280000
000728E36CA35C0000
000A35CA0D728D0000
000D728D0A35CA0000
001CA35C0728D74000
0034D728035C728000
00728A34028E35C000
00A35CB6A9D728D000
00D728D555A35CA000
01CA35D555728D7400
038D72AFFF75CB2800
0728A3400028E35C00
0A35D76AAA9D728D00
0D728D6AAA9A35CA00
1CA35C00000728D700
28D7280000035CA280
71CA340000028D35C0
ENDCHAR
STARTCHAR Aring
ENCODING 197
SWIDTH 936 0
DWIDTH 34 0
BBX 33 40 0 0
BITMAP
000000005000000000
0000000BAD00000000
000000285280000000
00000067A8D0000000
0000009909A0000000
000000CC0660000000
0000009909A0000000
00000062B8C0000000
000000280740000000
0000000BFD00000000
000000000000000000
000000E35C70000000
000002F28A34000000
00000374D728000000
0000071CA35C000000
00000A0D728D000000
00000D5A35CB000000
00002CA728E3400000
000035C35D72800000
00007285CA35C00000
0000A35CD728D00000
0000D728A35CA00000
0002CA34728D340000
00035D7235C7280000
000728E36CA35C0000
000A35CA0D728D0000
000D728D0A35CA0000
001CA35C0728D74000
0034D728035C728000
00728A34028E35C000
00A35CB6A9D728D000
00D728D555A35CA000
01CA35D555728D7400
038D72AFFF75CB2800
0728A3400028E35C00
0A35D76AAA9D728D00
0D728D6AAA9A35CA00
1CA35C00000728D700
28D7280000035CA280
71CA340000028D35C0
ENDCHAR
STARTCHAR AE
ENCODING 198
SWIDTH 1198 0
DWIDTH 43 0
BBX 42 29 0 0
BITMAP
000000E35C7FFFFFFFFFE0
000002F28A340000000000
00000378D72AAAAAAAAA90
0000071CA35EAAAAAAAAA0
00000A0D728D0000000000
00000D5A35C7FFFFFFFFE0
00002CA728A35555555550
000035C34D728000000000
00007285CA35C000000000
0000A35CD728D000000000
0000D728A35CB000000000
0001CA34728E3AAAAAA900
00034D7235D72EAAAAA900
000728E36CA35D55555400
000A35CB0D728FFFFFFE00
000D728D0A35CA00000000
001CA35C0728D7AAAAA900
0038D728035C73AAAAA900
00728A3402CA3580000000
00A35C76A9D728D0000000
00D728D555A35CA0000000
01CA35D555728D70000000
038D72AFFF75C739555550
072CA3400028E36FFFFFE0
0A35D76AAA9D728D000000
0D728E6AAA9A35CBAAAAA0
1CA35C00000728D7955550
28D7280000035CA3955550
71CA340000028E36FFFFE0
ENDCHAR
STARTCHAR Ccedilla
ENCODING 199
SWIDTH 852 0
DWIDTH 31 0
BBX 29 44 1 -13
BITMAP
0000001550000000
000006FFFF900000
00007E4001BD0000
0007D06AA90B8000
001E1BE96BE0B400
00B4B905407D2D00
01D3D1BFFE478B00
074E1F9006E1E280
0A28781AA47C7400
1CB1D2FAAF4B1400
28D74B4002D24000
72CA2C0000740000
639D700000100000
A368E00000000000
D728C00000000000
D735C00000000000
D635C00000000000
D735C00000000000
D728C00000000000
A368A00000000000
738D740000100000
75CA2C0000740000
28D38B4006D34000
1C71E1FAAE0A1400
0A2C781A90787400
074E1B9016E1E280
01D2D1BFFE0B4B00
0074B901007D2D00
001E0BEAAFD1F000
0007D06AA51B8000
00007E5005B90000
000006FFFE900000
0000000DB0000000
000001ADA0000000
00000794A0000000
00000D15A0000000
00001C7EA0000000
00001CE000000000
000018D000000000
00001CA550000000
00001C2FE0000000
00000A4000000000
000002FAA0000000
0000005690000000
ENDCHAR
STARTCHAR Egrave
ENCODING 200
SWIDTH 706 0
DWIDTH 25 0
BBX 23 41 1 0
BITMAP
0B4000000000
02F400000000
B82F40000000
1F81F4000000
01F81F400000
001B81F40000
0001B8100000
00001B400000
000001000000
000000000000
000000000000
000000000000
725CBFFFFFFC
725CA0000000
725CAAAAAAA8
725CBAAAAAA8
725CA0000000
725CBFFFFFFC
725CA5555554
725CA0000000
725CA0000000
725CA0000000
725CA0000000
725CBAAA4000
725CAAAA4000
725CA5550000
725CBFFF4000
725CA0000000
725CAAAA4000
725CAAAA4000
725CA0000000
725CA0000000
725CA0000000
725CA0000000
725CA5555554
725CBFFFFFFC
725CA0000000
725CBAAAAAA8
725CA5555554
725CA5555554
725CBFFFFFFC
ENDCHAR
STARTCHAR Eacute
ENCODING 201
SWIDTH 706 0
DWIDTH 25 0
BBX 24 41 1 0
BITMAP
0000000002D0
000000002E40
00000002E46D
0000006E46E4
000006E46E00
00002E46E000
0000147E0000
000002E00000
000000000000
000000000000
000000000000
000000000000
725CBFFFFFFC
725CA0000000
725CAAAAAAA8
725CBAAAAAA8
725CA0000000
725CBFFFFFFC
725CA5555554
725CA0000000
725CA0000000
725CA0000000
725CA0000000
725CBAAA4000
725CAAAA4000
725CA5550000
725CBFFF4000
725CA0000000
725CAAAA4000
725CAAAA4000
725CA0000000
725CA0000000
725CA0000000
725CA0000000
725CA5555554
725CBFFFFFFC
725CA0000000
725CBAAAAAA8
725CA5555554
725CA5555554
725CBFFFFFFC
ENDCHAR
STARTCHAR Ecircumflex
ENCODING 202
SWIDTH 706 0
DWIDTH 25 0
BBX 23 41 1 0
BITMAP
000019600000
00002E340000
00003B280000
0000A35C0000
0000D28E0000
0001C5D70000
00028DA34000
00035C728000
00062825C000
000000000000
000000000000
000000000000
725CBFFFFFFC
725CA0000000
725CAAAAAAA8
725CBAAAAAA8
725CA0000000
725CBFFFFFFC
725CA5555554
725CA0000000
725CA0000000
725CA0000000
725CA0000000
725CBAAA4000
725CAAAA4000
725CA5550000
725CBFFF4000
725CA0000000
725CAAAA4000
725CAAAA4000
725CA0000000
725CA0000000
725CA0000000
725CA0000000
725CA5555554
725CBFFFFFFC
725CA0000000
725CBAAAAAA8
725CA5555554
725CA5555554
725CBFFFFFFC
ENDCHAR
STARTCHAR Edieresis
ENCODING 203
SWIDTH 706 0
DWIDTH 25 0
BBX 23 37 1 0
BITMAP
014850085140
025CA00D6340
025CA00D6340
025CA00D6340
014450045100
000000000000
000000000000
000000000000
725CBFFFFFFC
725CA0000000
725CAAAAAAA8
725CBAAAAAA8
725CA0000000
725CBFFFFFFC
725CA5555554
725CA0000000
725CA0000000
725CA0000000
725CA0000000
725CBAAA4000
725CAAAA4000
725CA5550000
725CBFFF4000
725CA0000000
725CAAAA4000
725CAAAA4000
725CA0000000
725CA0000000
725CA0000000
725CA0000000
725CA5555554
725CBFFFFFFC
725CA0000000
725CBAAAAAA8
725CA5555554
725CA5555554
725CBFFFFFFC
ENDCHAR
STARTCHAR Igrave
ENCODING 204
SWIDTH 338 0
DWIDTH 12 0
BBX 17 41 -6 0
BITMAP
0780000000
01F8000000
791F800000
1B91F80000
01B91B8000
001B91B800
0001B91400
00000B8000
0000000000
0000000000
0000000000
0000000000
0001C97280
0001C97280
0001C97280
0001C97280
0001C97280
0001C97280
0001C97280
0001C97280
0001C97280
0001C97280
0001C97280
0001C97280
0001C97280
0001C97280
0001C97280
0001C97280
0001C97280
0001C97280
0001C97280
0001C97280
0001C97280
0001C97280
0001C97280
0001C97280
0001C97280
0001C97280
0001C97280
0001C97280
0001C97280
ENDCHAR
STARTCHAR Iacute
ENCODING 205
SWIDTH 338 0
DWIDTH 12 0
BBX 17 41 1 0
BITMAP
0000007400
000007D000
0000BD0B40
000BD1B900
00BD1B9000
07D1B90000
011B900000
00B9000000
0010000000
0000000000
0000000000
0000000000
725CA00000
725CA00000
725CA00000
725CA00000
725CA00000
725CA00000
725CA00000
725CA00000
725CA00000
725CA00000
725CA00000
725CA00000
725CA00000
725CA00000
725CA00000
725CA00000
725CA00000
725CA00000
725CA00000
725CA00000
725CA00000
725CA00000
725CA00000
725CA00000
725CA00000
725CA00000
725CA00000
725CA00000
725CA00000
ENDCHAR
STARTCHAR Icircumflex
ENCODING 206
SWIDTH 338 0
DWIDTH 12 0
BBX 11 41 1 0
BITMAP
024900
07CA00
0ED700
1CA340
287280
3535D0
726CA0
A34D70
C60A34
000000
000000
000000
725CA0
725CA0
725CA0
725CA0
725CA0
725CA0
725CA0
725CA0
725CA0
725CA0
725CA0
725CA0
725CA0
725CA0
725CA0
725CA0
725CA0
725CA0
725CA0
725CA0
725CA0
725CA0
725CA0
725CA0
725CA0
725CA0
725CA0
725CA0
725CA0
ENDCHAR
STARTCHAR Idieresis
ENCODING 207
SWIDTH 338 0
DWIDTH 12 0
BBX 18 37 -3 0
BITMAP
5214014850
A358029CA0
A358029CA0
A358029CA0
5114014450
0000000000
0000000000
0000000000
00725CA000
00725CA000
00725CA000
00725CA000
00725CA000
00725CA000
00725CA000
00725CA000
00725CA000
00725CA000
00725CA000
00725CA000
00725CA000
00725CA000
00725CA000
00725CA000
00725CA000
00725CA000
00725CA000
00725CA000
00725CA000
00725CA000
00725CA000
00725CA000
00725CA000
00725CA000
00725CA000
00725CA000
00725CA000
ENDCHAR
STARTCHAR Eth
ENCODING 208
SWIDTH 905 0
DWIDTH 33 0
BBX 31 29 1 0
BITMAP
2FFFFFFFFF900000
2800000005BD0000
28AAAAAAA50B8000
29EAAAAAABE1E000
29C00000007D3800
29CBFFFFFE4B4E00
29CA555556E1D740
29CA2AAA9478B280
29CA3AAAAF5D35D0
29CA300002C72CA0
1485200000A34DB0
AAAAAA8000728D70
AAAAAA800035CA34
555555400029CA34
FFFFFFD00028DA34
000000000029CA34
AAAAAA800035CA34
AAAAAA8000728D70
2489200000E35DB0
29CA300002CB28A0
29CA3FFFFE1D35C0
29CA15555478A280
29CA555556D2C740
29CBFFFFFE4B4D00
29C00000007D3800
29EAAAAAAFD1E000
28555555550B8000
2955555555B90000
2FFFFFFFFE900000
ENDCHAR
STARTCHAR Ntilde
ENCODING 209
SWIDTH 877 0
DWIDTH 32 0
BBX 29 39 1 0
BITMAP
00016AAAA8185000
001FAAAAA81C9000
003800000078D000
0071BFFFFFE1C000
00A3955555038000
00D706AAAAAE0000
009606AAAAA40000
0000000000000000
0000000000000000
0000000000000000
78D34D0000D735C0
7C71C70000D735C0
7A28A28000D735C0
735D75D000D735C0
72CB2CB000D735C0
70E38E3400D735C0
7275C75C00D735C0
7268A28A00D735C0
724D34D740D735C0
72471CB2C0D735C0
72568E38E0D735C0
7259D75D74D735C0
725CB28A28D735C0
725C34D34D9735C0
725C5C71C71735C0
725C9A28A38735C0
725CA75D75D735C0
725CA2CB2CA635C0
725CA0E38E3535C0
725CA075C71C35C0
725CA028A28A35C0
725CA00D35D765C0
725CA0071CB2D5C0
725CA0028E38E1C0
725CA001D75D71C0
725CA000A28A29C0
725CA00034D34EC0
725CA0001C71CBC0
725CA0000A28E3C0
ENDCHAR
STARTCHAR Ograve
ENCODING 210
SWIDTH 933 0
DWIDTH 34 0
BBX 32 43 1 -2
BITMAP
000B400000000000
0002F40000000000
00B81F4000000000
001F81F400000000
0001B81F40000000
00001B81F4000000
000001B910000000
0000001B40000000
0000000100000000
0000000000000000
0000001550000000
000006FFFF900000
00007E4001B90000
0007D06AA90B8000
001E1BE96BE0B400
00B4B905407D2D00
01D3D1BFFE478B00
074E1F9006E1E280
0A28781AA47C74D0
1CB1D2FAAF4B1C70
28D74B4002D38A34
72CA2C000075D728
639D7000001CA35C
A368E000000D728D
D728C000000A35C9
D735C000000729CA
D635C000000729CA
D735C000000725CA
D728C000000A35C9
A368A000000D728D
738D7400002CA35C
75CA2C000075D728
28D38B4002D38E34
1C71E1FAAE4B1CB0
0A2C781A947874D0
074E1B9016E1E280
01D2D1BFFE0B4B00
0074B90101BD2C00
001E0BEAAFD1E000
0007D06AA51B8000
00007E5005B90000
000006FFFE900000
0000000540000000
ENDCHAR
STARTCHAR Oacute
ENCODING 211
SWIDTH 933 0
DWIDTH 34 0
BBX 32 43 1 -2
BITMAP
000000000002D000
00000000002E4000
0000000002E46D00
000000006E46E400
00000006E46E0000
0000002E46E00000
000000147E000000
00000002E0000000
0000000000000000
0000000000000000
0000001550000000
000006FFFF900000
00007E4001B90000
0007D06AA90B8000
001E1BE96BE0B400
00B4B905407D2D00
01D3D1BFFE478B00
074E1F9006E1E280
0A28781AA47C74D0
1CB1D2FAAF4B1C70
28D74B4002D38A34
72CA2C000075D728
639D7000001CA35C
A368E000000D728D
D728C000000A35C9
D735C000000729CA
D635C000000729CA
D735C000000725CA
D728C000000A35C9
A368A000000D728D
738D7400002CA35C
75CA2C000075D728
28D38B4002D38E34
1C71E1FAAE4B1CB0
0A2C781A947874D0
074E1B9016E1E280
01D2D1BFFE0B4B00
0074B90101BD2C00
001E0BEAAFD1E000
0007D06AA51B8000
00007E5005B90000
000006FFFE900000
0000000540000000
ENDCHAR
STARTCHAR Ocircumflex
ENCODING 212
SWIDTH 933 0
DWIDTH 34 0
BBX 32 43 1 -2
BITMAP
0000001960000000
0000002E34000000
0000003B28000000
000000A35C000000
000000D28E000000
000001C5D7000000
0000028DA3400000
0000035C72800000
0000062825C00000
0000000000000000
0000001550000000
000006FFFF900000
00007E4001B90000
0007D06AA90B8000
001E1BE96BE0B400
00B4B905407D2D00
01D3D1BFFE478B00
074E1F9006E1E280
0A28781AA47C74D0
1CB1D2FAAF4B1C70
28D74B4002D38A34
72CA2C000075D728
639D7000001CA35C
A368E000000D728D
D728C000000A35C9
D735C000000729CA
D635C000000729CA
D735C000000725CA
D728C000000A35C9
A368A000000D728D
738D7400002CA35C
75CA2C000075D728
28D38B4002D38E34
1C71E1FAAE4B1CB0
0A2C781A947874D0
074E1B9016E1E280
01D2D1BFFE0B4B00
0074B90101BD2C00
001E0BEAAFD1E000
0007D06AA51B8000
00007E5005B90000
000006FFFE900000
0000000540000000
ENDCHAR
STARTCHAR Otilde
ENCODING 213
SWIDTH 933 0
DWIDTH 34 0
BBX 32 41 1 -2
BITMAP
00005AAAAA021400
0007EAAAAA072400
000E0000001E3400
001C6FFFFFF87000
0028E5555540E000
0035C1AAAAAB8000
002581AAAAA90000
0000000000000000
0000001550000000
000006FFFF900000
00007E4001B90000
0007D06AA90B8000
001E1BE96BE0B400
00B4B905407D2D00
01D3D1BFFE478B00
074E1F9006E1E280
0A28781AA47C74D0
1CB1D2FAAF4B1C70
28D74B4002D38A34
72CA2C000075D728
639D7000001CA35C
A368E000000D728D
D728C000000A35C9
D735C000000729CA
D635C000000729CA
D735C000000725CA
D728C000000A35C9
A368A000000D728D
738D7400002CA35C
75CA2C000075D728
28D38B4002D38E34
1C71E1FAAE4B1CB0
0A2C781A947874D0
074E1B9016E1E280
01D2D1BFFE0B4B00
0074B90101BD2C00
001E0BEAAFD1E000
0007D06AA51B8000
00007E5005B90000
000006FFFE900000
0000000540000000
ENDCHAR
STARTCHAR Odieresis
ENCODING 214
SWIDTH 933 0
DWIDTH 34 0
BBX 32 39 1 -2
BITMAP
0001485008514000
00025CA00D634000
00025CA00D634000
00025CA00D634000
0001445004510000
0000000000000000
0000001550000000
000006FFFF900000
00007E4001B90000
0007D06AA90B8000
001E1BE96BE0B400
00B4B905407D2D00
01D3D1BFFE478B00
074E1F9006E1E280
0A28781AA47C74D0
1CB1D2FAAF4B1C70
28D74B4002D38A34
72CA2C000075D728
639D7000001CA35C
A368E000000D728D
D728C000000A35C9
D735C000000729CA
D635C000000729CA
D735C000000725CA
D728C000000A35C9
A368A000000D728D
738D7400002CA35C
75CA2C000075D728
28D38B4002D38E34
1C71E1FAAE4B1CB0
0A2C781A947874D0
074E1B9016E1E280
01D2D1BFFE0B4B00
0074B90101BD2C00
001E0BEAAFD1E000
0007D06AA51B8000
00007E5005B90000
000006FFFE900000
0000000540000000
ENDCHAR
STARTCHAR multiply
ENCODING 215
SWIDTH 790 0
DWIDTH 28 0
BBX 27 26 1 0
BITMAP
41051400410414
A2CB1C02CB1C74
74E38A075D34E0
2C75D74E28A2C0
0E28B2AC71D740
074D3874D38E00
02C71CE28B2C00
00E286C75D7400
0075D74E38A000
002C9A2CB1C000
000E1C75D34000
000734E28B0000
0001B2C71D0000
0001D74D380000
00038E28B50000
000B2C75D70000
001D34E3938000
0038A2CB75D000
00B1D75D2CB000
01D38E294D3800
028B2C72C71D00
071D74D4E28B00
0D38A29D75D380
28B1C74A2CB1D0
75D34E034E38A0
E38A2C01C75D34
ENDCHAR
STARTCHAR Oslash
ENCODING 216
SWIDTH 938 0
DWIDTH 34 0
BBX 32 40 1 -6
BITMAP
00000000000D0000
00000000001CA000
000000000034D600
0000001550628A00
000006FFFF925C00
00007E4001B92800
0007D06AA90B9000
001E1BE96BE0B400
00B4B905407D2D00
01D3D1BFFE478B00
074E1F9006E1E280
0A28781AA47C74D0
1CB1D2FAAE4B1CB0
38D74B4002D38A34
72CA2C000075D728
A35C7000002CA35C
A368D000000D728D
D729C000000A35C9
D735C000000725CA
D635C000000729CA
D735C000000725CA
D728C000000A35C9
A368A000000D728D
639D7400002CA35C
71CA2C000075D728
28D38B4002D38E34
1C71D1FAAE4A2CB0
0A28781A947874D0
074E1B9016E1D380
01D2D1BFFE0B4B00
0074B90101BD2C00
001E0BEAAFD1E000
0017D06AA51B8000
00347E5005B90000
00A246FFFE900000
00D7580540000000
028A340000000000
001C700000000000
0004D00000000000
0000800000000000
ENDCHAR
STARTCHAR Ugrave
ENCODING 217
SWIDTH 905 0
DWIDTH 33 0
BBX 30 43 1 -2
BITMAP
000E000000000000
0006E00000000000
01E46E0000000000
006E46E400000000
0002E46E40000000
00002E46E0000000
000002F450000000
0000002E00000000
0000000000000000
0000000000000000
0000000000000000
0000000000000000
A358D0000035C970
A358D0000035C970
A358D0000035C970
A358D0000035C970
A358D0000035C970
A358D0000035C970
A358D0000035C970
A358D0000035C970
A358D0000035C970
A358D0000035C970
A358D0000035C970
A358D0000035C970
A358D0000035C970
A358D0000035C970
A358D0000035C970
A358D0000035C970
A358D0000035CD70
635CA00000358D70
728D700000B28DA0
35CA380001D75CA0
28D75E40078A38D0
1CA2D2EABD2C72C0
0E38B45A90B5D340
075E1F501B878A00
02C781BFF91E2C00
00B0B80101B4B400
002D1BEAAF82D000
000B906AA42E0000
0001BE4016F40000
00000AFFFE400000
0000000540000000
ENDCHAR
STARTCHAR Uacute
ENCODING 218
SWIDTH 905 0
DWIDTH 33 0
BBX 30 43 1 -2
BITMAP
0000000000078000
00000000007E0000
0000000007E0B800
000000007D0BD000
00000007D0BD0000
0000007D0B900000
00000010B9000000
0000000790000000
0000000100000000
0000000000000000
0000000000000000
0000000000000000
A358D0000035C970
A358D0000035C970
A358D0000035C970
A358D0000035C970
A358D0000035C970
A358D0000035C970
A358D0000035C970
A358D0000035C970
A358D0000035C970
A358D0000035C970
A358D0000035C970
A358D0000035C970
A358D0000035C970
A358D0000035C970
A358D0000035C970
A358D0000035C970
A358D0000035CD70
635CA00000358D70
728D700000B28DA0
35CA380001D75CA0
28D75E40078A38D0
1CA2D2EABD2C72C0
0E38B45A90B5D340
075E1F501B878A00
02C781BFF91E2C00
00B0B80101B4B400
002D1BEAAF82D000
000B906AA42E0000
0001BE4016F40000
00000AFFFE400000
0000000540000000
ENDCHAR
STARTCHAR Ucircumflex
ENCODING 219
SWIDTH 905 0
DWIDTH 33 0
BBX 30 43 1 -2
BITMAP
0000002890000000
0000007CA0000000
000000AD70000000
000000DB28000000
000001C35C000000
000003568D000000
00000729CA000000
00000A34D7000000
00000D70A2400000
0000000000000000
0000000000000000
0000000000000000
A358D0000035C970
A358D0000035C970
A358D0000035C970
A358D0000035C970
A358D0000035C970
A358D0000035C970
A358D0000035C970
A358D0000035C970
A358D0000035C970
A358D0000035C970
A358D0000035C970
A358D0000035C970
A358D0000035C970
A358D0000035C970
A358D0000035C970
A358D0000035C970
A358D0000035CD70
635CA00000358D70
728D700000B28DA0
35CA380001D75CA0
28D75E40078A38D0
1CA2D2EABD2C72C0
0E38B45A90B5D340
075E1F501B878A00
02C781BFF91E2C00
00B0B80101B4B400
002D1BEAAF82D000
000B906AA42E0000
0001BE4016F40000
00000AFFFE400000
0000000540000000
ENDCHAR
STARTCHAR Udieresis
ENCODING 220
SWIDTH 905 0
DWIDTH 33 0
BBX 30 39 1 -2
BITMAP
0005144014850000
000725C028DA0000
000725C028DA0000
000725C028DA0000
0001144014450000
0000000000000000
0000000000000000
0000000000000000
A358D0000035C970
A358D0000035C970
A358D0000035C970
A358D0000035C970
A358D0000035C970
A358D0000035C970
A358D0000035C970
A358D0000035C970
A358D0000035C970
A358D0000035C970
A358D0000035C970
A358D0000035C970
A358D0000035C970
A358D0000035C970
A358D0000035C970
A358D0000035C970
A358D0000035CD70
635CA00000358D70
728D700000B28DA0
35CA380001D75CA0
28D75E40078A38D0
1CA2D2EABD2C72C0
0E38B45A90B5D340
075E1F501B878A00
02C781BFF91E2C00
00B0B80101B4B400
002D1BEAAF82D000
000B906AA42E0000
0001BE4016F40000
00000AFFFE400000
0000000540000000
ENDCHAR
STARTCHAR Yacute
ENCODING 221
SWIDTH 789 0
DWIDTH 28 0
BBX 27 41 1 0
BITMAP
00000000007800
0000000007E000
000000007E0B80
00000007D0BD00
0000007D0B9000
000007D0B90000
0000011B900000
00000079000000
00000010000000
00000000000000
00000000000000
00000000000000
CA3680001C9728
A368D00025CA70
328DA000725CA0
28CA34009729C0
1CA36801CA7280
0A728D029CA300
0728DA0728CA00
025CA34A328D00
01CA728CA36800
009728A8DA3400
00729C368DA000
0035CAA368D000
001C95DA358000
000D728D634000
00063758D70000
00035635CD0000
00018D735C0000
0000ECD7240000
0000B5C9700000
0000728CA00000
0000728CA00000
0000728CA00000
0000728CA00000
0000728CA00000
0000728CA00000
0000728CA00000
0000728CA00000
0000728CA00000
0000728CA00000
ENDCHAR
STARTCHAR Thorn
ENCODING 222
SWIDTH 798 0
DWIDTH 29 0
BBX 27 34 1 -3
BITMAP
11445000000000
725CA000000000
725CA000000000
725CA000000000
725CBFFFE40000
725CA5056E4000
725CAAA942E000
725CBAAAF87800
725CA0001F4E00
725CBFFF92D740
725CA555B8B1C0
725CA6A91E28E0
725CBEABC75D70
725CA000B2CA34
725CA00038D634
725CA0001CD724
725CA0001C9728
725CA00028D724
725CA00035CA34
725CA001E28D70
725CAFFF875CA0
725CA5542D38D0
725CA556F4A2C0
725CAAAA47C740
725CA0006E1D00
725CAFFFE47800
725CA55506D000
725CA555BE0000
725CABFE900000
725CA000000000
725CA000000000
725CA000000000
725CA000000000
51485000000000
ENDCHAR
STARTCHAR germandbls
ENCODING 223
SWIDTH 826 0
DWIDTH 30 0
BBX 28 34 1 -3
BITMAP
00001555500000
0006FFFFFF8000
002E400001B400
01E06BFFE91E00
0387E5556B8780
0E2D055551B5D0
1C74BFFFFD2CB0
34D390000B8E34
728A1AAAA1D728
725C7955ACA35C
635C90000D735C
635CD0000D635C
635CDAAAB8A328
635CD55551C634
635CD5555B5D70
635CDFFFFE1CA0
635CD00006C634
635CDAAAA4B35C
635CD5556E35CD
635CD0000729CA
635CD0000728CA
635CD0000B35CA
635CDBFFFD728D
635CD55551E35C
635CD5555B8A28
635CDFFFF92C74
635CD00001E5E0
635CDAAABF8780
635CD555542E00
635CD55556F400
635CDFFFFA4000
635CD000000000
635CD000000000
52145000000000
ENDCHAR
STARTCHAR agrave
ENCODING 224
SWIDTH 832 0
DWIDTH 30 0
BBX 28 38 1 -1
BITMAP
00A40000000000
002E4000000000
0B42E400000000
02F42E40000000
001F42E4000000
0001F42F400000
00001F81000000
000001F4000000
00000010000000
00000000000000
00000000000000
00001BFF940000
0002F955AE4000
002E415542E000
00B46FABF82D00
02D2E4001F4B40
0B5E06FE91E2C0
0D387E56B878E0
28A2D0551F1D70
35C74BFFD28A28
728D3D00B4D35C
A35CB0001C728C
D728D0000A368D
D635C0000A35CD
D635C0000735C9
D735C0000735C9
D728D0000735C9
A35CA0000735C9
728D39005735C9
35D74BEFD735C9
2CA1E0550735C9
0E286E96E735C9
074B46AA4735C9
01E1F9015735C9
00781BFF9735C9
001B90100735C9
0001BEAAE735C9
000006AA400000
ENDCHAR
STARTCHAR aacute
ENCODING 225
SWIDTH 832 0
DWIDTH 30 0
BBX 28 38 1 -1
BITMAP
00000000006800
0000000006E400
000000006E47C0
00000006E07E00
0000006E07E000
000002E07D0000
00000107D00000
0000003D000000
00000010000000
00000000000000
00000000000000
00001BFF940000
0002F955AE4000
002E415542E000
00B46FABF82D00
02D2E4001F4B40
0B5E06FE91E2C0
0D387E56B878E0
28A2D0551F1D70
35C74BFFD28A28
728D3D00B4D35C
A35CB0001C728C
D728D0000A368D
D635C0000A35CD
D635C0000735C9
D735C0000735C9
D728D0000735C9
A35CA0000735C9
728D39005735C9
35D74BEFD735C9
2CA1E0550735C9
0E286E96E735C9
074B46AA4735C9
01E1F9015735C9
00781BFF9735C9
001B90100735C9
0001BEAAE735C9
000006AA400000
ENDCHAR
STARTCHAR acircumflex
ENCODING 226
SWIDTH 832 0
DWIDTH 30 0
BBX 28 38 1 -1
BITMAP
00000186000000
000003D7000000
000007A3400000
00000A72C00000
00001D28D00000
0000285CA00000
000035CD700000
0000728A340000
0000A247180000
00000000000000
00000000000000
00001BFF940000
0002F955AE4000
002E415542E000
00B46FABF82D00
02D2E4001F4B40
0B5E06FE91E2C0
0D387E56B878E0
28A2D0551F1D70
35C74BFFD28A28
728D3D00B4D35C
A35CB0001C728C
D728D0000A368D
D635C0000A35CD
D635C0000735C9
D735C0000735C9
D728D0000735C9
A35CA0000735C9
728D39005735C9
35D74BEFD735C9
2CA1E0550735C9
0E286E96E735C9
074B46AA4735C9
01E1F9015735C9
00781BFF9735C9
001B90100735C9
0001BEAAE735C9
000006AA400000
ENDCHAR
STARTCHAR atilde
ENCODING 227
SWIDTH 832 0
DWIDTH 30 0
BBX 28 36 1 -1
BITMAP
0006AAAAA05200
007EAAAAA0A340
01D0000001D700
0287FFFFFF8B00
035E5555541D00
03281AAAAAB800
02142AAAAA9000
00000000000000
00000000000000
00001BFF940000
0002F955AE4000
002E415542E000
00B46FABF82D00
02D2E4001F4B40
0B5E06FE91E2C0
0D387E56B878E0
28A2D0551F1D70
35C74BFFD28A28
728D3D00B4D35C
A35CB0001C728C
D728D0000A368D
D635C0000A35CD
D635C0000735C9
D735C0000735C9
D728D0000735C9
A35CA0000735C9
728D39005735C9
35D74BEFD735C9
2CA1E0550735C9
0E286E96E735C9
074B46AA4735C9
01E1F9015735C9
00781BFF9735C9
001B90100735C9
0001BEAAE735C9
000006AA400000
ENDCHAR
STARTCHAR adieresis
ENCODING 228
SWIDTH 832 0
DWIDTH 30 0
BBX 28 34 1 -1
BITMAP
00214800852000
00368D01CA7000
00368D01CA7000
00368D01CA7000
00114400451000
00000000000000
00000000000000
00001BFF940000
0002F955AE4000
002E415542E000
00B46FABF82D00
02D2E4001F4B40
0B5E06FE91E2C0
0D387E56B878E0
28A2D0551F1D70
35C74BFFD28A28
728D3D00B4D35C
A35CB0001C728C
D728D0000A368D
D635C0000A35CD
D635C0000735C9
D735C0000735C9
D728D0000735C9
A35CA0000735C9
728D39005735C9
35D74BEFD735C9
2CA1E0550735C9
0E286E96E735C9
074B46AA4735C9
01E1F9015735C9
00781BFF9735C9
001B90100735C9
0001BEAAE735C9
000006AA400000
ENDCHAR
STARTCHAR aring
ENCODING 229
SWIDTH 832 0
DWIDTH 30 0
BBX 28 40 1 -1
BITMAP
00000014000000
000002EB400000
00000D15D00000
000029EE300000
00003342640000
00003302A40000
00003343640000
000029EE700000
00000E01D00000
000002FE400000
00000000000000
00000000000000
00000000000000
00001BFF940000
0002F955AE4000
002E415542E000
00B46FABF82D00
02D2E4001F4B40
0B5E06FE91E2C0
0D387E56B878E0
28A2D0551F1D70
35C74BFFD28A28
728D3D00B4D35C
A35CB0001C728C
D728D0000A368D
D635C0000A35CD
D635C0000735C9
D735C0000735C9
D728D0000735C9
A35CA0000735C9
728D39005735C9
35D74BEFD735C9
2CA1E0550735C9
0E286E96E735C9
074B46AA4735C9
01E1F9015735C9
00781BFF9735C9
001B90100735C9
0001BEAAE735C9
000006AA400000
ENDCHAR
STARTCHAR ae
ENCODING 230
SWIDTH 1166 0
DWIDTH 42 0
BBX 40 27 1 -1
BITMAP
00001BFFA41045555555
0002F955AF55CBFFFFFE
002E415542E1C9000000
00B46FABF82D8BAAAAA9
02D2E4001F4B4A555555
0B5E06FE91E2CA555554
0D387E56B878EBFFFFFE
28A2D0551F1D7D000000
35C74BFFD28A2D000000
728D3D00B4D35D000000
A35CB0001C728FFFFFF8
D728D0000A368E555554
D635C0000A35CE555554
D635C0000735CBFFFFFC
D735C0000735C9000000
D728D0000735CBAAAAA8
A35CA0000735CA555554
728D39005735C9000000
35D74BEFD735C9000000
2CA1E0550735CA555555
0E286E96E735CBFFFFFE
074B46AA4735C9000000
01E1F9015735CBAAAAA9
00781BFF9735CA555555
001B90100735CA555554
0001BEAAE735CBFFFFFE
000006AA400000000000
ENDCHAR
STARTCHAR ccedilla
ENCODING 231
SWIDTH 736 0
DWIDTH 27 0
BBX 25 40 1 -13
BITMAP
00000169400000
00007FAAF90000
0007E4001BD000
002D06FF90B800
00B0BE55BE1E00
0287915507C740
0B1E1FEBE4B100
0D74B8006D2400
28A2D2BE474000
35C71F56E10000
728D3800280000
A35CA000000000
D728D000000000
D735C000000000
D635C000000000
D735C000000000
D728D000000000
A35CB000100000
728E2D00780000
35D74BABE24000
2CB1D1A90B4000
0D387D41B93400
074E0BFF91E140
02D2E0101B8740
00B46FAAF92D00
001E41AA41F400
0002F9006F8000
00002BFFE40000
000000EB000000
00001AD6000000
00007946000000
0000E05A000000
0001C7EA000000
0001CA00000000
0001C900000000
0001CB55000000
0000D2FE000000
0000B400000000
00002FAA000000
00000169000000
ENDCHAR
STARTCHAR egrave
ENCODING 232
SWIDTH 666 0
DWIDTH 24 0
BBX 23 37 0 0
BITMAP
078000000000
01F800000000
791F80000000
1B91B8000000
01B91B800000
001B91B80000
0000B9140000
00000B800000
000000000000
000000000000
000000000000
044115555554
1C972FFFFFF8
1C9728000000
1C972EAAAAA4
1C9729555554
1C9729555550
1C972FFFFFF8
1C9728000000
1C9728000000
1C9728000000
1C972FFFFFE0
1C9729555550
1C9729555550
1C972FFFFFF0
1C9728000000
1C972EAAAAA0
1C9729555550
1C9728000000
1C9728000000
1C9729555554
1C972FFFFFF8
1C9728000000
1C972EAAAAA4
1C9729555554
1C9729555550
1C972FFFFFF8
ENDCHAR
STARTCHAR eacute
ENCODING 233
SWIDTH 666 0
DWIDTH 24 0
BBX 23 37 1 0
BITMAP
000000000740
000000007D00
00000007D0B4
000000BD0B90
00000BD1B900
00007D1B9000
000011B90000
00000B900000
000001000000
000000000000
000000000000
110455555550
725CBFFFFFE0
725CA0000000
725CBAAAAA90
725CA5555550
725CA5555540
725CBFFFFFE0
725CA0000000
725CA0000000
725CA0000000
725CBFFFFF80
725CA5555540
725CA5555540
725CBFFFFFC0
725CA0000000
725CBAAAAA80
725CA5555540
725CA0000000
725CA0000000
725CA5555550
725CBFFFFFE0
725CA0000000
725CBAAAAA90
725CA5555550
725CA5555540
725CBFFFFFE0
ENDCHAR
STARTCHAR ecircumflex
ENCODING 234
SWIDTH 666 0
DWIDTH 24 0
BBX 22 37 1 0
BITMAP
000024900000
00007CA00000
0000AD700000
0001CA340000
0002872C0000
0003578D0000
000729CA0000
000A34D70000
000D60A24000
000000000000
000000000000
110455555550
725CBFFFFFE0
725CA0000000
725CBAAAAA90
725CA5555550
725CA5555540
725CBFFFFFE0
725CA0000000
725CA0000000
725CA0000000
725CBFFFFF80
725CA5555540
725CA5555540
725CBFFFFFC0
725CA0000000
725CBAAAAA80
725CA5555540
725CA0000000
725CA0000000
725CA5555550
725CBFFFFFE0
725CA0000000
725CBAAAAA90
725CA5555550
725CA5555540
725CBFFFFFE0
ENDCHAR
STARTCHAR edieresis
ENCODING 235
SWIDTH 666 0
DWIDTH 24 0
BBX 22 33 1 0
BITMAP
051540148500
0635C028CA00
0635C028CA00
0635C028CA00
051140144500
000000000000
000000000000
110455555550
725CBFFFFFE0
725CA0000000
725CBAAAAA90
725CA5555550
725CA5555540
725CBFFFFFE0
725CA0000000
725CA0000000
725CA0000000
725CBFFFFF80
725CA5555540
725CA5555540
725CBFFFFFC0
725CA0000000
725CBAAAAA80
725CA5555540
725CA0000000
725CA0000000
725CA5555550
725CBFFFFFE0
725CA0000000
725CBAAAAA90
725CA5555550
725CA5555540
725CBFFFFFE0
ENDCHAR
STARTCHAR igrave
ENCODING 236
SWIDTH 337 0
DWIDTH 12 0
BBX 17 37 -6 0
BITMAP
0780000000
01F8000000
791F800000
1B91F80000
01B91B8000
001B91B800
0001B91400
00000B8000
0000000000
0000000000
0000000000
0000441100
0001C97280
0001C97280
0001C97280
0001C97280
0001C97280
0001C97280
0001C97280
0001C97280
0001C97280
0001C97280
0001C97280
0001C97280
0001C97280
0001C97280
0001C97280
0001C97280
0001C97280
0001C97280
0001C97280
0001C97280
0001C97280
0001C97280
0001C97280
0001C97280
0001C97280
ENDCHAR
STARTCHAR iacute
ENCODING 237
SWIDTH 337 0
DWIDTH 12 0
BBX 17 37 1 0
BITMAP
0000007400
000007D000
0000BD0B40
000BD1B900
00BD1B9000
07D1B90000
011B900000
00B9000000
0010000000
0000000000
0000000000
1104400000
725CA00000
725CA00000
725CA00000
725CA00000
725CA00000
725CA00000
725CA00000
725CA00000
725CA00000
725CA00000
725CA00000
725CA00000
725CA00000
725CA00000
725CA00000
725CA00000
725CA00000
725CA00000
725CA00000
725CA00000
725CA00000
725CA00000
725CA00000
725CA00000
725CA00000
ENDCHAR
STARTCHAR icircumflex
ENCODING 238
SWIDTH 337 0
DWIDTH 12 0
BBX 11 37 1 0
BITMAP
024900
07CA00
0ED700
1CA340
287280
3535D0
726CA0
A34D70
C60A34
000000
000000
110440
725CA0
725CA0
725CA0
725CA0
725CA0
725CA0
725CA0
725CA0
725CA0
725CA0
725CA0
725CA0
725CA0
725CA0
725CA0
725CA0
725CA0
725CA0
725CA0
725CA0
725CA0
725CA0
725CA0
725CA0
725CA0
ENDCHAR
STARTCHAR idieresis
ENCODING 239
SWIDTH 337 0
DWIDTH 12 0
BBX 18 33 -3 0
BITMAP
5214014850
A358029CA0
A358029CA0
A358029CA0
5114014450
0000000000
0000000000
0011044000
00725CA000
00725CA000
00725CA000
00725CA000
00725CA000
00725CA000
00725CA000
00725CA000
00725CA000
00725CA000
00725CA000
00725CA000
00725CA000
00725CA000
00725CA000
00725CA000
00725CA000
00725CA000
00725CA000
00725CA000
00725CA000
00725CA000
00725CA000
00725CA000
00725CA000
ENDCHAR
STARTCHAR eth
ENCODING 240
SWIDTH 783 0
DWIDTH 28 0
BBX 26 33 1 -2
BITMAP
00000554000000
0006FFFFA00000
007E50016E0000
02D06AA946D000
0E1BE95AF47400
007905502E1D00
0091BFFF82C700
000F9001F4A280
00041AA92D75C0
0000EA6B8B28D0
00000001E35CA0
00000000728CA0
00000540368DA0
0006FFFE368D60
00BD4001368D60
03D1AAA9368D60
0E1BA55A368D60
28781554368D60
75D2FEFF368D60
A34E4000368D60
D7286FFE368D60
DA35D555728CA0
DA35C000E35CA0
D728FAAB8728D0
A75D1AA51D35C0
7287D406F4A280
34E0BFFE428700
1D2E00406E1D00
0B47FAABE47400
01E45AA906D000
002E9005BE0000
0002BFFF900000
00000140000000
ENDCHAR
STARTCHAR ntilde
ENCODING 241
SWIDTH 787 0
DWIDTH 28 0
BBX 26 35 1 0
BITMAP
0006AAAA909600
00BEAAAA90D600
02D0000002CA00
034BFFFFFF4D00
072D5555542C00
0A342AAAAAF400
06246AAAAA4000
00000000000000
00000000000000
10410400014450
78E38E00028CA0
7D71C700028CA0
7A28A280028CA0
735D75D0028CA0
72CB2CA0028CA0
71D34D34028CA0
7271C72C028CA0
7268E38E028CA0
725D75D7028CA0
724A28A2828CA0
72574D75D28CA0
725ACB2CB28CA0
725CE38E368CA0
725C71C71D8CA0
725C28A38E4CA0
725C1D75D74CA0
725C0A28A28CA0
725C034D35D8A0
725C01CB2CB4A0
725C00E38E38A0
725C0071C71CA0
725C0028A28EA0
725C001D75D7A0
725C000B2CB2E0
725C00034D34E0
ENDCHAR
STARTCHAR ograve
ENCODING 242
SWIDTH 833 0
DWIDTH 30 0
BBX 28 39 1 -2
BITMAP
00740000000000
001F4000000000
0781F400000000
01B81F40000000
001B81F8000000
0001B91F400000
00001B91000000
000001B4000000
00000010000000
00000000000000
00000169400000
00007FABF90000
0007E4001B9000
002D06FF90B800
00B0BE55BD1E00
0287915507C780
0B1E1FEBE4B5D0
0D74B8006D2CB0
28A2D2BE474E34
35C71F56E1D71C
728D380028B28D
A35CA0000E35CA
D728D0000729CA
D735C0000328DA
D635C0000368D6
D735C0000728CA
D728D0000A35CA
A35CB0001D728D
728E2D0078A35C
35D74BABE2C728
2CB1D1A90B5D34
0D387D41BC38A0
074E0BFF91E1C0
02D2E0141B8740
00B46FAAF92D00
001E41AA41F400
0002F9006F8000
00002BFFE40000
00000054000000
ENDCHAR
STARTCHAR oacute
ENCODING 243
SWIDTH 833 0
DWIDTH 30 0
BBX 28 39 1 -2
BITMAP
00000000002D00
0000000002F400
000000002E46D0
00000002E46E40
0000002E46E400
000002E46E4000
00000146E00000
0000002E000000
00000000000000
00000000000000
00000169400000
00007FABF90000
0007E4001B9000
002D06FF90B800
00B0BE55BD1E00
0287915507C780
0B1E1FEBE4B5D0
0D74B8006D2CB0
28A2D2BE474E34
35C71F56E1D71C
728D380028B28D
A35CA0000E35CA
D728D0000729CA
D735C0000328DA
D635C0000368D6
D735C0000728CA
D728D0000A35CA
A35CB0001D728D
728E2D0078A35C
35D74BABE2C728
2CB1D1A90B5D34
0D387D41BC38A0
074E0BFF91E1C0
02D2E0141B8740
00B46FAAF92D00
001E41AA41F400
0002F9006F8000
00002BFFE40000
00000054000000
ENDCHAR
STARTCHAR ocircumflex
ENCODING 244
SWIDTH 833 0
DWIDTH 30 0
BBX 28 39 1 -2
BITMAP
00000196000000
000002E3400000
000003B2800000
00000738D00000
00000A1CA00000
00001C4D700000
000028DA340000
000035C7280000
000062825C0000
00000000000000
00000169400000
00007FABF90000
0007E4001B9000
002D06FF90B800
00B0BE55BD1E00
0287915507C780
0B1E1FEBE4B5D0
0D74B8006D2CB0
28A2D2BE474E34
35C71F56E1D71C
728D380028B28D
A35CA0000E35CA
D728D0000729CA
D735C0000328DA
D635C0000368D6
D735C0000728CA
D728D0000A35CA
A35CB0001D728D
728E2D0078A35C
35D74BABE2C728
2CB1D1A90B5D34
0D387D41BC38A0
074E0BFF91E1C0
02D2E0141B8740
00B46FAAF92D00
001E41AA41F400
0002F9006F8000
00002BFFE40000
00000054000000
ENDCHAR
STARTCHAR otilde
ENCODING 245
SWIDTH 833 0
DWIDTH 30 0
BBX 28 37 1 -2
BITMAP
0005AAAAA42140
002EAAAAA47280
00E0000001A340
01C2FFFFFF8740
028E5555540A00
025C1AAAAAB800
02581AAAAA9000
00000000000000
00000169400000
00007FABF90000
0007E4001B9000
002D06FF90B800
00B0BE55BD1E00
0287915507C780
0B1E1FEBE4B5D0
0D74B8006D2CB0
28A2D2BE474E34
35C71F56E1D71C
728D380028B28D
A35CA0000E35CA
D728D0000729CA
D735C0000328DA
D635C0000368D6
D735C0000728CA
D728D0000A35CA
A35CB0001D728D
728E2D0078A35C
35D74BABE2C728
2CB1D1A90B5D34
0D387D41BC38A0
074E0BFF91E1C0
02D2E0141B8740
00B46FAAF92D00
001E41AA41F400
0002F9006F8000
00002BFFE40000
00000054000000
ENDCHAR
STARTCHAR odieresis
ENCODING 246
SWIDTH 833 0
DWIDTH 30 0
BBX 28 35 1 -2
BITMAP
00148500551400
0028CA00D72400
0028CA00D72400
0028CA00D72400
00144500411400
00000000000000
00000169400000
00007FABF90000
0007E4001B9000
002D06FF90B800
00B0BE55BD1E00
0287915507C780
0B1E1FEBE4B5D0
0D74B8006D2CB0
28A2D2BE474E34
35C71F56E1D71C
728D380028B28D
A35CA0000E35CA
D728D0000729CA
D735C0000328DA
D635C0000368D6
D735C0000728CA
D728D0000A35CA
A35CB0001D728D
728E2D0078A35C
35D74BABE2C728
2CB1D1A90B5D34
0D387D41BC38A0
074E0BFF91E1C0
02D2E0141B8740
00B46FAAF92D00
001E41AA41F400
0002F9006F8000
00002BFFE40000
00000054000000
ENDCHAR
STARTCHAR divide
ENCODING 247
SWIDTH 260 0
DWIDTH 9 0
BBX 12 22 -1 1
BITMAP
011040
0635C0
0635C0
0635C0
0635C0
0635C0
0635C0
000000
000000
FFFFFD
555554
555554
FFFFFD
000000
000000
0635C0
0635C0
0635C0
0635C0
0635C0
0635C0
011040
ENDCHAR
STARTCHAR oslash
ENCODING 248
SWIDTH 832 0
DWIDTH 30 0
BBX 28 33 1 -4
BITMAP
00000000028000
00000000075800
00000169463840
00007FABF972C0
0007E4001B9340
002D06FF90B900
00B0BE55BD1E00
02879155078780
0B1E1FEBE4B1D0
1D74B8006D2CB0
28E2D2BE474E34
35CB1F56E1D71C
728D780028A28D
A36CA0000E35C9
D729D0000729CA
D735C0000328DA
D635C0000368D6
D735C0000728CA
D728D0000A35CA
A35CB0001D728D
728E2D0078A35C
35D74BABE2C728
2CA1D1A90B5D34
0D387D41BD38A0
074E0BFF91E2C0
02D2E0101B8740
00B46FAAF92D00
015E41AA41F400
0286E9006F4000
031C6FFFE40000
0034D054000000
00028000000000
00014000000000
ENDCHAR
STARTCHAR ugrave
ENCODING 249
SWIDTH 795 0
DWIDTH 29 0
BBX 26 39 1 -2
BITMAP
00E00000000000
006E0000000000
0E46E400000000
02E46E40000000
002E46E4000000
0002F46E000000
00002F45000000
000002F0000000
00000010000000
00000000000000
00000000000000
51044000104510
A368D00029CA30
A368D00029CA30
A368D00029CA30
A368D00029CA30
A368D00029CA30
A368D00029CA30
A368D00029CA30
A368D00029CA30
A368D00029CA30
A368D00029CA30
A368D00029CA30
A368D00029CA30
A368D00029CA30
A358D00029CA30
A35CD00035CA70
735CA000718D70
728D3801E34DA0
35C75FAB8B28D0
28A2D1A92D75C0
0D38B905F4E280
071E1BFF878B00
0287D0102E1D00
00B4BEAAF47400
002E06A946D000
0007E4016E0000
00006FFFA00000
00000050000000
ENDCHAR
STARTCHAR uacute
ENCODING 250
SWIDTH 795 0
DWIDTH 29 0
BBX 26 39 1 -2
BITMAP
00000000007800
0000000007E000
000000007E0B80
00000007E0BD00
0000007D0BD000
000007D0BD0000
0000010B900000
00000079000000
00000010000000
00000000000000
00000000000000
51044000104510
A368D00029CA30
A368D00029CA30
A368D00029CA30
A368D00029CA30
A368D00029CA30
A368D00029CA30
A368D00029CA30
A368D00029CA30
A368D00029CA30
A368D00029CA30
A368D00029CA30
A368D00029CA30
A368D00029CA30
A358D00029CA30
A35CD00035CA70
735CA000718D70
728D3801E34DA0
35C75FAB8B28D0
28A2D1A92D75C0
0D38B905F4E280
071E1BFF878B00
0287D0102E1D00
00B4BEAAF47400
002E06A946D000
0007E4016E0000
00006FFFA00000
00000050000000
ENDCHAR
STARTCHAR ucircumflex
ENCODING 251
SWIDTH 795 0
DWIDTH 29 0
BBX 26 39 1 -2
BITMAP
00000289000000
000007CA000000
00000AD7400000
00000D72800000
00001C35C00000
00002868D00000
0000729CA00000
0000A34D700000
00009706240000
00000000000000
00000000000000
51044000104510
A368D00029CA30
A368D00029CA30
A368D00029CA30
A368D00029CA30
A368D00029CA30
A368D00029CA30
A368D00029CA30
A368D00029CA30
A368D00029CA30
A368D00029CA30
A368D00029CA30
A368D00029CA30
A368D00029CA30
A358D00029CA30
A35CD00035CA70
735CA000718D70
728D3801E34DA0
35C75FAB8B28D0
28A2D1A92D75C0
0D38B905F4E280
071E1BFF878B00
0287D0102E1D00
00B4BEAAF47400
002E06A946D000
0007E4016E0000
00006FFFA00000
00000050000000
ENDCHAR
STARTCHAR udieresis
ENCODING 252
SWIDTH 795 0
DWIDTH 29 0
BBX 26 35 1 -2
BITMAP
00114801485000
00725C028D6000
00725C028D6000
00725C028D6000
00114401445000
00000000000000
00000000000000
51044000104510
A368D00029CA30
A368D00029CA30
A368D00029CA30
A368D00029CA30
A368D00029CA30
A368D00029CA30
A368D00029CA30
A368D00029CA30
A368D00029CA30
A368D00029CA30
A368D00029CA30
A368D00029CA30
A368D00029CA30
A358D00029CA30
A35CD00035CA70
735CA000718D70
728D3801E34DA0
35C75FAB8B28D0
28A2D1A92D75C0
0D38B905F4E280
071E1BFF878B00
0287D0102E1D00
00B4BEAAF47400
002E06A946D000
0007E4016E0000
00006FFFA00000
00000050000000
ENDCHAR
STARTCHAR yacute
ENCODING 253
SWIDTH 733 0
DWIDTH 26 0
BBX 25 37 1 0
BITMAP
0000000001E000
000000001F8000
00000001F82E00
0000001F42F400
000001F42F4000
00001F42E40000
0000042E400000
000001E4000000
00000040000000
00000000000000
00000000000000
44114000411040
D635C001CD7240
A35CA0035C9700
35CD700725CA00
28D72809729C00
0D728D1CA72800
0635CA29CA3000
035CA3728CA000
018D74A728C000
00D729CA328000
00628A8CA34000
0035C328DA0000
0018AA368D0000
000D5DA3580000
000628D6340000
0003758D600000
0001E358D00000
0000D735C00000
0000D735C00000
0000D735C00000
0000D735C00000
0000D735C00000
0000D735C00000
0000D735C00000
0000D735C00000
0000D735C00000
ENDCHAR
STARTCHAR thorn
ENCODING 254
SWIDTH 833 0
DWIDTH 30 0
BBX 28 33 1 -4
BITMAP
725CA000000000
725CA000000000
725CA000000000
725CA000000000
725CA000000000
725CA000000000
725CA000000000
725CA555550000
725CAAAAAFE400
725CA000006E00
725CABFFFE47C0
725CA55556F4F0
725CA555542D38
725CABFFFF871C
725CA00001E28D
725CABFFF935CA
725CA5555B28DA
725CA0000368D6
725CA6AAAE28DA
725CA6AAA475CA
725CA00006D38D
725CABFFFE4B28
725CA155406C74
725CA6AAABE1E0
725CAAAAA90780
725CA000017D00
725CABFFFF9000
725CA555500000
725CA000000000
725CA000000000
725CA000000000
725CA000000000
62589000000000
ENDCHAR
STARTCHAR ydieresis
ENCODING 255
SWIDTH 733 0
DWIDTH 26 0
BBX 25 33 1 0
BITMAP
01451005214000
01C9700A368000
01C9700A368000
01C9700A368000
00451005114000
00000000000000
00000000000000
44114000411040
D635C001CD7240
A35CA0035C9700
35CD700725CA00
28D72809729C00
0D728D1CA72800
0635CA29CA3000
035CA3728CA000
018D74A728C000
00D729CA328000
00628A8CA34000
0035C328DA0000
0018AA368D0000
000D5DA3580000
000628D6340000
0003758D600000
0001E358D00000
0000D735C00000
0000D735C00000
0000D735C00000
0000D735C00000
0000D735C00000
0000D735C00000
0000D735C00000
0000D735C00000
0000D735C00000
ENDCHAR
STARTCHAR Amacron
ENCODING 256
SWIDTH 936 0
DWIDTH 34 0
BBX 33 29 0 0
BITMAP
000000E35C70000000
000002F28A34000000
00000374D728000000
0000071CA35C000000
00000A0D728D000000
00000D5A35CB000000
00002CA728E3400000
000035C35D72800000
00007285CA35C00000
0000A35CD728D00000
0000D728A35CA00000
0002CA34728D340000
00035D7235C7280000
000728E36CA35C0000
000A35CA0D728D0000
000D728D0A35CA0000
001CA35C0728D74000
0034D728035C728000
00728A34028E35C000
00A35CB6A9D728D000
00D728D555A35CA000
01CA35D555728D7400
038D72AFFF75CB2800
0728A3400028E35C00
0A35D76AAA9D728D00
0D728D6AAA9A35CA00
1CA35C00000728D700
28D7280000035CA280
71CA340000028D35C0
ENDCHAR
STARTCHAR amacron
ENCODING 257
SWIDTH 832 0
DWIDTH 30 0
BBX 28 27 1 -1
BITMAP
00001BFF940000
0002F955AE4000
002E415542E000
00B46FABF82D00
02D2E4001F4B40
0B5E06FE91E2C0
0D387E56B878E0
28A2D0551F1D70
35C74BFFD28A28
728D3D00B4D35C
A35CB0001C728C
D728D0000A368D
D635C0000A35CD
D635C0000735C9
D735C0000735C9
D728D0000735C9
A35CA0000735C9
728D39005735C9
35D74BEFD735C9
2CA1E0550735C9
0E286E96E735C9
074B46AA4735C9
01E1F9015735C9
00781BFF9735C9
001B90100735C9
0001BEAAE735C9
000006AA400000
ENDCHAR
STARTCHAR Abreve
ENCODING 258
SWIDTH 936 0
DWIDTH 34 0
BBX 33 37 0 0
BITMAP
000001540120000000
0000018D1A30000000
000000A6A8A0000000
000000295780000000
00000006A900000000
000000000000000000
000000000000000000
000000000000000000
000000E35C70000000
000002F28A34000000
00000374D728000000
0000071CA35C000000
00000A0D728D000000
00000D5A35CB000000
00002CA728E3400000
000035C35D72800000
00007285CA35C00000
0000A35CD728D00000
0000D728A35CA00000
0002CA34728D340000
00035D7235C7280000
000728E36CA35C0000
000A35CA0D728D0000
000D728D0A35CA0000
001CA35C0728D74000
0034D728035C728000
00728A34028E35C000
00A35CB6A9D728D000
00D728D555A35CA000
01CA35D555728D7400
038D72AFFF75CB2800
0728A3400028E35C00
0A35D76AAA9D728D00
0D728D6AAA9A35CA00
1CA35C00000728D700
28D7280000035CA280
71CA340000028D35C0
ENDCHAR
STARTCHAR abreve
ENCODING 259
SWIDTH 832 0
DWIDTH 30 0
BBX 28 34 1 -1
BITMAP
00004400440000
0000A646580000
000035B9740000
00001E56D00000
000001A9000000
00000000000000
00000000000000
00001BFF940000
0002F955AE4000
002E415542E000
00B46FABF82D00
02D2E4001F4B40
0B5E06FE91E2C0
0D387E56B878E0
28A2D0551F1D70
35C74BFFD28A28
728D3D00B4D35C
A35CB0001C728C
D728D0000A368D
D635C0000A35CD
D635C0000735C9
D735C0000735C9
D728D0000735C9
A35CA0000735C9
728D39005735C9
35D74BEFD735C9
2CA1E0550735C9
0E286E96E735C9
074B46AA4735C9
01E1F9015735C9
00781BFF9735C9
001B90100735C9
0001BEAAE735C9
000006AA400000
ENDCHAR
STARTCHAR Aogonek
ENCODING 260
SWIDTH 937 0
DWIDTH 34 0
BBX 33 40 1 -11
BITMAP
000003CA35C0000000
000007D728E0000000
00000AA35D70000000
00000D72CA34000000
00001C28D728000000
0000359CA35C000000
0000728D728D000000
0000A34A35C7000000
0000D71728A3400000
0001CA338D72800000
00038D71CA35C00000
000728A0D728D00000
000A35C5A35CB00000
000D728D728A340000
001CA35C35D7280000
0038D7281CA35C0000
0072CA340D728D0000
00A35D700A35CB0000
00D728E00728E34000
01CA35DAA75D728000
028D729556CA35C000
071CA35555D728D000
0A34D77FFEA35CA000
0D728A0000728D3400
1CA35DAAAA75C72800
28D729AAAA6CA35C00
75CA3400000D728D00
A34D7000000A35CA00
D72CA001000728D740
000001BF0000000000
000007900000000000
00000E1A0000000000
00001C7A0000000000
00001CA00000000000
00001CD00000000000
00001CD70000000000
00001CD70000000000
00001CD70000000000
00001CD70000000000
00001CD70000000000
ENDCHAR
STARTCHAR aogonek
ENCODING 261
SWIDTH 832 0
DWIDTH 30 0
BBX 28 38 1 -12
BITMAP
00001BFF940000
0002F955AE4000
002E415542E000
00B46FABF82D00
02D2E4001F4B40
0B5E06FE91E2C0
0D387E56B878E0
28A2D0551F1D70
35C74BFFD28A28
728D3D00B4D35C
A35CB0001C728C
D728D0000A368D
D635C0000A35CD
D635C0000735C9
D735C0000735C9
D728D0000735C9
A35CA0000735C9
728D39005735C9
35D74BEFD735C9
2CA1E0550735C9
0E286E96E735C9
074B46AA4735C9
01E1F9015735C9
00781BFF9735C9
001B90100735C9
0001BEAAE735C9
000006AA400000
00001BE0000000
0000B900000000
0000D190000000
00018790000000
00028D00000000
00028C00000000
00028CA0000000
00028CA0000000
00028CA0000000
00028CA0000000
00028CA0000000
ENDCHAR
STARTCHAR Cacute
ENCODING 262
SWIDTH 852 0
DWIDTH 31 0
BBX 29 43 1 -2
BITMAP
000000000002D000
00000000002E4000
0000000002E46D00
000000006E46E400
00000006E46E0000
0000002E46E00000
000000147E000000
00000002E0000000
0000000000000000
0000000000000000
0000001550000000
000006FFFF900000
00007E4001BD0000
0007D06AA90B8000
001E1BE96BE0B400
00B4B905407D2D00
01D3D1BFFE478B00
074E1F9006E1E280
0A28781AA47C7400
1CB1D2FAAF4B1400
28D74B4002D24000
72CA2C0000740000
639D700000100000
A368E00000000000
D728C00000000000
D735C00000000000
D635C00000000000
D735C00000000000
D728C00000000000
A368A00000000000
738D740000100000
75CA2C0000740000
28D38B4006D34000
1C71E1FAAE0A1400
0A2C781A90787400
074E1B9016E1E280
01D2D1BFFE0B4B00
0074B901007D2D00
001E0BEAAFD1F000
0007D06AA51B8000
00007E5005B90000
000006FFFE900000
0000000540000000
ENDCHAR
STARTCHAR cacute
ENCODING 263
SWIDTH 736 0
DWIDTH 27 0
BBX 26 39 1 -2
BITMAP
00000000002D00
0000000002F400
000000002E46D0
00000002E46E40
0000002E46E400
000002E46E4000
00000146E00000
0000002E000000
00000000000000
00000000000000
00000169400000
00007FAAF90000
0007E4001BD000
002D06FF90B800
00B0BE55BE1E00
0287915507C740
0B1E1FEBE4B100
0D74B8006D2400
28A2D2BE474000
35C71F56E10000
728D3800280000
A35CA000000000
D728D000000000
D735C000000000
D635C000000000
D735C000000000
D728D000000000
A35CB000100000
728E2D00780000
35D74BABE24000
2CB1D1A90B4000
0D387D41B93400
074E0BFF91E140
02D2E0101B8740
00B46FAAF92D00
001E41AA41F400
0002F9006F8000
00002BFFE40000
00000054000000
ENDCHAR
STARTCHAR Cdotaccent
ENCODING 266
SWIDTH 852 0
DWIDTH 31 0
BBX 29 40 1 -2
BITMAP
0000007FFC000000
0000000000000000
0000006AA8000000
0000006AA8000000
0000000000000000
0000007FFC000000
0000001554000000
0000001550000000
000006FFFF900000
00007E4001BD0000
0007D06AA90B8000
001E1BE96BE0B400
00B4B905407D2D00
01D3D1BFFE478B00
074E1F9006E1E280
0A28781AA47C7400
1CB1D2FAAF4B1400
28D74B4002D24000
72CA2C0000740000
639D700000100000
A368E00000000000
D728C00000000000
D735C00000000000
D635C00000000000
D735C00000000000
D728C00000000000
A368A00000000000
738D740000100000
75CA2C0000740000
28D38B4006D34000
1C71E1FAAE0A1400
0A2C781A90787400
074E1B9016E1E280
01D2D1BFFE0B4B00
0074B901007D2D00
001E0BEAAFD1F000
0007D06AA51B8000
00007E5005B90000
000006FFFE900000
0000000540000000
ENDCHAR
STARTCHAR cdotaccent
ENCODING 267
SWIDTH 736 0
DWIDTH 27 0
BBX 25 37 1 -2
BITMAP
000007FFC00000
00000000000000
000002AA800000
000006AA800000
00000000000000
000007FFC00000
00000155400000
00000000000000
00000169400000
00007FAAF90000
0007E4001BD000
002D06FF90B800
00B0BE55BE1E00
0287915507C740
0B1E1FEBE4B100
0D74B8006D2400
28A2D2BE474000
35C71F56E10000
728D3800280000
A35CA000000000
D728D000000000
D735C000000000
D635C000000000
D735C000000000
D728D000000000
A35CB000100000
728E2D00780000
35D74BABE24000
2CB1D1A90B4000
0D387D41B93400
074E0BFF91E140
02D2E0101B8740
00B46FAAF92D00
001E41AA41F400
0002F9006F8000
00002BFFE40000
00000054000000
ENDCHAR
STARTCHAR Ccaron
ENCODING 268
SWIDTH 852 0
DWIDTH 31 0
BBX 29 43 1 -2
BITMAP
0000062424800000
0000075C72800000
0000028DA3400000
000001C8D7000000
000000D1CA000000
000000A34D000000
0000007728000000
0000002E34000000
0000001D70000000
0000000000000000
0000001550000000
000006FFFF900000
00007E4001BD0000
0007D06AA90B8000
001E1BE96BE0B400
00B4B905407D2D00
01D3D1BFFE478B00
074E1F9006E1E280
0A28781AA47C7400
1CB1D2FAAF4B1400
28D74B4002D24000
72CA2C0000740000
639D700000100000
A368E00000000000
D728C00000000000
D735C00000000000
D635C00000000000
D735C00000000000
D728C00000000000
A368A00000000000
738D740000100000
75CA2C0000740000
28D38B4006D34000
1C71E1FAAE0A1400
0A2C781A90787400
074E1B9016E1E280
01D2D1BFFE0B4B00
0074B901007D2D00
001E0BEAAFD1F000
0007D06AA51B8000
00007E5005B90000
000006FFFE900000
0000000540000000
ENDCHAR
STARTCHAR ccaron
ENCODING 269
SWIDTH 736 0
DWIDTH 27 0
BBX 25 39 1 -2
BITMAP
00006142480000
000035C71C0000
000028DA340000
00001C8D700000
00000D1CA00000
00000728D00000
00000375C00000
000002E3400000
000001D7000000
00000000000000
00000169400000
00007FAAF90000
0007E4001BD000
002D06FF90B800
00B0BE55BE1E00
0287915507C740
0B1E1FEBE4B100
0D74B8006D2400
28A2D2BE474000
35C71F56E10000
728D3800280000
A35CA000000000
D728D000000000
D735C000000000
D635C000000000
D735C000000000
D728D000000000
A35CB000100000
728E2D00780000
35D74BABE24000
2CB1D1A90B4000
0D387D41B93400
074E0BFF91E140
02D2E0101B8740
00B46FAAF92D00
001E41AA41F400
0002F9006F8000
00002BFFE40000
00000054000000
ENDCHAR
STARTCHAR Dcaron
ENCODING 270
SWIDTH 886 0
DWIDTH 32 0
BBX 30 41 1 0
BITMAP
0000086062400000
00000A34D7000000
00000729CA000000
000003568D000000
000002835C000000
000001C728000000
000000AD74000000
0000007CA0000000
00000038D0000000
0000000000000000
0000000000000000
0000000000000000
7FFFFFFFFE400000
7000000016F80000
71AAAAAAA41F4000
72AAAAAAAF92D000
7240000001B8B400
725FFFFFF91E2C00
725D55555BC78E00
725C6AAA90B1D700
725CBAAABD28A380
725CA000074D75C0
725CA00001CB28D0
725CA00000D768D0
725CA00000A35CA0
725CA00000739CA0
725CA00000728CA0
725CA00000729CA0
725CA00000A35CA0
725CA00000D728D0
725CA00002CA29D0
725CA000074D75C0
725CBFFFFD28A380
725C555550B1D700
725D55555B874E00
725FFFFFF91E2800
7240000001B4B000
72EAAAAABF82D000
71555555541E0000
7555555556F40000
7FFFFFFFFE400000
ENDCHAR
STARTCHAR dcaron
ENCODING 271
SWIDTH 1084 0
DWIDTH 39 0
BBX 37 27 1 0
BITMAP
00000000000000051040
155555554000000A3580
7FFFFFFFFE00000A3580
7000000016E0000A3580
72AAAAAAA47D000A3580
72955556AE4B40063580
7245555502D2C0003580
725FFFFFF478A0007280
725C00005E1D3407D280
725CAAAA828B2C050700
725CAAAAB4E35D016D00
725CA0002D728D0BE400
725CA0000A35CA000000
725CA0000728CA000000
725CA0000728DA000000
725CA0000729CA000000
725CA0000E35CA000000
725CA0002CB28D000000
725CBFFFE1D35C000000
725C5555478A28000000
725D55556E2C70000000
725FFFFFA0B4E0000000
7240000007C380000000
72EAAAAAFD1E00000000
7155555550B800000000
755555556B9000000000
7FFFFFFFE90000000000
ENDCHAR
STARTCHAR Dcroat
ENCODING 272
SWIDTH 888 0
DWIDTH 32 0
BBX 33 29 -2 0
BITMAP
01FFFFFFFFF9000000
01C00000005BE00000
01C6AAAAAA907D0000
01CAAAAAAABE4B4000
01C900000006E2D000
01C97FFFFFE478B000
01C97555556F1E3800
01C971AAAA42C75D00
01C972EAAAF4A28E00
01C97280001D35D700
01C9728000072CA340
A9C972AA90035D7340
55C9729550028D7280
55C972954001CA7280
BDC972AFD001CA3280
01C972800001CA7280
A9C972AA90028D7280
65C9729A90035CA340
01C97280000B28A340
01C97280001D35D700
01C972FFFFF4A28E00
01C971555542C75C00
01C97555556E1D3800
01C97FFFFFE478A000
01C900000006D2C000
01CBAAAAAAFE0B4000
01C555555550780000
01D55555555BD00000
01FFFFFFFFF9000000
ENDCHAR
STARTCHAR dcroat
ENCODING 273
SWIDTH 833 0
DWIDTH 30 0
BBX 31 26 -2 0
BITMAP
0055555555000000
01FFFFFFFFF80000
01C00000005B8000
01CAAAAAAA51F400
01CA55555AB92D00
01C91555540B4B00
01C97FFFFFD1D280
01C97000017874D0
01C972AAAA0A2CA0
01C972AAAAD38D74
01C9728000B1CA34
69C9729A9028D728
69C972AA901CA328
01C97280001CA328
BDC972AFD01C9728
15C972854038D728
01C9728000B2CA34
01C972FFFF874D70
01C97155551E28A0
01C9755555B4B1C0
01C97FFFFE82D380
01C90000001F0E00
01CBAAAAABF47800
01C555555542E000
01D5555555AE4000
01FFFFFFFF940000
ENDCHAR
STARTCHAR Emacron
ENCODING 274
SWIDTH 706 0
DWIDTH 25 0
BBX 23 29 1 0
BITMAP
725CBFFFFFFC
725CA0000000
725CAAAAAAA8
725CBAAAAAA8
725CA0000000
725CBFFFFFFC
725CA5555554
725CA0000000
725CA0000000
725CA0000000
725CA0000000
725CBAAA4000
725CAAAA4000
725CA5550000
725CBFFF4000
725CA0000000
725CAAAA4000
725CAAAA4000
725CA0000000
725CA0000000
725CA0000000
725CA0000000
725CA5555554
725CBFFFFFFC
725CA0000000
725CBAAAAAA8
725CA5555554
725CA5555554
725CBFFFFFFC
ENDCHAR
STARTCHAR emacron
ENCODING 275
SWIDTH 666 0
DWIDTH 24 0
BBX 22 26 1 0
BITMAP
110455555550
725CBFFFFFE0
725CA0000000
725CBAAAAA90
725CA5555550
725CA5555540
725CBFFFFFE0
725CA0000000
725CA0000000
725CA0000000
725CBFFFFF80
725CA5555540
725CA5555540
725CBFFFFFC0
725CA0000000
725CBAAAAA80
725CA5555540
725CA0000000
725CA0000000
725CA5555550
725CBFFFFFE0
725CA0000000
725CBAAAAA90
725CA5555550
725CA5555540
725CBFFFFFE0
ENDCHAR
STARTCHAR Ebreve
ENCODING 276
SWIDTH 706 0
DWIDTH 25 0
BBX 23 37 1 0
BITMAP
000550088000
00067468C000
00035A924000
0000A55E0000
00001AA40000
000000000000
000000000000
000000000000
725CBFFFFFFC
725CA0000000
725CAAAAAAA8
725CBAAAAAA8
725CA0000000
725CBFFFFFFC
725CA5555554
725CA0000000
725CA0000000
725CA0000000
725CA0000000
725CBAAA4000
725CAAAA4000
725CA5550000
725CBFFF4000
725CA0000000
725CAAAA4000
725CAAAA4000
725CA0000000
725CA0000000
725CA0000000
725CA0000000
725CA5555554
725CBFFFFFFC
725CA0000000
725CBAAAAAA8
725CA5555554
725CA5555554
725CBFFFFFFC
ENDCHAR
STARTCHAR ebreve
ENCODING 277
SWIDTH 666 0
DWIDTH 24 0
BBX 22 33 1 0
BITMAP
000840154000
000CA4724000
000A2A8A0000
0002D5680000
00006A900000
000000000000
000000000000
110455555550
725CBFFFFFE0
725CA0000000
725CBAAAAA90
725CA5555550
725CA5555540
725CBFFFFFE0
725CA0000000
725CA0000000
725CA0000000
725CBFFFFF80
725CA5555540
725CA5555540
725CBFFFFFC0
725CA0000000
725CBAAAAA80
725CA5555540
725CA0000000
725CA0000000
725CA5555550
725CBFFFFFE0
725CA0000000
725CBAAAAA90
725CA5555550
725CA5555540
725CBFFFFFE0
ENDCHAR
STARTCHAR Edotaccent
ENCODING 278
SWIDTH 706 0
DWIDTH 25 0
BBX 23 39 1 0
BITMAP
000015540000
00007FFC0000
000000000000
00006AA80000
00006AA80000
000015540000
00007FFC0000
000000000000
000000000000
000000000000
725CBFFFFFFC
725CA0000000
725CAAAAAAA8
725CBAAAAAA8
725CA0000000
725CBFFFFFFC
725CA5555554
725CA0000000
725CA0000000
725CA0000000
725CA0000000
725CBAAA4000
725CAAAA4000
725CA5550000
725CBFFF4000
725CA0000000
725CAAAA4000
725CAAAA4000
725CA0000000
725CA0000000
725CA0000000
725CA0000000
725CA5555554
725CBFFFFFFC
725CA0000000
725CBAAAAAA8
725CA5555554
725CA5555554
725CBFFFFFFC
ENDCHAR
STARTCHAR edotaccent
ENCODING 279
SWIDTH 666 0
DWIDTH 24 0
BBX 22 35 1 0
BITMAP
000055500000
0000FFF40000
000000000000
0000AAA40000
0000AAA00000
000055500000
0000FFF40000
000000000000
000000000000
110455555550
725CBFFFFFE0
725CA0000000
725CBAAAAA90
725CA5555550
725CA5555540
725CBFFFFFE0
725CA0000000
725CA0000000
725CA0000000
725CBFFFFF80
725CA5555540
725CA5555540
725CBFFFFFC0
725CA0000000
725CBAAAAA80
725CA5555540
725CA0000000
725CA0000000
725CA5555550
725CBFFFFFE0
725CA0000000
725CBAAAAA90
725CA5555550
725CA5555540
725CBFFFFFE0
ENDCHAR
STARTCHAR Eogonek
ENCODING 280
SWIDTH 706 0
DWIDTH 25 0
BBX 23 39 1 -10
BITMAP
735CBFFFFFFC
735CA0000000
735CAAAAAAA8
735CBAAAAAA8
735CA0000000
735CBFFFFFFC
735CA5555554
735C90000000
735C90000000
735C90000000
735C90000000
735CBAAA4000
735CAAAA4000
735CA5550000
735CBFFF4000
735CA0000000
735CAAAA4000
735CAAAA4000
735C90000000
735C90000000
735C90000000
735C90000000
735CA5555554
735CBFFFFFFC
735C90000000
735CBAAAAAA8
735CA5555554
735CA5555554
735CBFFFFFFC
000000001E40
000000003868
0000000071E8
000000007280
000000006340
00000000635C
00000000635C
00000000635C
00000000635C
00000000635C
ENDCHAR
STARTCHAR eogonek
ENCODING 281
SWIDTH 666 0
DWIDTH 24 0
BBX 22 36 1 -10
BITMAP
110455555550
725CBFFFFFE0
725CA0000000
725CBAAAAA90
725CA5555550
725CA5555540
725CBFFFFFE0
725CA0000000
725CA0000000
725CA0000000
725CBFFFFF80
725CA5555540
725CA5555540
725CBFFFFFC0
725CA0000000
725CBAAAAA80
725CA5555540
725CA0000000
725CA0000000
725CA5555550
725CBFFFFFE0
725CA0000000
725CBAAAAA90
725CA5555550
725CA5555550
725CBFFFFFF0
00000000B900
00000001D190
000000028B90
000000028D00
000000029C00
000000029CA0
000000029CA0
000000029CA0
000000029CA0
000000029CA0
ENDCHAR
STARTCHAR Ecaron
ENCODING 282
SWIDTH 706 0
DWIDTH 25 0
BBX 23 41 1 0
BITMAP
000624248000
00075C728000
00028DA34000
0001C8D70000
0000D1CA0000
0000A34D0000
000077280000
00002E340000
00001D700000
000000000000
000000000000
000000000000
725CBFFFFFFC
725CA0000000
725CAAAAAAA8
725CBAAAAAA8
725CA0000000
725CBFFFFFFC
725CA5555554
725CA0000000
725CA0000000
725CA0000000
725CA0000000
725CBAAA4000
725CAAAA4000
725CA5550000
725CBFFF4000
725CA0000000
725CAAAA4000
725CAAAA4000
725CA0000000
725CA0000000
725CA0000000
725CA0000000
725CA5555554
725CBFFFFFFC
725CA0000000
725CBAAAAAA8
725CA5555554
725CA5555554
725CBFFFFFFC
ENDCHAR
STARTCHAR ecaron
ENCODING 283
SWIDTH 666 0
DWIDTH 24 0
BBX 22 37 1 0
BITMAP
000860524000
000D34D70000
000729CA0000
0003568D0000
0002875C0000
0001CA380000
0000DD700000
00007CA00000
000038D00000
000000000000
000000000000
110455555550
725CBFFFFFE0
725CA0000000
725CBAAAAA90
725CA5555550
725CA5555540
725CBFFFFFE0
725CA0000000
725CA0000000
725CA0000000
725CBFFFFF80
725CA5555540
725CA5555540
725CBFFFFFC0
725CA0000000
725CBAAAAA80
725CA5555540
725CA0000000
725CA0000000
725CA5555550
725CBFFFFFE0
725CA0000000
725CBAAAAA90
725CA5555550
725CA5555540
725CBFFFFFE0
ENDCHAR
STARTCHAR Gbreve
ENCODING 286
SWIDTH 908 0
DWIDTH 33 0
BBX 31 39 1 -2
BITMAP
0000055008800000
0000067468C00000
0000035A92400000
000000A55E000000
0000001AA4000000
0000000000000000
0000001550000000
000006FFFF900000
00007E4001BD0000
0007D06AA90B8000
001E1BE96BE0B400
00B4B905407D2D00
01D3D1BFFE478B00
074E1F9006E1E280
0A28781AA47C7400
1CB1D2FAAF4B1400
28D74B4002D24000
72CA2C0000740000
639D700000100000
A368E00000000000
D728C00000000000
D735C00000004010
D635C0000028CA34
D735C0000028CA34
D729C0000028CA34
A328D0000028CA34
A35C70000028CA34
728A38000028CA34
38D74F400078CA34
1CB1D2FAAFF8CA34
0E38B81AA528CA34
074E1F9006F8CA34
02D3D1BFFE68CA34
00B4B9014068CA34
002E1BEAABF8CA34
0007D06AA928CA34
0000BE5005B8CA34
000006FFFF900000
0000000550000000
ENDCHAR
STARTCHAR gbreve
ENCODING 287
SWIDTH 827 0
DWIDTH 30 0
BBX 28 35 1 -2
BITMAP
00005500440000
000073468C0000
000028AA280000
00000A55E00000
000001AA400000
00000000000000
00000169400000
00007FAAF90000
0007E4001BD000
002D06FF90B800
00B0BE55BE1E00
0287915507C740
0B1E1FEBE4B100
0D74B8006D2400
28A2D2BE474000
35C71F56E10000
728D3800280000
A35CA000000000
D728D000000000
D735C000000000
D635C000062589
D735C0000A368D
D728D0000A368D
A35CB0000A368D
728E2D001E368D
35D74BAAFA368D
2CB1D1AA4A368D
0D387D416E368D
074E0BFFEA368D
02D2E0141A368D
00B46FAAFE368D
001E41AA4A368D
0002F9006E368D
00002BFFE40000
00000054000000
ENDCHAR
STARTCHAR Gdotaccent
ENCODING 288
SWIDTH 908 0
DWIDTH 33 0
BBX 31 40 1 -2
BITMAP
0000007FFC000000
0000000000000000
0000006AA8000000
0000006AA8000000
0000000000000000
0000007FFC000000
0000001554000000
0000001550000000
000006FFFF900000
00007E4001BD0000
0007D06AA90B8000
001E1BE96BE0B400
00B4B905407D2D00
01D3D1BFFE478B00
074E1F9006E1E280
0A28781AA47C7400
1CB1D2FAAF4B1400
28D74B4002D24000
72CA2C0000740000
639D700000100000
A368E00000000000
D728C00000000000
D735C00000004010
D635C0000028CA34
D735C0000028CA34
D729C0000028CA34
A328D0000028CA34
A35C70000028CA34
728A38000028CA34
38D74F400078CA34
1CB1D2FAAFF8CA34
0E38B81AA528CA34
074E1F9006F8CA34
02D3D1BFFE68CA34
00B4B9014068CA34
002E1BEAABF8CA34
0007D06AA928CA34
0000BE5005B8CA34
000006FFFF900000
0000000550000000
ENDCHAR
STARTCHAR gdotaccent
ENCODING 289
SWIDTH 827 0
DWIDTH 30 0
BBX 28 37 1 -2
BITMAP
000007FFC00000
00000000000000
000002AA800000
000006AA800000
00000000000000
000007FFC00000
00000155400000
00000000000000
00000169400000
00007FAAF90000
0007E4001BD000
002D06FF90B800
00B0BE55BE1E00
0287915507C740
0B1E1FEBE4B100
0D74B8006D2400
28A2D2BE474000
35C71F56E10000
728D3800280000
A35CA000000000
D728D000000000
D735C000000000
D635C000062589
D735C0000A368D
D728D0000A368D
A35CB0000A368D
728E2D001E368D
35D74BAAFA368D
2CB1D1AA4A368D
0D387D416E368D
074E0BFFEA368D
02D2E0141A368D
00B46FAAFE368D
001E41AA4A368D
0002F9006E368D
00002BFFE40000
00000054000000
ENDCHAR
STARTCHAR Gcommaaccent
ENCODING 290
SWIDTH 908 0
DWIDTH 33 0
BBX 31 46 1 -15
BITMAP
0000001550000000
000006FFFF900000
00007E4001BD0000
0007D06AA90B8000
001E1BE96BE0B400
00B4B905407D2D00
01D3D1BFFE478B00
074E1F9006E1E280
0A28781AA47C7400
1CB1D2FAAF4B1400
28D74B4002D24000
72CA2C0000740000
639D700000100000
A368E00000000000
D728C00000000000
D735C00000004010
D635C0000028CA34
D735C0000028CA34
D729C0000028CA34
A328D0000028CA34
A35C70000028CA34
728A38000028CA34
38D74F400078CA34
1CB1D2FAAFF8CA34
0E38B81AA528CA34
074E1F9006F8CA34
02D3D1BFFE68CA34
00B4B9014068CA34
002E1BEAABF8CA34
0007D06AA928CA34
0000BE5005B8CA34
000006FFFF900000
0000000550000000
0000000000000000
0000005114000000
000000635C000000
000000635C000000
000000635C000000
000000635C000000
000000535C000000
000000035C000000
0000000718000000
0000007D28000000
0000005074000000
0000001AD0000000
0000007A00000000
ENDCHAR
STARTCHAR gcommaaccent
ENCODING 291
SWIDTH 827 0
DWIDTH 30 0
BBX 28 29 1 -2
BITMAP
00000169400000
00007FAAF90000
0007E4001BD000
002D06FF90B800
00B0BE55BE1E00
0287915507C740
0B1E1FEBE4B100
0D74B8006D2400
28A2D2BE474000
35C71F56E10000
728D3800280000
A35CA000000000
D728D000000000
D735C000000000
D635C000062589
D735C0000A368D
D728D0000A368D
A35CB0000A368D
728E2D001E368D
35D74BAAFA368D
2CB1D1AA4A368D
0D387D416E368D
074E0BFFEA368D
02D2E0141A368D
00B46FAAFE368D
001E41AA4A368D
0002F9006E368D
00002BFFE40000
00000054000000
ENDCHAR
STARTCHAR Hcircumflex
ENCODING 292
SWIDTH 901 0
DWIDTH 32 0
BBX 30 41 1 0
BITMAP
0000002490000000
0000007CA0000000
000000AD70000000
000000DA38000000
000002875C000000
000003568D000000
00000729CA000000
00000A34D7000000
00000D60A2400000
0000000000000000
0000000000000000
0000000000000000
725CA00000328DA0
725CA00000328DA0
725CA00000328DA0
725CA00000328DA0
725CA00000328DA0
725CA00000328DA0
725CA00000328DA0
725CA00000328DA0
725CA00000328DA0
725CA00000328DA0
725CA00000328DA0
725CBAAAAAB28DA0
725CAAAAAAB28DA0
725CA55555728DA0
725CBFFFFFF28DA0
725CA00000328DA0
725CBAAAAAB28DA0
725CAAAAAAB28DA0
725CA00000328DA0
725CA00000328DA0
725CA00000328DA0
725CA00000328DA0
725CA00000328DA0
725CA00000328DA0
725CA00000328DA0
725CA00000328DA0
725CA00000328DA0
725CA00000328DA0
725CA00000328DA0
ENDCHAR
STARTCHAR hcircumflex
ENCODING 293
SWIDTH 830 0
DWIDTH 30 0
BBX 28 37 1 0
BITMAP
00000196000000
000002E3400000
000003B1C00000
00000728D00000
00000A1CA00000
00000D4D700000
000028DA340000
000035C72C0000
000072824D0000
00000000000000
00000000000000
11044000051144
725CA0000A368D
725CA0000A368D
725CA0000A368D
725CA0000A368D
725CA0000A368D
725CA0000A368D
725CA0000A368D
725CA0000A368D
725CA5555A368D
725CBAAAAE368D
725CA0000A368D
725CBFFFFE368D
725CA5555A368D
725CA5555A368D
725CBFFFFE368D
725CA0000A368D
725CA0000A368D
725CA0000A368D
725CA0000A368D
725CA0000A368D
725CA0000A368D
725CA0000A368D
725CA0000A368D
725CA0000A368D
725CA0000A368D
ENDCHAR
STARTCHAR Hbar
ENCODING 294
SWIDTH 901 0
DWIDTH 32 0
BBX 35 29 -1 0
BITMAP
0725CA00000368DA00
0725CA00000368DA00
0725CA00000368DA00
9725CA6AAAA368DA60
A725CAAAAAA368DAA0
0725CA00000368DA00
F725CABFFFF768DAB4
5725CA55555368DA50
0725CA00000368DA00
0725CA00000368DA00
0725CA00000368DA00
0725CBAAAAAB68DA00
0725CAAAAAAB68DA00
0725CA55555768DA00
0725CBFFFFFF68DA00
0725CA00000368DA00
0725CBAAAAAB68DA00
0725CAAAAAAB68DA00
0725CA00000368DA00
0725CA00000368DA00
0725CA00000368DA00
0725CA00000368DA00
0725CA00000368DA00
0725CA00000368DA00
0725CA00000368DA00
0725CA00000368DA00
0725CA00000368DA00
0725CA00000368DA00
0725CA00000368DA00
ENDCHAR
STARTCHAR hbar
ENCODING 295
SWIDTH 830 0
DWIDTH 30 0
BBX 32 26 -1 0
BITMAP
0110440000511440
0725CA0000A368D0
0725CA0000A368D0
6725CAAAAAA368C9
6725CA6AA9A368C9
0725CA0000A368D0
B725CABFFEA368DD
0725CA0000A368D0
0725CA0000A368D0
0725CA5555A368D0
0725CBAAAAE368D0
0725CA0000A368D0
0725CBFFFFE368D0
0725CA5555A368D0
0725CA5555A368D0
0725CBFFFFE368D0
0725CA0000A368D0
0725CA0000A368D0
0725CA0000A368D0
0725CA0000A368D0
0725CA0000A368D0
0725CA0000A368D0
0725CA0000A368D0
0725CA0000A368D0
0725CA0000A368D0
0725CA0000A368D0
ENDCHAR
STARTCHAR Itilde
ENCODING 296
SWIDTH 338 0
DWIDTH 12 0
BBX 22 39 -5 0
BITMAP
016AAAA90850
0BEAAAA90CA0
2D0000002CA0
74BFFFFFF4D0
62D5555502C0
A346AAAAAF40
9206AAAAA400
000000000000
000000000000
000000000000
000725CA0000
000725CA0000
000725CA0000
000725CA0000
000725CA0000
000725CA0000
000725CA0000
000725CA0000
000725CA0000
000725CA0000
000725CA0000
000725CA0000
000725CA0000
000725CA0000
000725CA0000
000725CA0000
000725CA0000
000725CA0000
000725CA0000
000725CA0000
000725CA0000
000725CA0000
000725CA0000
000725CA0000
000725CA0000
000725CA0000
000725CA0000
000725CA0000
000725CA0000
ENDCHAR
STARTCHAR itilde
ENCODING 297
SWIDTH 337 0
DWIDTH 12 0
BBX 22 35 -5 0
BITMAP
016AAAA90850
0BEAAAA90CA0
2D0000002CA0
74BFFFFFF4D0
62D5555502C0
A346AAAAAF40
9206AAAAA400
000000000000
000000000000
000110440000
000725CA0000
000725CA0000
000725CA0000
000725CA0000
000725CA0000
000725CA0000
000725CA0000
000725CA0000
000725CA0000
000725CA0000
000725CA0000
000725CA0000
000725CA0000
000725CA0000
000725CA0000
000725CA0000
000725CA0000
000725CA0000
000725CA0000
000725CA0000
000725CA0000
000725CA0000
000725CA0000
000725CA0000
000725CA0000
ENDCHAR
STARTCHAR Imacron
ENCODING 298
SWIDTH 338 0
DWIDTH 12 0
BBX 10 29 1 0
BITMAP
725CA0
725CA0
725CA0
725CA0
725CA0
725CA0
725CA0
725CA0
725CA0
725CA0
725CA0
725CA0
725CA0
725CA0
725CA0
725CA0
725CA0
725CA0
725CA0
725CA0
725CA0
725CA0
725CA0
725CA0
725CA0
725CA0
725CA0
725CA0
725CA0
ENDCHAR
STARTCHAR imacron
ENCODING 299
SWIDTH 337 0
DWIDTH 12 0
BBX 10 26 1 0
BITMAP
110440
725CA0
725CA0
725CA0
725CA0
725CA0
725CA0
725CA0
725CA0
725CA0
725CA0
725CA0
725CA0
725CA0
725CA0
725CA0
725CA0
725CA0
725CA0
725CA0
725CA0
725CA0
725CA0
725CA0
725CA0
725CA0
ENDCHAR
STARTCHAR Ibreve
ENCODING 300
SWIDTH 338 0
DWIDTH 12 0
BBX 11 37 1 0
BITMAP
440154
CE0734
A2A8A0
2D5680
06A900
000000
000000
000000
725CA0
725CA0
725CA0
725CA0
725CA0
725CA0
725CA0
725CA0
725CA0
725CA0
725CA0
725CA0
725CA0
725CA0
725CA0
725CA0
725CA0
725CA0
725CA0
725CA0
725CA0
725CA0
725CA0
725CA0
725CA0
725CA0
725CA0
725CA0
725CA0
ENDCHAR
STARTCHAR ibreve
ENCODING 301
SWIDTH 337 0
DWIDTH 12 0
BBX 11 33 1 0
BITMAP
440154
CE0734
A2A8A0
2D5680
06A900
000000
000000
110440
725CA0
725CA0
725CA0
725CA0
725CA0
725CA0
725CA0
725CA0
725CA0
725CA0
725CA0
725CA0
725CA0
725CA0
725CA0
725CA0
725CA0
725CA0
725CA0
725CA0
725CA0
725CA0
725CA0
725CA0
725CA0
ENDCHAR
STARTCHAR Iogonek
ENCODING 302
SWIDTH 338 0
DWIDTH 12 0
BBX 10 39 1 -10
BITMAP
725CA0
725CA0
725CA0
725CA0
725CA0
725CA0
725CA0
725CA0
725CA0
725CA0
725CA0
725CA0
725CA0
725CA0
725CA0
725CA0
725CA0
725CA0
725CA0
725CA0
725CA0
725CA0
725CA0
725CA0
725CA0
725CA0
725CA0
725CE0
726FF0
00B500
01D190
028B90
025D00
035C00
035C90
035C90
035C90
035C90
035C90
ENDCHAR
STARTCHAR iogonek
ENCODING 303
SWIDTH 337 0
DWIDTH 12 0
BBX 10 36 1 -10
BITMAP
110440
725CA0
725CA0
725CA0
725CA0
725CA0
725CA0
725CA0
725CA0
725CA0
725CA0
725CA0
725CA0
725CA0
725CA0
725CA0
725CA0
725CA0
725CA0
725CA0
725CA0
725CA0
725CA0
725CA0
725CE0
726FF0
00B500
01D190
028B90
028D00
025C00
025C90
025CA0
025CA0
025CA0
025CA0
ENDCHAR
STARTCHAR Idotaccent
ENCODING 304
SWIDTH 338 0
DWIDTH 12 0
BBX 10 38 1 0
BITMAP
0FFF40
000000
0AAA00
0AAA00
000000
0FFF40
055500
000000
000000
725CA0
725CA0
725CA0
725CA0
725CA0
725CA0
725CA0
725CA0
725CA0
725CA0
725CA0
725CA0
725CA0
725CA0
725CA0
725CA0
725CA0
725CA0
725CA0
725CA0
725CA0
725CA0
725CA0
725CA0
725CA0
725CA0
725CA0
725CA0
725CA0
ENDCHAR
STARTCHAR dotlessi
ENCODING 305
SWIDTH 337 0
DWIDTH 12 0
BBX 10 26 1 0
BITMAP
110440
725CA0
725CA0
725CA0
725CA0
725CA0
725CA0
725CA0
725CA0
725CA0
725CA0
725CA0
725CA0
725CA0
725CA0
725CA0
725CA0
725CA0
725CA0
725CA0
725CA0
725CA0
725CA0
725CA0
725CA0
725CA0
ENDCHAR
STARTCHAR IJ
ENCODING 306
SWIDTH 774 0
DWIDTH 28 0
BBX 26 31 1 -2
BITMAP
735C9000A368D0
735C9000A368D0
735C9000A368D0
735C9000A368D0
735C9000A368D0
735C9000A368D0
735C9000A368D0
735C9000A368D0
735C9000A368D0
735C9000A368D0
735C9000A368D0
735C9000A368D0
735C9000A368D0
735C9000A368D0
735C9000A368D0
735C9000A368D0
735C9000A368D0
735C9000A368D0
735C9000A368D0
735C9000A328D0
735C9001D729C0
735C90AB8A35C0
735C90A92C7280
735C9001B4D740
735C90FF938A00
735C90541E1D00
735C90AAF87400
735C90AA42D000
735C90006E4000
000000FFE40000
00000054000000
ENDCHAR
STARTCHAR ij
ENCODING 307
SWIDTH 729 0
DWIDTH 26 0
BBX 24 30 1 -4
BITMAP
110440011441
725CA00328DA
725CA00328DA
725CA00328DA
725CA00328DA
725CA00328DA
725CA00328DA
725CA00328DA
725CA00328DA
725CA00328DA
725CA00328DA
725CA00328DA
725CA00328DA
725CA00328DA
725CA00328DA
725CA00328DA
725CA00328DA
725CA00328DA
725CA00328DA
725CA00729CA
725CA01D35C9
725CA0F4A28D
725CA002C71C
725CA0AE1D34
725CA0A478A0
725CA006D2C0
000000FE0B40
00000040B800
000000ABD000
000000A50000
ENDCHAR
STARTCHAR Jcircumflex
ENCODING 308
SWIDTH 434 0
DWIDTH 16 0
BBX 15 43 0 -2
BITMAP
00018600
0003D700
0007A280
000A35C0
000D28D0
001C5CA0
0035CD70
00728A38
00A24718
00000000
00000000
00000000
0025CA70
0025CA70
0025CA70
0025CA70
0025CA70
0025CA70
0025CA70
0025CA70
0025CA70
0025CA70
0025CA70
0025CA70
0025CA70
0025CA70
0025CA70
0025CA70
0025CA70
0025CA70
0025CA70
0035C970
00728D70
2AD35CA0
2A4B28D0
006C75C0
7FE1D380
14078B00
2ABD2D00
2A91B400
001B8000
7FF90000
15000000
ENDCHAR
STARTCHAR jcircumflex
ENCODING 309
SWIDTH 393 0
DWIDTH 14 0
BBX 14 41 0 -4
BITMAP
00092400
001F2800
002B5C00
00368D00
00A1C700
00D5A340
01CA7280
028D35C0
03582890
00000000
00000000
00441140
01CA7280
01CA7280
01CA7280
01CA7280
01CA7280
01CA7280
01CA7280
01CA7280
01CA7280
01CA7280
01CA7280
01CA7280
01CA7280
01CA7280
01CA7280
01CA7280
01CA7280
01CA7280
028D7240
1B5CA340
7D38D700
01E1CA00
2B875D00
291D2800
05F4B000
7F82C000
102E0000
2BE40000
29000000
ENDCHAR
STARTCHAR Kcommaaccent
ENCODING 310
SWIDTH 815 0
DWIDTH 29 0
BBX 28 42 1 -13
BITMAP
725CA00028A34D
725CA00035C728
725CA000A28D74
725CA001D72CA0
725CA0028A35D0
725CA0075CB280
725CA00A38D740
725CA01D72CA00
725CA028E35D00
725CA075CA2800
725CA0A34D7000
725CA1C728A000
725CA28D35C000
725CA71CA28000
725CAA28D34000
725CA75CB28000
725CA28E35D000
725CA1D72CA000
725CA0A38D7400
725CA075CB2800
725CA028A35D00
725CA00D71CA00
725CA00A28D340
725CA0035C7280
725CA0028A34D0
725CA000D71CA0
725CA000A28D34
725CA00035C728
725CA00028A34D
00000000000000
00000114400000
00000368D00000
00000368D00000
00000368D00000
00000368D00000
00000228D00000
00000028D00000
00000034D00000
000003E1C00000
00000143800000
0000016E000000
000003A4000000
ENDCHAR
STARTCHAR kcommaaccent
ENCODING 311
SWIDTH 801 0
DWIDTH 29 0
BBX 27 39 1 -13
BITMAP
11044000144104
725CA00035C728
725CA000A28D74
725CA001D72CA0
725CA0028D35C0
725CA0071CA280
725CA00E35D700
725CA01CA28D00
725CA034D71C00
725CA0B28E3400
725CA0D71CA000
725CA28A34D000
725CA75CB28000
725CAA28D34000
725CA75C728000
725CA28A34D000
725CA0D75CB000
725CA0728A3400
725CA034D71C00
725CA01CB28E00
725CA00A34D700
725CA0071CA280
725CA0028E35D0
725CA001D71CA0
725CA000A28D34
725CA00035D72C
00000000000000
00000114400000
00000729C00000
00000729C00000
00000729C00000
00000729C00000
00000629C00000
00000025C00000
00000075C00000
000007E2800000
00000107400000
0000016E000000
000007A4000000
ENDCHAR
STARTCHAR kgreenlandic
ENCODING 312
SWIDTH 801 0
DWIDTH 29 0
BBX 27 26 1 0
BITMAP
11044000144104
725CA00035C728
725CA000A28D74
725CA001D72CA0
725CA0028D35C0
725CA0071CA280
725CA00E35D700
725CA01CA28D00
725CA034D71C00
725CA0B28E3400
725CA0D71CA000
725CA28A34D000
725CA75CB28000
725CAA28D34000
725CA75C728000
725CA28A34D000
725CA0D75CB000
725CA0728A3400
725CA034D71C00
725CA01CB28E00
725CA00A34D700
725CA0071CA280
725CA0028E35D0
725CA001D71CA0
725CA000A28D34
725CA00035D72C
ENDCHAR
STARTCHAR Lacute
ENCODING 313
SWIDTH 604 0
DWIDTH 22 0
BBX 22 41 1 0
BITMAP
000000001D00
00000001F400
0000001F42D0
000001F42E40
00002F42E400
0001F46E4000
000046E40000
00001E400000
000004000000
000000000000
000000000000
000000000000
725CA0000000
725CA0000000
725CA0000000
725CA0000000
725CA0000000
725CA0000000
725CA0000000
725CA0000000
725CA0000000
725CA0000000
725CA0000000
725CA0000000
725CA0000000
725CA0000000
725CA0000000
725CA0000000
725CA0000000
725CA0000000
725CA0000000
725CA0000000
725CA0000000
725CA0000000
725CA5555500
725CBFFFFE00
725CA0000000
725CBAAAA900
725CA5555500
725CA5555400
725CBFFFFE00
ENDCHAR
STARTCHAR lacute
ENCODING 314
SWIDTH 583 0
DWIDTH 21 0
BBX 19 37 1 0
BITMAP
0000007400
000007D000
0000BD0B40
000BD1B900
00BD1B9000
07D1B90000
011B900000
00B9000000
0010000000
0000000000
0000000000
1104400000
725CA00000
725CA00000
725CA00000
725CA00000
725CA00000
725CA00000
725CA00000
725CA00000
725CA00000
725CA00000
725CA00000
725CA00000
725CA00000
725CA00000
725CA00000
725CA00000
725CA00000
725CA00000
725CA55554
725CBFFFF8
725CA00000
725CBAAAA8
725CA55554
725CA55554
725CBFFFF8
ENDCHAR
STARTCHAR Lcommaaccent
ENCODING 315
SWIDTH 604 0
DWIDTH 22 0
BBX 20 42 1 -13
BITMAP
725CA00000
725CA00000
725CA00000
725CA00000
725CA00000
725CA00000
725CA00000
725CA00000
725CA00000
725CA00000
725CA00000
725CA00000
725CA00000
725CA00000
725CA00000
725CA00000
725CA00000
725CA00000
725CA00000
725CA00000
725CA00000
725CA00000
725CA55555
725CBFFFFE
725CA00000
725CBAAAA9
725CA55555
725CA55554
725CBFFFFE
0000000000
0001144000
000368D000
000368D000
000368D000
000368D000
000228D000
000028D000
000034D000
0003E1C000
0001438000
00016E0000
0003A40000
ENDCHAR
STARTCHAR lcommaaccent
ENCODING 316
SWIDTH 583 0
DWIDTH 21 0
BBX 19 39 1 -13
BITMAP
1104400000
725CA00000
725CA00000
725CA00000
725CA00000
725CA00000
725CA00000
725CA00000
725CA00000
725CA00000
725CA00000
725CA00000
725CA00000
725CA00000
725CA00000
725CA00000
725CA00000
725CA00000
725CA00000
725CA55554
725CBFFFF8
725CA00000
725CBAAAA8
725CA55554
725CA55554
725CBFFFF8
0000000000
0005144000
000735C000
000735C000
000735C000
000735C000
000635C000
000035C000
0000718000
0007D28000
0001074000
0001AD0000
0007A00000
ENDCHAR
STARTCHAR Lcaron
ENCODING 317
SWIDTH 856 0
DWIDTH 31 0
BBX 29 31 1 0
BITMAP
0000000000051140
00000000000A3280
735C9000000A3280
735C9000000A3280
735C9000000A3280
735C900000053280
735C900000007280
735C90000000B280
735C9000000BD340
735C900000050B00
735C900000016D00
735C9000000BA000
735C900000000000
735C900000000000
735C900000000000
735C900000000000
735C900000000000
735C900000000000
735C900000000000
735C900000000000
735C900000000000
735C900000000000
735C900000000000
735C900000000000
735CA55555000000
735CBFFFFE000000
735C900000000000
735CBAAAA9000000
735CA55555000000
735CA55554000000
735CBFFFFE000000
ENDCHAR
STARTCHAR lcaron
ENCODING 318
SWIDTH 584 0
DWIDTH 21 0
BBX 19 27 1 0
BITMAP
0000004114
1104409728
725CA09728
725CA09728
725CA09728
725CA09728
725CA00724
725CA00A34
725CA0BD34
725CA050B0
725CA057D0
725CA0BA00
725CA00000
725CA00000
725CA00000
725CA00000
725CA00000
725CA00000
725CA00000
725CA00000
725CA55554
725CBFFFF8
725CA00000
725CBAAAA8
725CA55554
725CA55554
725CBFFFFC
ENDCHAR
STARTCHAR Ldot
ENCODING 319
SWIDTH 604 0
DWIDTH 22 0
BBX 20 29 1 0
BITMAP
725CA00000
725CA00000
725CA00000
725CA00000
725CA00000
725CA00000
725CA00000
725CA00000
725CA00000
725CA00000
725CA05550
725CA1FFF0
725CA00000
725CA1AAA0
725CA1AAA0
725CA05550
725CA1FFF0
725CA00000
725CA00000
725CA00000
725CA00000
725CA00000
725CA55555
725CBFFFFE
725CA00000
725CBAAAA9
725CA55555
725CA55554
725CBFFFFE
ENDCHAR
STARTCHAR ldot
ENCODING 320
SWIDTH 582 0
DWIDTH 21 0
BBX 19 26 1 0
BITMAP
1104400000
725CA00000
725CA00000
725CA00000
725CA00000
725CA05550
725CA1FFF0
725CA00000
725CA1AAA0
725CA1AAA0
725CA05550
725CA1FFF0
725CA00000
725CA00000
725CA00000
725CA00000
725CA00000
725CA00000
725CA00000
725CA55554
725CBFFFF8
725CA00000
725CBAAAA8
725CA55554
725CA55554
725CBFFFFC
ENDCHAR
STARTCHAR Lslash
ENCODING 321
SWIDTH 604 0
DWIDTH 22 0
BBX 24 29 -3 0
BITMAP
00725CA00000
00725CA00000
00725CA00000
00725CA00000
00725CA00000
00725CA00000
00725CA01900
00725CA2F900
00725CAA4100
00725CA06E00
00725CA7E400
01725CA51900
6E725CA1F900
64725CAA4000
1A725CA00000
79725CA00000
01725CA00000
2E725CA00000
64725CA00000
00725CA00000
00725CA00000
00725CA00000
00725CA55555
00725CBFFFFE
00725CA00000
00725CBAAAAA
00725CA55555
00725CA55555
00725CBFFFFE
ENDCHAR
STARTCHAR lslash
ENCODING 322
SWIDTH 581 0
DWIDTH 21 0
BBX 23 26 -3 0
BITMAP
001104400000
00725CA00000
00725CA00000
00725CA00000
00725CA00000
00725CA01A00
00725CA6F900
00725CA64100
00725CA06D00
00725CA79000
01725CA51900
6E725CA2F900
50725CAA4000
1A725CA00000
79725CA00000
01725CA00000
6E725CA00000
64725CA00000
00725CA00000
00725CA55554
00725CBFFFF8
00725CA00000
00725CBAAAA8
00725CA55554
00725CA55554
00725CBFFFFC
ENDCHAR
STARTCHAR Nacute
ENCODING 323
SWIDTH 877 0
DWIDTH 32 0
BBX 29 41 1 0
BITMAP
00000000000B0000
0000000000B90000
000000000B91B400
00000001B91B8000
0000001B91B80000
000000B91F800000
00000051F8000000
0000000B80000000
0000000000000000
0000000000000000
0000000000000000
0000000000000000
78D34D0000D735C0
7C71C70000D735C0
7A28A28000D735C0
735D75D000D735C0
72CB2CB000D735C0
70E38E3400D735C0
7275C75C00D735C0
7268A28A00D735C0
724D34D740D735C0
72471CB2C0D735C0
72568E38E0D735C0
7259D75D74D735C0
725CB28A28D735C0
725C34D34D9735C0
725C5C71C71735C0
725C9A28A38735C0
725CA75D75D735C0
725CA2CB2CA635C0
725CA0E38E3535C0
725CA075C71C35C0
725CA028A28A35C0
725CA00D35D765C0
725CA0071CB2D5C0
725CA0028E38E1C0
725CA001D75D71C0
725CA000A28A29C0
725CA00034D34EC0
725CA0001C71CBC0
725CA0000A28E3C0
ENDCHAR
STARTCHAR nacute
ENCODING 324
SWIDTH 787 0
DWIDTH 28 0
BBX 26 37 1 0
BITMAP
00000000007400
0000000007E000
000000007D0B80
00000007D0B900
000000BD0B9000
000007D1B90000
0000011B900000
00000079000000
00000010000000
00000000000000
00000000000000
10410400014450
78E38E00028CA0
7D71C700028CA0
7A28A280028CA0
735D75D0028CA0
72CB2CA0028CA0
71D34D34028CA0
7271C72C028CA0
7268E38E028CA0
725D75D7028CA0
724A28A2828CA0
72574D75D28CA0
725ACB2CB28CA0
725CE38E368CA0
725C71C71D8CA0
725C28A38E4CA0
725C1D75D74CA0
725C0A28A28CA0
725C034D35D8A0
725C01CB2CB4A0
725C00E38E38A0
725C0071C71CA0
725C0028A28EA0
725C001D75D7A0
725C000B2CB2E0
725C00034D34E0
ENDCHAR
STARTCHAR Ncommaaccent
ENCODING 325
SWIDTH 877 0
DWIDTH 32 0
BBX 29 42 1 -13
BITMAP
78D34D0000D735C0
7C71C70000D735C0
7A28A28000D735C0
735D75D000D735C0
72CB2CB000D735C0
70E38E3400D735C0
7275C75C00D735C0
7268A28A00D735C0
724D34D740D735C0
72471CB2C0D735C0
72568E38E0D735C0
7259D75D74D735C0
725CB28A28D735C0
725C34D34D9735C0
725C5C71C71735C0
725C9A28A38735C0
725CA75D75D735C0
725CA2CB2CA635C0
725CA0E38E3535C0
725CA075C71C35C0
725CA028A28A35C0
725CA00D35D765C0
725CA0071CB2D5C0
725CA0028E38E1C0
725CA001D75D71C0
725CA000A28A29C0
725CA00034D34EC0
725CA0001C71CBC0
725CA0000A28E3C0
0000000000000000
0000014510000000
000001CD70000000
000001CD70000000
000001CD70000000
000001CD70000000
0000018D70000000
0000000D70000000
0000001C70000000
000001F4A0000000
00000041D0000000
0000005B40000000
000001E900000000
ENDCHAR
STARTCHAR ncommaaccent
ENCODING 326
SWIDTH 787 0
DWIDTH 28 0
BBX 26 39 1 -13
BITMAP
10410400014450
78E38E00028CA0
7D71C700028CA0
7A28A280028CA0
735D75D0028CA0
72CB2CA0028CA0
71D34D34028CA0
7271C72C028CA0
7268E38E028CA0
725D75D7028CA0
724A28A2828CA0
72574D75D28CA0
725ACB2CB28CA0
725CE38E368CA0
725C71C71D8CA0
725C28A38E4CA0
725C1D75D74CA0
725C0A28A28CA0
725C034D35D8A0
725C01CB2CB4A0
725C00E38E38A0
725C0071C71CA0
725C0028A28EA0
725C001D75D7A0
725C000B2CB2E0
725C00034D34E0
00000000000000
00000451000000
00000D63400000
00000D63400000
00000D63400000
00000D63400000
00000863400000
000000A3400000
000000E3400000
00000F87000000
0000050E000000
000005B8000000
00000E90000000
ENDCHAR
STARTCHAR Ncaron
ENCODING 327
SWIDTH 877 0
DWIDTH 32 0
BBX 29 41 1 0
BITMAP
0000189096000000
00001C71CA000000
00000A368D000000
000007235C000000
0000034B28000000
0000028D70000000
000001DCA0000000
000000B8D0000000
00000075C0000000
0000000000000000
0000000000000000
0000000000000000
78D34D0000D735C0
7C71C70000D735C0
7A28A28000D735C0
735D75D000D735C0
72CB2CB000D735C0
70E38E3400D735C0
7275C75C00D735C0
7268A28A00D735C0
724D34D740D735C0
72471CB2C0D735C0
72568E38E0D735C0
7259D75D74D735C0
725CB28A28D735C0
725C34D34D9735C0
725C5C71C71735C0
725C9A28A38735C0
725CA75D75D735C0
725CA2CB2CA635C0
725CA0E38E3535C0
725CA075C71C35C0
725CA028A28A35C0
725CA00D35D765C0
725CA0071CB2D5C0
725CA0028E38E1C0
725CA001D75D71C0
725CA000A28A29C0
725CA00034D34EC0
725CA0001C71CBC0
725CA0000A28E3C0
ENDCHAR
STARTCHAR ncaron
ENCODING 328
SWIDTH 787 0
DWIDTH 28 0
BBX 26 37 1 0
BITMAP
00008605240000
0000A34D700000
0000729CA00000
00003568D00000
00002835C00000
00001CB2800000
00000ED7000000
000007CA000000
0000038D000000
00000000000000
00000000000000
10410400014450
78E38E00028CA0
7D71C700028CA0
7A28A280028CA0
735D75D0028CA0
72CB2CA0028CA0
71D34D34028CA0
7271C72C028CA0
7268E38E028CA0
725D75D7028CA0
724A28A2828CA0
72574D75D28CA0
725ACB2CB28CA0
725CE38E368CA0
725C71C71D8CA0
725C28A38E4CA0
725C1D75D74CA0
725C0A28A28CA0
725C034D35D8A0
725C01CB2CB4A0
725C00E38E38A0
725C0071C71CA0
725C0028A28EA0
725C001D75D7A0
725C000B2CB2E0
725C00034D34E0
ENDCHAR
STARTCHAR Eng
ENCODING 330
SWIDTH 874 0
DWIDTH 31 0
BBX 29 41 1 -12
BITMAP
78D38D0000DA3580
7D71D70000DA3580
7A28A28000DA3580
734D34D000DA3580
71C71C7000DA3580
70A28A2800DA3580
7275D74D00DA3580
726CB2C700DA3580
724E38E280DA3580
72475D75D0DA3580
7256CB2CB0DA3580
7258E38E38DA3580
725C71D75CDA3580
725C28A2C8DA3580
725C4D34E0DA3580
725C971C74DA3580
725CA28A28DA3580
725CA1D74CDA3580
725CA0B2C4DA3580
725CA038E0DA3580
725CA01D74DA3580
725CA00A2CDA3580
725CA0034CDA3580
725CA001C4DA3580
725CA000A0DA3580
725CA00034DA3580
725CA0002CDA3580
725CA00008DA3580
725CA00000DA3580
0000000000CA3680
0000000002CA7280
00000001AB5D7340
00000001A938E340
0000000001E2CA00
00000001FF874D00
00000000502D3800
00000001AAF4B000
00000001AA478000
00000000006E0000
00000001FFE00000
0000000054000000
ENDCHAR
STARTCHAR eng
ENCODING 331
SWIDTH 691 0
DWIDTH 25 0
BBX 23 36 1 -10
BITMAP
104104004510
78E38E00CA34
7D71C700CA34
7A28A280CA34
775D75D0CA34
72CB2CA0CA34
71D34D34CA34
7271C72DCA34
7268E38DCA34
725D75D5CA34
724A28A1CA34
72574D74CA34
725ACB2CCA34
725CE34DCA34
725C71C5CA34
725C28A1CA34
725C1D74CA34
725C0A28CA34
725C034DCA34
725C01C9CA34
725C00E1CA34
725C0074CA34
725C0028CA34
725C001DCA34
725C0009CA34
725C0001CA34
00000000CA34
00000001CA34
000000028D70
0000002F5CA0
0000002878D0
00000002E2C0
0000003F4B40
000000106D00
0000001AE000
0000002A4000
ENDCHAR
STARTCHAR Omacron
ENCODING 332
SWIDTH 933 0
DWIDTH 34 0
BBX 32 33 1 -2
BITMAP
0000001550000000
000006FFFF900000
00007E4001B90000
0007D06AA90B8000
001E1BE96BE0B400
00B4B905407D2D00
01D3D1BFFE478B00
074E1F9006E1E280
0A28781AA47C74D0
1CB1D2FAAF4B1C70
28D74B4002D38A34
72CA2C000075D728
639D7000001CA35C
A368E000000D728D
D728C000000A35C9
D735C000000729CA
D635C000000729CA
D735C000000725CA
D728C000000A35C9
A368A000000D728D
738D7400002CA35C
75CA2C000075D728
28D38B4002D38E34
1C71E1FAAE4B1CB0
0A2C781A947874D0
074E1B9016E1E280
01D2D1BFFE0B4B00
0074B90101BD2C00
001E0BEAAFD1E000
0007D06AA51B8000
00007E5005B90000
000006FFFE900000
0000000540000000
ENDCHAR
STARTCHAR omacron
ENCODING 333
SWIDTH 833 0
DWIDTH 30 0
BBX 28 29 1 -2
BITMAP
00000169400000
00007FABF90000
0007E4001B9000
002D06FF90B800
00B0BE55BD1E00
0287915507C780
0B1E1FEBE4B5D0
0D74B8006D2CB0
28A2D2BE474E34
35C71F56E1D71C
728D380028B28D
A35CA0000E35CA
D728D0000729CA
D735C0000328DA
D635C0000368D6
D735C0000728CA
D728D0000A35CA
A35CB0001D728D
728E2D0078A35C
35D74BABE2C728
2CB1D1A90B5D34
0D387D41BC38A0
074E0BFF91E1C0
02D2E0141B8740
00B46FAAF92D00
001E41AA41F400
0002F9006F8000
00002BFFE40000
00000054000000
ENDCHAR
STARTCHAR Obreve
ENCODING 334
SWIDTH 933 0
DWIDTH 34 0
BBX 32 39 1 -2
BITMAP
0000055008800000
0000067468C00000
0000035A92400000
000000A55E000000
0000001AA4000000
0000000000000000
0000001550000000
000006FFFF900000
00007E4001B90000
0007D06AA90B8000
001E1BE96BE0B400
00B4B905407D2D00
01D3D1BFFE478B00
074E1F9006E1E280
0A28781AA47C74D0
1CB1D2FAAF4B1C70
28D74B4002D38A34
72CA2C000075D728
639D7000001CA35C
A368E000000D728D
D728C000000A35C9
D735C000000729CA
D635C000000729CA
D735C000000725CA
D728C000000A35C9
A368A000000D728D
738D7400002CA35C
75CA2C000075D728
28D38B4002D38E34
1C71E1FAAE4B1CB0
0A2C781A947874D0
074E1B9016E1E280
01D2D1BFFE0B4B00
0074B90101BD2C00
001E0BEAAFD1E000
0007D06AA51B8000
00007E5005B90000
000006FFFE900000
0000000540000000
ENDCHAR
STARTCHAR obreve
ENCODING 335
SWIDTH 833 0
DWIDTH 30 0
BBX 28 35 1 -2
BITMAP
00005500440000
000073468C0000
000028AA280000
00000A55E00000
000001AA400000
00000000000000
00000169400000
00007FABF90000
0007E4001B9000
002D06FF90B800
00B0BE55BD1E00
0287915507C780
0B1E1FEBE4B5D0
0D74B8006D2CB0
28A2D2BE474E34
35C71F56E1D71C
728D380028B28D
A35CA0000E35CA
D728D0000729CA
D735C0000328DA
D635C0000368D6
D735C0000728CA
D728D0000A35CA
A35CB0001D728D
728E2D0078A35C
35D74BABE2C728
2CB1D1A90B5D34
0D387D41BC38A0
074E0BFF91E1C0
02D2E0141B8740
00B46FAAF92D00
001E41AA41F400
0002F9006F8000
00002BFFE40000
00000054000000
ENDCHAR
STARTCHAR Ohungarumlaut
ENCODING 336
SWIDTH 933 0
DWIDTH 34 0
BBX 34 43 1 -2
BITMAP
000000007800001A00
00000007E00001B800
0000007E0B801B81E0
000007D0BD01F81F40
00007D0BD01F82F400
0007D0B901F82F4000
00010B900042F40000
00007900001F400000
000010000004000000
000000000000000000
000000155000000000
000006FFFF90000000
00007E4001B9000000
0007D06AA90B800000
001E1BE96BE0B40000
00B4B905407D2D0000
01D3D1BFFE478B0000
074E1F9006E1E28000
0A28781AA47C74D000
1CB1D2FAAF4B1C7000
28D74B4002D38A3400
72CA2C000075D72800
639D7000001CA35C00
A368E000000D728D00
D728C000000A35C900
D735C000000729CA00
D635C000000729CA00
D735C000000725CA00
D728C000000A35C900
A368A000000D728D00
738D7400002CA35C00
75CA2C000075D72800
28D38B4002D38E3400
1C71E1FAAE4B1CB000
0A2C781A947874D000
074E1B9016E1E28000
01D2D1BFFE0B4B0000
0074B90101BD2C0000
001E0BEAAFD1E00000
0007D06AA51B800000
00007E5005B9000000
000006FFFE90000000
000000054000000000
ENDCHAR
STARTCHAR ohungarumlaut
ENCODING 337
SWIDTH 833 0
DWIDTH 30 0
BBX 32 39 1 -2
BITMAP
00000006800001A0
0000007E00001B80
000007E0B801B81E
00007E0BD01B81F4
0007E0BD01F81F40
007D0BD01F82F400
0010B900042F4000
0007900001F40000
0001000000400000
0000000000000000
0000016940000000
00007FABF9000000
0007E4001B900000
002D06FF90B80000
00B0BE55BD1E0000
0287915507C78000
0B1E1FEBE4B5D000
0D74B8006D2CB000
28A2D2BE474E3400
35C71F56E1D71C00
728D380028B28D00
A35CA0000E35CA00
D728D0000729CA00
D735C0000328DA00
D635C0000368D600
D735C0000728CA00
D728D0000A35CA00
A35CB0001D728D00
728E2D0078A35C00
35D74BABE2C72800
2CB1D1A90B5D3400
0D387D41BC38A000
074E0BFF91E1C000
02D2E0141B874000
00B46FAAF92D0000
001E41AA41F40000
0002F9006F800000
00002BFFE4000000
0000005400000000
ENDCHAR
STARTCHAR OE
ENCODING 338
SWIDTH 1317 0
DWIDTH 47 0
BBX 45 33 1 -2
BITMAP
000000155000000000000000
000006FFFF90000000000000
00007E4005B929CBFFFFFFC0
0007D06AA90B69CA00000000
001D1BE96BD169CBAAAAAA80
00B4B905407D29CBAAAAAA80
01D3D1BFFE4B69CA00000000
074E1F9006E1A9CBFFFFFFC0
0A28781AA47829CA55555540
1CB1D2FAAE4A29CA00000000
38D74B4002D2A9CA00000000
72CA28000075A9CA00000000
A35C7000002C69CA00000000
A368D000000D29CBAAA40000
D729C000000A29CAAAA40000
D735C000000729CA55500000
D635C000000729CBFFF80000
D735C000000729CA00000000
D728C000000A29CBAAA40000
A368E000000D29CBAAA40000
639D7400002C69CA00000000
71CA2C000075A9CA00000000
28D38B4002D3A9CA00000000
1C71D1FAAE4A29CA00000000
0A28781A947829CA55555540
074E1B9016D1A9CBFFFFFFC0
01D2D1BFFA0B69CA00000000
0074B90100BD29CBAAAAAA80
001E0BEAAFD169CA55555540
0007D06AA41B69CA55555540
00007E5006B929CBFFFFFFC0
000006FFFE80000000000000
000000054000000000000000
ENDCHAR
STARTCHAR oe
ENCODING 339
SWIDTH 1174 0
DWIDTH 42 0
BBX 40 29 1 -2
BITMAP
00000169400000000000
00007FAAF91441555555
0007E4001BA8D7FFFFFF
002D06FF9068D6000000
00B0BE55BE28D7AAAAAA
0287915507A8D7555555
0B1E1FEBE4A8D6555555
0D74B8006D28D7FFFFFF
28A2D2BE4768D6000000
35C71F56E1A8D6000000
728D38002868D6000000
A35CA0000E28D7FFFFFC
D728D0000728D7555554
D735C0000328D7555554
D635C0000368D7FFFFFC
D735C0000728D6000000
D728D0000A28D7AAAAA8
A35CB0001D28D7555554
728E2D0078A8D6000000
35D74BABE2A8D6000000
2CB1D1A90B68D7555555
0D387D41BD28D7FFFFFE
074E0BFF91A8D6000000
02D2E0101BA8D7AAAAAA
00B46FAAF928D7555555
001E41AA41A8D6555555
0002F9006FA8D7FFFFFF
00002BFFE40000000000
00000054000000000000
ENDCHAR
STARTCHAR Racute
ENCODING 340
SWIDTH 843 0
DWIDTH 30 0
BBX 29 41 1 0
BITMAP
0000000078000000
00000007E0000000
0000007E0B800000
000007D0BD000000
00007D0BD0000000
0007D0B900000000
00010B9000000000
0000790000000000
0000100000000000
0000000000000000
0000000000000000
0000000000000000
7FFFFFFFFF900000
7000000005BD0000
71AAAAAAA90B8000
72AAAAAAABE1E000
72400000006D7400
725FFFFFFE4B1C00
725D555556E28A00
725C6AAAA475D700
725CBAAAAF1CA300
725CA000028CA340
725CA000028DA340
725CA000075CA340
725CABFFFE28D700
725CA5555075CB00
725CA5555AD38D00
725CAAAAAA0A2C00
725CA00001B87400
725CABFFFFD1E000
725CA555541B8000
725CA55556BD0000
725CABFFFEDA0000
725CA0035CD70000
725CA0028DA34000
725CA001CA728000
725CA000D735C000
725CA000A368D000
725CA000729CA000
725CA00035CD7000
725CA00028DA3400
ENDCHAR
STARTCHAR Rcommaaccent
ENCODING 342
SWIDTH 843 0
DWIDTH 30 0
BBX 29 42 1 -13
BITMAP
7FFFFFFFFF900000
7000000005BD0000
71AAAAAAA90B8000
72AAAAAAABE1E000
72400000006D7400
725FFFFFFE4B1C00
725D555556E28A00
725C6AAAA475D700
725CBAAAAF1CA300
725CA000028CA340
725CA000028DA340
725CA000075CA340
725CABFFFE28D700
725CA5555075CB00
725CA5555AD38D00
725CAAAAAA0A2C00
725CA00001B87400
725CABFFFFD1E000
725CA555541B8000
725CA55556BD0000
725CABFFFEDA0000
725CA0035CD70000
725CA0028DA34000
725CA001CA728000
725CA000D735C000
725CA000A368D000
725CA000729CA000
725CA00035CD7000
725CA00028DA3400
0000000000000000
0000051140000000
00000A3580000000
00000A3580000000
00000A3580000000
00000A3580000000
0000053580000000
0000003680000000
000000B280000000
000007D340000000
0000050B00000000
000005BD00000000
00000BA000000000
ENDCHAR
STARTCHAR rcommaaccent
ENCODING 343
SWIDTH 831 0
DWIDTH 30 0
BBX 28 39 1 -13
BITMAP
15555555540000
7FFFFFFFFFE000
70000000006D00
72AAAAAAAA4780
729555555AE0E0
72455555542D74
725FFFFFFF4B2C
725C000001E38D
725CAAAAA875CA
725CAAAAAB28DA
725CA0000328DA
725CA6AAAB28CA
725CAAAAA875CA
725CA00006E38D
725CABFFFF4B2C
725CA155502D74
725CA6AAAAE1E0
725CAAAAAA4780
725CA000017E00
725CABFFFFF800
725CA55E775C00
725CA00A36CE00
725CA00368DB00
725CA0029CA340
725CA001CD7280
725CA000D735C0
00000000000000
00000451000000
00001CA3000000
00001CA3000000
00001CA3000000
00001CA3000000
000008A3000000
000000A7000000
000001D7000000
00001F8A000000
0000041D000000
000005B8000000
00001E90000000
ENDCHAR
STARTCHAR Rcaron
ENCODING 344
SWIDTH 843 0
DWIDTH 30 0
BBX 29 41 1 0
BITMAP
0096062400000000
00A34D3400000000
00729CA000000000
003568D000000000
002835C000000000
000D728000000000
000AE34000000000
0007CA0000000000
0003890000000000
0000000000000000
0000000000000000
0000000000000000
7FFFFFFFFF900000
7000000005BD0000
71AAAAAAA90B8000
72AAAAAAABE1E000
72400000006D7400
725FFFFFFE4B1C00
725D555556E28A00
725C6AAAA475D700
725CBAAAAF1CA300
725CA000028CA340
725CA000028DA340
725CA000075CA340
725CABFFFE28D700
725CA5555075CB00
725CA5555AD38D00
725CAAAAAA0A2C00
725CA00001B87400
725CABFFFFD1E000
725CA555541B8000
725CA55556BD0000
725CABFFFEDA0000
725CA0035CD70000
725CA0028DA34000
725CA001CA728000
725CA000D735C000
725CA000A368D000
725CA000729CA000
725CA00035CD7000
725CA00028DA3400
ENDCHAR
STARTCHAR rcaron
ENCODING 345
SWIDTH 831 0
DWIDTH 30 0
BBX 28 37 1 0
BITMAP
00002181890000
000028D35D0000
00001CA7280000
00000D5A340000
00000A0D700000
0000071CA00000
000002B8D00000
000001F2800000
000000E3400000
00000000000000
00000000000000
15555555540000
7FFFFFFFFFE000
70000000006D00
72AAAAAAAA4780
729555555AE0E0
72455555542D74
725FFFFFFF4B2C
725C000001E38D
725CAAAAA875CA
725CAAAAAB28DA
725CA0000328DA
725CA6AAAB28CA
725CAAAAA875CA
725CA00006E38D
725CABFFFF4B2C
725CA155502D74
725CA6AAAAE1E0
725CAAAAAA4780
725CA000017E00
725CABFFFFF800
725CA55E775C00
725CA00A36CE00
725CA00368DB00
725CA0029CA340
725CA001CD7280
725CA000D735C0
ENDCHAR
STARTCHAR Sacute
ENCODING 346
SWIDTH 682 0
DWIDTH 25 0
BBX 23 43 1 -2
BITMAP
000000000680
000000006E40
00000006E07C
0000006E07E0
000006E07D00
00007E07D000
000010BD0000
000007D00000
000001000000
000000000000
000015500000
000BFFFF9000
00BE4001BE00
02D16AA906D0
0B0BA56BE474
1C7905506E00
34E1FFFE4240
728B4005B400
A35D1AA91000
D728F9AB4000
D735C0000000
D728D0000000
A728BFFA4000
A35D055AE400
72C7A5506D00
38E1AAFF4B40
1D3D0002E2C0
0B4BFFE874D0
02E0555F1CA0
007E95428D70
0006AFF5CA34
00000028D634
00000028D634
000FAAB5CA34
00416A828D70
00B9405F1CB0
091AFFF874D0
47D00502E2C0
E07FAAAF4B40
2E41AA946D00
06E94016E000
006BFFFE4000
000015400000
ENDCHAR
STARTCHAR sacute
ENCODING 347
SWIDTH 683 0
DWIDTH 25 0
BBX 23 38 1 -1
BITMAP
000000000680
000000006E40
00000006E07C
0000006E07E0
000006E07D00
00007E07D000
000010BD0000
000007D00000
000001000000
000000000000
000000000000
0005BFFA4000
007E955AF900
02D015541B80
0E0BFFFF91B4
28790001BD14
71D1AFE90740
A34B955BE000
972800006400
D72400000000
972D00000000
A34BFFAA4000
71D0555AF400
287E55501E00
0E06FFFF8380
02E40001B4E0
006FEAA91C70
0001556B8A34
00000001D734
00000000D724
00E40002CA34
052FEABE5D70
0B805A5078A0
A1BA555BD2C0
7916FFF90B40
0BD40001B900
007FEAAF9000
00016A940000
ENDCHAR
STARTCHAR Scircumflex
ENCODING 348
SWIDTH 682 0
DWIDTH 25 0
BBX 23 43 1 -2
BITMAP
000028900000
00007CA00000
0000AD700000
0000DB280000
0001C35C0000
0003468D0000
000729CA0000
000A34D70000
000970624000
000000000000
000015500000
000BFFFF9000
00BE4001BE00
02D16AA906D0
0B0BA56BE474
1C7905506E00
34E1FFFE4240
728B4005B400
A35D1AA91000
D728F9AB4000
D735C0000000
D728D0000000
A728BFFA4000
A35D055AE400
72C7A5506D00
38E1AAFF4B40
1D3D0002E2C0
0B4BFFE874D0
02E0555F1CA0
007E95428D70
0006AFF5CA34
00000028D634
00000028D634
000FAAB5CA34
00416A828D70
00B9405F1CB0
091AFFF874D0
47D00502E2C0
E07FAAAF4B40
2E41AA946D00
06E94016E000
006BFFFE4000
000015400000
ENDCHAR
STARTCHAR scircumflex
ENCODING 349
SWIDTH 683 0
DWIDTH 25 0
BBX 23 38 1 -1
BITMAP
000028900000
00007CA00000
0000AD740000
0000D7280000
0001C35C0000
0002868D0000
000729CA0000
000A34D70000
000970624000
000000000000
000000000000
0005BFFA4000
007E955AF900
02D015541B80
0E0BFFFF91B4
28790001BD14
71D1AFE90740
A34B955BE000
972800006400
D72400000000
972D00000000
A34BFFAA4000
71D0555AF400
287E55501E00
0E06FFFF8380
02E40001B4E0
006FEAA91C70
0001556B8A34
00000001D734
00000000D724
00E40002CA34
052FEABE5D70
0B805A5078A0
A1BA555BD2C0
7916FFF90B40
0BD40001B900
007FEAAF9000
00016A940000
ENDCHAR
STARTCHAR Scedilla
ENCODING 350
SWIDTH 682 0
DWIDTH 25 0
BBX 23 44 1 -13
BITMAP
000015500000
000BFFFF9000
00BE4001BE00
02D16AA906D0
0B0BA56BE474
1C7905506E00
34E1FFFE4240
728B4005B400
A35D1AA91000
D728F9AB4000
D735C0000000
D728D0000000
A728BFFA4000
A35D055AE400
72C7A5506D00
38E1AAFF4B40
1D3D0002E2C0
0B4BFFE874D0
02E0555F1CA0
007E95428D70
0006AFF5CA34
00000028D634
00000028D634
000FAAB5CA34
00416A828D70
00B9405F1CB0
091AFFF874D0
47D00502E2C0
E07FAAAF4B40
2E41AA946D00
06E94016E000
006BFFFE4000
00003DD00000
0001B8C00000
000F50C00000
002816C00000
0034FA800000
0035C0000000
003580000000
0035D5400000
00287FC00000
001D00000000
0007FA800000
00005A800000
ENDCHAR
STARTCHAR scedilla
ENCODING 351
SWIDTH 683 0
DWIDTH 25 0
BBX 23 38 1 -12
BITMAP
0005BFFA4000
007E955AF900
02D015541B80
0E0BFFFF91B4
28790001BD14
71D1AFE90740
A34B955BE000
972800006400
D72400000000
972D00000000
A34BFFAA4000
71D0555AF400
287E55501E00
0E06FFFF8380
02E40001B4E0
006FEAA91C70
0001556B8A34
00000001D734
00000000D724
00E40002CA34
052FEABE5D70
0B805A5078A0
A1BA555BD2C0
7916FFF90B40
0BD40001B900
007FEABF9000
00017EE40000
0001B8D00000
000F50D00000
002C16D00000
0034FA800000
0035C0000000
0035C0000000
0035D5400000
00286FD00000
001D00000000
0007FA800000
00005A800000
ENDCHAR
STARTCHAR Scaron
ENCODING 352
SWIDTH 682 0
DWIDTH 25 0
BBX 23 43 1 -2
BITMAP
000924618000
000728A34000
00035CD70000
000289CA0000
0001C28D0000
0000D75C0000
00007A380000
00003D700000
00002CA00000
000000000000
000015500000
000BFFFF9000
00BE4001BE00
02D16AA906D0
0B0BA56BE474
1C7905506E00
34E1FFFE4240
728B4005B400
A35D1AA91000
D728F9AB4000
D735C0000000
D728D0000000
A728BFFA4000
A35D055AE400
72C7A5506D00
38E1AAFF4B40
1D3D0002E2C0
0B4BFFE874D0
02E0555F1CA0
007E95428D70
0006AFF5CA34
00000028D634
00000028D634
000FAAB5CA34
00416A828D70
00B9405F1CB0
091AFFF874D0
47D00502E2C0
E07FAAAF4B40
2E41AA946D00
06E94016E000
006BFFFE4000
000015400000
ENDCHAR
STARTCHAR scaron
ENCODING 353
SWIDTH 683 0
DWIDTH 25 0
BBX 23 38 1 -1
BITMAP
000924618000
000728A34000
00035CD70000
000289CA0000
0001C28D0000
0000D75C0000
00007A380000
00003D700000
00002CA00000
000000000000
000000000000
0005BFFA4000
007E955AF900
02D015541B80
0E0BFFFF91B4
28790001BD14
71D1AFE90740
A34B955BE000
972800006400
D72400000000
972D00000000
A34BFFAA4000
71D0555AF400
287E55501E00
0E06FFFF8380
02E40001B4E0
006FEAA91C70
0001556B8A34
00000001D734
00000000D724
00E40002CA34
052FEABE5D70
0B805A5078A0
A1BA555BD2C0
7916FFF90B40
0BD40001B900
007FEAAF9000
00016A940000
ENDCHAR
STARTCHAR Tcommaaccent
ENCODING 354
SWIDTH 591 0
DWIDTH 21 0
BBX 19 41 1 -12
BITMAP
FFFFFFFFFC
0000000000
AAAAAAAAA8
AAAAAAAAA8
0000000000
FFFFFFFFFC
5579DE7554
0035C97000
0035C97000
0035C97000
0035C97000
0035C97000
0035C97000
0035C97000
0035C97000
0035C97000
0035C97000
0035C97000
0035C97000
0035C97000
0035C97000
0035C97000
0035C97000
0035C97000
0035C97000
0035C97000
0035C97000
0035C97000
0035CE7000
0001C90000
001BC90000
00B9490000
01D16D0000
028BA90000
028D000000
028C000000
028E540000
01C6FD0000
00E0000000
007FA90000
0005690000
ENDCHAR
STARTCHAR tcommaaccent
ENCODING 355
SWIDTH 588 0
DWIDTH 21 0
BBX 19 38 1 -12
BITMAP
5555555554
FFFFFFFFFC
0000000000
AAAAAAAAA8
5555555554
5555555554
FFFFFFFFFC
0010441000
0035C97000
0035C97000
0035C97000
0035C97000
0035C97000
0035C97000
0035C97000
0035C97000
0035C97000
0035C97000
0035C97000
0035C97000
0035C97000
0035C97000
0035C97000
0035C97000
0035C97000
0035CD7000
0001C90000
001BC90000
00B9490000
01D16D0000
028BA90000
028D000000
028C000000
028E540000
01C6FD0000
00E0000000
007FA90000
0005690000
ENDCHAR
STARTCHAR Tcaron
ENCODING 356
SWIDTH 591 0
DWIDTH 21 0
BBX 19 41 1 0
BITMAP
0052421800
00728B2800
0035CD7000
00289CA000
001C28D000
000A35C000
0007B28000
0003D74000
0002CA0000
0000000000
0000000000
0000000000
FFFFFFFFFC
0000000000
AAAAAAAAA8
AAAAAAAAA8
0000000000
FFFFFFFFFC
5579DE7554
0035C97000
0035C97000
0035C97000
0035C97000
0035C97000
0035C97000
0035C97000
0035C97000
0035C97000
0035C97000
0035C97000
0035C97000
0035C97000
0035C97000
0035C97000
0035C97000
0035C97000
0035C97000
0035C97000
0035C97000
0035C97000
0035C97000
ENDCHAR
STARTCHAR tcaron
ENCODING 357
SWIDTH 842 0
DWIDTH 30 0
BBX 28 27 1 0
BITMAP
00000000000451
55555555541CA7
FFFFFFFFFC1CA7
00000000001CA7
AAAAAAAAA81CA7
555555555418A7
555555555400A7
FFFFFFFFFC01D7
00104410001F8A
0035C97000051D
0035C9700005B8
0035C970001F90
0035C970000000
0035C970000000
0035C970000000
0035C970000000
0035C970000000
0035C970000000
0035C970000000
0035C970000000
0035C970000000
0035C970000000
0035C970000000
0035C970000000
0035C970000000
0035C970000000
0035C970000000
ENDCHAR
STARTCHAR Tbar
ENCODING 358
SWIDTH 591 0
DWIDTH 21 0
BBX 19 29 1 0
BITMAP
FFFFFFFFFC
0000000000
AAAAAAAAA8
AAAAAAAAA8
0000000000
FFFFFFFFFC
5579DE7554
0035C97000
0035C97000
0035C97000
0035C97000
AA75C976A8
5575C97154
5535C97154
FF75C977FC
0035C97000
AA75C976A8
6A75C972A4
0035C97000
0035C97000
0035C97000
0035C97000
0035C97000
0035C97000
0035C97000
0035C97000
0035C97000
0035C97000
0035C97000
ENDCHAR
STARTCHAR tbar
ENCODING 359
SWIDTH 588 0
DWIDTH 21 0
BBX 19 26 1 0
BITMAP
5555555554
FFFFFFFFFC
0000000000
AAAAAAAAA8
5555555554
5555555554
FFFFFFFFFC
0010441000
0035C97000
0035C97000
0035C97000
0035C97000
0035C97000
FF75C977FC
5535C97154
6A75C972A4
AA75C976A8
0035C97000
FF75C977FC
5535C97154
0035C97000
0035C97000
0035C97000
0035C97000
0035C97000
0035C97000
ENDCHAR
STARTCHAR Utilde
ENCODING 360
SWIDTH 905 0
DWIDTH 33 0
BBX 30 41 1 -2
BITMAP
00006AAAA9096000
000BEAAAA90D7000
002D0000002CA000
0034BFFFFFF4A000
0072D5555542C000
006342AAAAAF4000
006242AAAAA40000
0000000000000000
0000000000000000
0000000000000000
A358D0000035C970
A358D0000035C970
A358D0000035C970
A358D0000035C970
A358D0000035C970
A358D0000035C970
A358D0000035C970
A358D0000035C970
A358D0000035C970
A358D0000035C970
A358D0000035C970
A358D0000035C970
A358D0000035C970
A358D0000035C970
A358D0000035C970
A358D0000035C970
A358D0000035CD70
635CA00000358D70
728D700000B28DA0
35CA380001D75CA0
28D75E40078A38D0
1CA2D2EABD2C72C0
0E38B45A90B5D340
075E1F501B878A00
02C781BFF91E2C00
00B0B80101B4B400
002D1BEAAF82D000
000B906AA42E0000
0001BE4016F40000
00000AFFFE400000
0000000540000000
ENDCHAR
STARTCHAR utilde
ENCODING 361
SWIDTH 795 0
DWIDTH 29 0
BBX 26 37 1 -2
BITMAP
0006AAAA905200
00BEAAAA90D700
01D0000002C600
034BFFFFFF4A00
071D5555541C00
07282AAAAAF400
06242AAAAA4000
00000000000000
00000000000000
51044000104510
A368D00029CA30
A368D00029CA30
A368D00029CA30
A368D00029CA30
A368D00029CA30
A368D00029CA30
A368D00029CA30
A368D00029CA30
A368D00029CA30
A368D00029CA30
A368D00029CA30
A368D00029CA30
A368D00029CA30
A358D00029CA30
A35CD00035CA70
735CA000718D70
728D3801E34DA0
35C75FAB8B28D0
28A2D1A92D75C0
0D38B905F4E280
071E1BFF878B00
0287D0102E1D00
00B4BEAAF47400
002E06A946D000
0007E4016E0000
00006FFFA00000
00000050000000
ENDCHAR
STARTCHAR Umacron
ENCODING 362
SWIDTH 905 0
DWIDTH 33 0
BBX 30 31 1 -2
BITMAP
A358D0000035C970
A358D0000035C970
A358D0000035C970
A358D0000035C970
A358D0000035C970
A358D0000035C970
A358D0000035C970
A358D0000035C970
A358D0000035C970
A358D0000035C970
A358D0000035C970
A358D0000035C970
A358D0000035C970
A358D0000035C970
A358D0000035C970
A358D0000035C970
A358D0000035CD70
635CA00000358D70
728D700000B28DA0
35CA380001D75CA0
28D75E40078A38D0
1CA2D2EABD2C72C0
0E38B45A90B5D340
075E1F501B878A00
02C781BFF91E2C00
00B0B80101B4B400
002D1BEAAF82D000
000B906AA42E0000
0001BE4016F40000
00000AFFFE400000
0000000540000000
ENDCHAR
STARTCHAR umacron
ENCODING 363
SWIDTH 795 0
DWIDTH 29 0
BBX 26 28 1 -2
BITMAP
51044000104510
A368D00029CA30
A368D00029CA30
A368D00029CA30
A368D00029CA30
A368D00029CA30
A368D00029CA30
A368D00029CA30
A368D00029CA30
A368D00029CA30
A368D00029CA30
A368D00029CA30
A368D00029CA30
A368D00029CA30
A358D00029CA30
A35CD00035CA70
735CA000718D70
728D3801E34DA0
35C75FAB8B28D0
28A2D1A92D75C0
0D38B905F4E280
071E1BFF878B00
0287D0102E1D00
00B4BEAAF47400
002E06A946D000
0007E4016E0000
00006FFFA00000
00000050000000
ENDCHAR
STARTCHAR Ubreve
ENCODING 364
SWIDTH 905 0
DWIDTH 33 0
BBX 30 39 1 -2
BITMAP
0000088015400000
00000DA476400000
0000061A97000000
000002D568000000
0000006A90000000
0000000000000000
0000000000000000
0000000000000000
A358D0000035C970
A358D0000035C970
A358D0000035C970
A358D0000035C970
A358D0000035C970
A358D0000035C970
A358D0000035C970
A358D0000035C970
A358D0000035C970
A358D0000035C970
A358D0000035C970
A358D0000035C970
A358D0000035C970
A358D0000035C970
A358D0000035C970
A358D0000035C970
A358D0000035CD70
635CA00000358D70
728D700000B28DA0
35CA380001D75CA0
28D75E40078A38D0
1CA2D2EABD2C72C0
0E38B45A90B5D340
075E1F501B878A00
02C781BFF91E2C00
00B0B80101B4B400
002D1BEAAF82D000
000B906AA42E0000
0001BE4016F40000
00000AFFFE400000
0000000540000000
ENDCHAR
STARTCHAR ubreve
ENCODING 365
SWIDTH 795 0
DWIDTH 29 0
BBX 26 35 1 -2
BITMAP
00008801540000
0000DA47640000
000071B9700000
00001E56C00000
000002A9000000
00000000000000
00000000000000
51044000104510
A368D00029CA30
A368D00029CA30
A368D00029CA30
A368D00029CA30
A368D00029CA30
A368D00029CA30
A368D00029CA30
A368D00029CA30
A368D00029CA30
A368D00029CA30
A368D00029CA30
A368D00029CA30
A368D00029CA30
A358D00029CA30
A35CD00035CA70
735CA000718D70
728D3801E34DA0
35C75FAB8B28D0
28A2D1A92D75C0
0D38B905F4E280
071E1BFF878B00
0287D0102E1D00
00B4BEAAF47400
002E06A946D000
0007E4016E0000
00006FFFA00000
00000050000000
ENDCHAR
STARTCHAR Uring
ENCODING 366
SWIDTH 905 0
DWIDTH 33 0
BBX 30 44 1 -2
BITMAP
0000000500000000
0000007AE0000000
000001852C000000
0000032EDA000000
0000066077000000
00000A9033000000
0000066067000000
0000032EDA000000
000001D028000000
0000006FE0000000
0000000000000000
0000000000000000
0000000000000000
A358D0000035C970
A358D0000035C970
A358D0000035C970
A358D0000035C970
A358D0000035C970
A358D0000035C970
A358D0000035C970
A358D0000035C970
A358D0000035C970
A358D0000035C970
A358D0000035C970
A358D0000035C970
A358D0000035C970
A358D0000035C970
A358D0000035C970
A358D0000035C970
A358D0000035CD70
635CA00000358D70
728D700000B28DA0
35CA380001D75CA0
28D75E40078A38D0
1CA2D2EABD2C72C0
0E38B45A90B5D340
075E1F501B878A00
02C781BFF91E2C00
00B0B80101B4B400
002D1BEAAF82D000
000B906AA42E0000
0001BE4016F40000
00000AFFFE400000
0000000540000000
ENDCHAR
STARTCHAR uring
ENCODING 367
SWIDTH 795 0
DWIDTH 29 0
BBX 26 41 1 -2
BITMAP
00000050000000
000007AE000000
00001D51C00000
000032EDA00000
00006607300000
00006A03300000
00006607300000
000036EDA00000
00001D02800000
000006FE000000
00000000000000
00000000000000
00000000000000
51044000104510
A368D00029CA30
A368D00029CA30
A368D00029CA30
A368D00029CA30
A368D00029CA30
A368D00029CA30
A368D00029CA30
A368D00029CA30
A368D00029CA30
A368D00029CA30
A368D00029CA30
A368D00029CA30
A368D00029CA30
A358D00029CA30
A35CD00035CA70
735CA000718D70
728D3801E34DA0
35C75FAB8B28D0
28A2D1A92D75C0
0D38B905F4E280
071E1BFF878B00
0287D0102E1D00
00B4BEAAF47400
002E06A946D000
0007E4016E0000
00006FFFA00000
00000050000000
ENDCHAR
STARTCHAR Uhungarumlaut
ENCODING 368
SWIDTH 905 0
DWIDTH 33 0
BBX 34 43 1 -2
BITMAP
00000001B000002D00
0000001B900002E400
000001B91B002E46D0
00001B91F806E46E40
0001B91F806E46E000
000B91F802E46E0000
00041F800147E00000
0000F400002E000000
000040000000000000
000000000000000000
000000000000000000
000000000000000000
A358D0000035C97000
A358D0000035C97000
A358D0000035C97000
A358D0000035C97000
A358D0000035C97000
A358D0000035C97000
A358D0000035C97000
A358D0000035C97000
A358D0000035C97000
A358D0000035C97000
A358D0000035C97000
A358D0000035C97000
A358D0000035C97000
A358D0000035C97000
A358D0000035C97000
A358D0000035C97000
A358D0000035CD7000
635CA00000358D7000
728D700000B28DA000
35CA380001D75CA000
28D75E40078A38D000
1CA2D2EABD2C72C000
0E38B45A90B5D34000
075E1F501B878A0000
02C781BFF91E2C0000
00B0B80101B4B40000
002D1BEAAF82D00000
000B906AA42E000000
0001BE4016F4000000
00000AFFFE40000000
000000054000000000
ENDCHAR
STARTCHAR uhungarumlaut
ENCODING 369
SWIDTH 795 0
DWIDTH 29 0
BBX 32 39 1 -2
BITMAP
0000000B000002D0
000001B900002E40
00001B91B002E46D
0001B91B802E46E4
001B91F806E46E40
00B91F802E46E000
0051F800146E0000
000F800002E00000
0004000000000000
0000000000000000
0000000000000000
5104400010451000
A368D00029CA3000
A368D00029CA3000
A368D00029CA3000
A368D00029CA3000
A368D00029CA3000
A368D00029CA3000
A368D00029CA3000
A368D00029CA3000
A368D00029CA3000
A368D00029CA3000
A368D00029CA3000
A368D00029CA3000
A368D00029CA3000
A358D00029CA3000
A35CD00035CA7000
735CA000718D7000
728D3801E34DA000
35C75FAB8B28D000
28A2D1A92D75C000
0D38B905F4E28000
071E1BFF878B0000
0287D0102E1D0000
00B4BEAAF4740000
002E06A946D00000
0007E4016E000000
00006FFFA0000000
0000005000000000
ENDCHAR
STARTCHAR Uogonek
ENCODING 370
SWIDTH 905 0
DWIDTH 33 0
BBX 30 40 1 -11
BITMAP
A358D0000035C970
A358D0000035C970
A358D0000035C970
A358D0000035C970
A358D0000035C970
A358D0000035C970
A358D0000035C970
A358D0000035C970
A358D0000035C970
A358D0000035C970
A358D0000035C970
A358D0000035C970
A358D0000035C970
A358D0000035C970
A358D0000035C970
A358D0000035C970
A358D0000035CD70
635CA00000358D70
728D700000B28DA0
35CA380001D75CA0
28D75E40078A38D0
1CA2D2EABD2C72C0
0E38B45A90B5D340
075E1F501B878A00
02C781BFF91E2C00
00B0B80101B4B400
002D1BEAAF82D000
000B906AA42E0000
0001BE4116F40000
00000BFFFE400000
000003E540000000
00000B0640000000
00000D3E00000000
00000D7000000000
00000DA000000000
00000DA340000000
00000DA340000000
00000DA340000000
00000DA340000000
00000DA340000000
ENDCHAR
STARTCHAR uogonek
ENCODING 371
SWIDTH 794 0
DWIDTH 29 0
BBX 26 37 1 -11
BITMAP
51044000104510
A368D00029CA70
A368D00029CA70
A368D00029CA70
A368D00029CA70
A368D00029CA70
A368D00029CA70
A368D00029CA70
A368D00029CA70
A368D00029CA70
A368D00029CA70
A368D00029CA70
A368D00029CA70
A368D00029CA70
A368D00025CA70
A358D00035CA70
735CA000728D70
728D3801E35CA0
35C71FAB8B28D0
28A2D1A92D75C0
0D38B905F4E280
0B1E1BFF878B00
0287D0102E1D00
00B4BEAAF4B400
002E06A946D000
0007E4516E0000
00006FFFA00000
00007950000000
0000A0A0000000
0000D7A0000000
0001CA00000000
0001C900000000
0001C970000000
0001C970000000
0001C970000000
0001C970000000
0001C970000000
ENDCHAR
STARTCHAR Ycircumflex
ENCODING 374
SWIDTH 789 0
DWIDTH 28 0
BBX 27 41 1 0
BITMAP
00000249000000
000007CA000000
00000AD7000000
00000DA3800000
00001C35C00000
00003568D00000
0000729CA00000
0000A34D700000
0000D70A240000
00000000000000
00000000000000
00000000000000
CA3680001C9728
A368D00025CA70
328DA000725CA0
28CA34009729C0
1CA36801CA7280
0A728D029CA300
0728DA0728CA00
025CA34A328D00
01CA728CA36800
009728A8DA3400
00729C368DA000
0035CAA368D000
001C95DA358000
000D728D634000
00063758D70000
00035635CD0000
00018D735C0000
0000ECD7240000
0000B5C9700000
0000728CA00000
0000728CA00000
0000728CA00000
0000728CA00000
0000728CA00000
0000728CA00000
0000728CA00000
0000728CA00000
0000728CA00000
0000728CA00000
ENDCHAR
STARTCHAR ycircumflex
ENCODING 375
SWIDTH 733 0
DWIDTH 26 0
BBX 25 37 1 0
BITMAP
00000A24000000
00001F28000000
00002B5C000000
000036CA000000
000070D7000000
0000D5A3400000
0001CA72800000
00028D35C00000
00035C28900000
00000000000000
00000000000000
44114000411040
D635C001CD7240
A35CA0035C9700
35CD700725CA00
28D72809729C00
0D728D1CA72800
0635CA29CA3000
035CA3728CA000
018D74A728C000
00D729CA328000
00628A8CA34000
0035C328DA0000
0018AA368D0000
000D5DA3580000
000628D6340000
0003758D600000
0001E358D00000
0000D735C00000
0000D735C00000
0000D735C00000
0000D735C00000
0000D735C00000
0000D735C00000
0000D735C00000
0000D735C00000
0000D735C00000
ENDCHAR
STARTCHAR Ydieresis
ENCODING 376
SWIDTH 789 0
DWIDTH 28 0
BBX 27 37 1 0
BITMAP
00514401485000
00735C028DA000
00735C028DA000
00735C028DA000
00114401445000
00000000000000
00000000000000
00000000000000
CA3680001C9728
A368D00025CA70
328DA000725CA0
28CA34009729C0
1CA36801CA7280
0A728D029CA300
0728DA0728CA00
025CA34A328D00
01CA728CA36800
009728A8DA3400
00729C368DA000
0035CAA368D000
001C95DA358000
000D728D634000
00063758D70000
00035635CD0000
00018D735C0000
0000ECD7240000
0000B5C9700000
0000728CA00000
0000728CA00000
0000728CA00000
0000728CA00000
0000728CA00000
0000728CA00000
0000728CA00000
0000728CA00000
0000728CA00000
0000728CA00000
ENDCHAR
STARTCHAR Zacute
ENCODING 377
SWIDTH 854 0
DWIDTH 31 0
BBX 29 41 1 0
BITMAP
00000000001A0000
0000000001B80000
000000001F82E000
00000001F82F4000
0000001F82F40000
000001F82F400000
00000042F4000000
0000001E40000000
0000000400000000
0000000000000000
0000000000000000
0000000000000000
BFFFFFFFFFFFFF40
0000000000001F00
6AAAAAAAAAA0B800
6AAAAAAAAA87D240
00000000002E1E00
BFFFFFFFD1F4B800
155555550B87D240
6AAAAA907D2E1E00
6AAAAA82E1F4B800
0000001B4B87D240
000000B87D2E1E00
000006D2E1F4B400
00001E1F4B879000
0001B4B87D2D0000
000787D2E1E40000
002D2E1F4B800000
01E1B4B879000000
0B4B87D2E0000000
786D2E1E40000000
91E1F4B800000000
1B4B87D1BFFFFF40
787D2E0155555500
92E1F45555555500
1F4B82FFFFFFFF40
787D000000000000
92E1AAAAAAAAAA40
1F45555555555500
7955555555555500
BFFFFFFFFFFFFF40
ENDCHAR
STARTCHAR zacute
ENCODING 378
SWIDTH 714 0
DWIDTH 26 0
BBX 24 37 1 0
BITMAP
0000000001D0
000000002F40
00000002F46D
0000002F46E4
000002F46E40
00002E46E400
0000146E4000
000002E40000
000000000000
000000000000
000000000000
155555451450
BFFFFF9D74E1
00000038A2CA
6AAAA9B1C75D
6AAAA5D38E28
1555528B2C70
BFFFE75D34D0
00000E38A280
00002CB1D700
000075D38D00
0000E28B2C00
0002C71D7400
00074E38A000
000A2CB1C000
001D74D34000
0038E28A0000
00B2C75D0000
01D34E380000
038A2CB00000
0B1D74D55554
1D38E28FFFFD
28B1C7000000
75D34E6AAAA9
E38A2C555555
CB1D75555554
4D38E3FFFFFD
ENDCHAR
STARTCHAR Zdotaccent
ENCODING 379
SWIDTH 854 0
DWIDTH 31 0
BBX 29 38 1 0
BITMAP
000003FFD0000000
0000000000000000
000001AA90000000
000002AA90000000
0000000000000000
000003FFD0000000
0000015540000000
0000000000000000
0000000000000000
BFFFFFFFFFFFFF40
0000000000001F00
6AAAAAAAAAA0B800
6AAAAAAAAA87D240
00000000002E1E00
BFFFFFFFD1F4B800
155555550B87D240
6AAAAA907D2E1E00
6AAAAA82E1F4B800
0000001B4B87D240
000000B87D2E1E00
000006D2E1F4B400
00001E1F4B879000
0001B4B87D2D0000
000787D2E1E40000
002D2E1F4B800000
01E1B4B879000000
0B4B87D2E0000000
786D2E1E40000000
91E1F4B800000000
1B4B87D1BFFFFF40
787D2E0155555500
92E1F45555555500
1F4B82FFFFFFFF40
787D000000000000
92E1AAAAAAAAAA40
1F45555555555500
7955555555555500
BFFFFFFFFFFFFF40
ENDCHAR
STARTCHAR zdotaccent
ENCODING 380
SWIDTH 714 0
DWIDTH 26 0
BBX 24 35 1 0
BITMAP
00003FFD0000
000000000000
00002AA80000
00002AA80000
000000000000
00003FFD0000
000015540000
000000000000
000000000000
155555451450
BFFFFF9D74E1
00000038A2CA
6AAAA9B1C75D
6AAAA5D38E28
1555528B2C70
BFFFE75D34D0
00000E38A280
00002CB1D700
000075D38D00
0000E28B2C00
0002C71D7400
00074E38A000
000A2CB1C000
001D74D34000
0038E28A0000
00B2C75D0000
01D34E380000
038A2CB00000
0B1D74D55554
1D38E28FFFFD
28B1C7000000
75D34E6AAAA9
E38A2C555555
CB1D75555554
4D38E3FFFFFD
ENDCHAR
STARTCHAR Zcaron
ENCODING 381
SWIDTH 854 0
DWIDTH 31 0
BBX 29 41 1 0
BITMAP
0000258185000000
000028D28D000000
00001CA35C000000
00000D1A38000000
0000070D70000000
0000035CA0000000
000002A8D0000000
000001F5C0000000
000000A280000000
0000000000000000
0000000000000000
0000000000000000
BFFFFFFFFFFFFF40
0000000000001F00
6AAAAAAAAAA0B800
6AAAAAAAAA87D240
00000000002E1E00
BFFFFFFFD1F4B800
155555550B87D240
6AAAAA907D2E1E00
6AAAAA82E1F4B800
0000001B4B87D240
000000B87D2E1E00
000006D2E1F4B400
00001E1F4B879000
0001B4B87D2D0000
000787D2E1E40000
002D2E1F4B800000
01E1B4B879000000
0B4B87D2E0000000
786D2E1E40000000
91E1F4B800000000
1B4B87D1BFFFFF40
787D2E0155555500
92E1F45555555500
1F4B82FFFFFFFF40
787D000000000000
92E1AAAAAAAAAA40
1F45555555555500
7955555555555500
BFFFFFFFFFFFFF40
ENDCHAR
STARTCHAR zcaron
ENCODING 382
SWIDTH 714 0
DWIDTH 26 0
BBX 24 37 1 0
BITMAP
000618249000
00035C35C000
00028D728000
0001C4D74000
0000A1CA0000
0000728D0000
0000375C0000
00002F280000
00001D340000
000000000000
000000000000
155555451450
BFFFFF9D74E1
00000038A2CA
6AAAA9B1C75D
6AAAA5D38E28
1555528B2C70
BFFFE75D34D0
00000E38A280
00002CB1D700
000075D38D00
0000E28B2C00
0002C71D7400
00074E38A000
000A2CB1C000
001D74D34000
0038E28A0000
00B2C75D0000
01D34E380000
038A2CB00000
0B1D74D55554
1D38E28FFFFD
28B1C7000000
75D34E6AAAA9
E38A2C555555
CB1D75555554
4D38E3FFFFFD
ENDCHAR
STARTCHAR florin
ENCODING 402
SWIDTH 388 0
DWIDTH 14 0
BBX 12 34 1 -3
BITMAP
000055
0007FE
002D00
00A0AE
01C7A5
038D15
035CBE
0728D0
0728C0
0728C0
5728D4
B728DE
0728C0
A728D9
6728D9
1728C4
B728DE
0728C0
0728C0
0728C0
0728C0
0728C0
0728C0
0728C0
0728C0
0728C0
0729C0
AE35C0
54B280
56D340
BE4A00
007800
ABE000
650000
ENDCHAR
STARTCHAR uni01C4
ENCODING 452
SWIDTH 1740 0
DWIDTH 63 0
BBX 61 41 1 0
BITMAP
00000000000000000000258185000000
0000000000000000000028D28D000000
000000000000000000001CA75C000000
000000000000000000000D5A34000000
00000000000000000000070D70000000
00000000000000000000035CA0000000
0000000000000000000002A8D0000000
0000000000000000000001F5C0000000
0000000000000000000000E240000000
00000000000000000000000000000000
00000000000000000000000000000000
00000000000000000000000000000000
7FFFFFFFFE400000BFFFFFFFFFFFFF40
7000000016F800000000000000001F00
71AAAAAAA41F40006AAAAAAAAAA0B800
73AAAAAAAF92D0006AAAAAAAAA87D240
7340000001B8B40000000000002E1E00
735FFFFFF91E2C00BFFFFFFFD1F4B800
735D55555BC78E00155555550B879240
735C6AAA90B1D7006AAAAA907D2E1E00
735CBAAABD28A3806AAAAA82E1F4B800
735C9000074D75C00000001F4B879240
735C900001CB28D0000000B87D2E1E00
735C900000D728D0000006D2E1F4B400
735C900000A35CA000002E1F4B878000
735C900000735CA00001B4B87D2D0000
735C900000729CA0000B87D2E1E40000
735C900000725CA0006D2E1F4B400000
735C900000A35CA001E1F4B879000000
735C900000D728D01B4B87D2D0000000
735C900002CA39D0787D2E1E40000000
735C9000075D71C092E1F4B800000000
735CBFFFFD28A3801B4B8791BFFFFF40
735C555550A1C700787D2E0155555500
735D55555B874E0092E1F45555555500
735FFFFFF91E28001F4B86FFFFFFFF40
7340000001B4B000787D000000000000
73EAAAAABF82D00092E1AAAAAAAAAA40
71555555541E00001F45555555555500
7555555556F400007955555555555500
7FFFFFFFFE400000BFFFFFFFFFFFFF40
ENDCHAR
STARTCHAR uni01C5
ENCODING 453
SWIDTH 1601 0
DWIDTH 58 0
BBX 56 37 1 0
BITMAP
0000000000000000000614249000
000000000000000000035C35C000
000000000000000000028DB28000
00000000000000000001C4D70000
00000000000000000000A1CA0000
00000000000000000000728D0000
00000000000000000000375C0000
000000000000000000002F280000
7FFFFFFFFE40000000001D340000
7000000016F80000000000000000
71AAAAAAA41F4000000000000000
73AAAAAAAF92D000555555451450
7340000001B8B400BFFFFF9D74D1
735FFFFFF91E2C0000000038A2CA
735D55555BC78E006AAAA9B1C75C
735C6AAA90B1D7006AAAA5D34E28
735CBAAABD28A3801555528A2C70
735C9000074D75C0BFFFE71D74D0
735C900001CB28D000000D38A280
735C900000D728D000002CB1C700
735C900000A35CA0000075D38D00
735C900000735CA00000E28B2800
735C900000729CA00002C71D7400
735C900000725CA000074D38A000
735C900000A35CA0000A2CB1C000
735C900000D728D0001C75D34000
735C900002CA39D00038E28A0000
735C9000075D71C000B2C71D0000
735CBFFFFD28A38001D74E380000
735C555550A1C700038A2CB00000
735D55555B874E000B1C75D55554
735FFFFFF91E28001D38E28FFFFD
7340000001B4B00028B2C7000000
73EAAAAABF82D00075D34D6AAAA9
71555555541E0000E38A2C555555
7555555556F40000CB1D75555554
7FFFFFFFFE4000005D38E3FFFFFD
ENDCHAR
STARTCHAR Scommaaccent
ENCODING 536
SWIDTH 682 0
DWIDTH 25 0
BBX 23 46 1 -15
BITMAP
000015500000
000BFFFF9000
00BE4001BE00
02D16AA906D0
0B0BA56BE474
1C7905506E00
34E1FFFE4240
728B4005B400
A35D1AA91000
D728F9AB4000
D735C0000000
D728D0000000
A728BFFA4000
A35D055AE400
72C7A5506D00
38E1AAFF4B40
1D3D0002E2C0
0B4BFFE874D0
02E0555F1CA0
007E95428D70
0006AFF5CA34
00000028D634
00000028D634
000FAAB5CA34
00416A828D70
00B9405F1CB0
091AFFF874D0
47D00502E2C0
E07FAAAF4B40
2E41AA946D00
06E94016E000
006BFFFE4000
000015400000
000000000000
000045100000
0001CA300000
0001CA300000
0001CA300000
0001CA300000
00008A300000
00000A300000
00001D700000
0000F8700000
000041D00000
00005B800000
0001E9000000
ENDCHAR
STARTCHAR scommaaccent
ENCODING 537
SWIDTH 683 0
DWIDTH 25 0
BBX 23 40 1 -14
BITMAP
0005BFFA4000
007E955AF900
02D015541B80
0E0BFFFF91B4
28790001BD14
71D1AFE90740
A34B955BE000
972800006400
D72400000000
972D00000000
A34BFFAA4000
71D0555AF400
287E55501E00
0E06FFFF8380
02E40001B4E0
006FEAA91C70
0001556B8A34
00000001D734
00000000D724
00E40002CA34
052FEABE5D70
0B805A5078A0
A1BA555BD2C0
7916FFF90B40
0BD40001B900
007FEAAF9000
00016A940000
000000000000
000045100000
0000CA340000
0000CA340000
0000CA340000
0000CA340000
00008A340000
00000A340000
00001D300000
0000F8700000
000051E00000
00005B800000
0000E9000000
ENDCHAR
STARTCHAR uni021A
ENCODING 538
SWIDTH 591 0
DWIDTH 21 0
BBX 19 42 1 -13
BITMAP
FFFFFFFFFC
0000000000
AAAAAAAAA8
AAAAAAAAA8
0000000000
FFFFFFFFFC
5579DE7554
0035C97000
0035C97000
0035C97000
0035C97000
0035C97000
0035C97000
0035C97000
0035C97000
0035C97000
0035C97000
0035C97000
0035C97000
0035C97000
0035C97000
0035C97000
0035C97000
0035C97000
0035C97000
0035C97000
0035C97000
0035C97000
0035C97000
0000000000
0005114000
000A368000
000A368000
000A368000
000A368000
0005368000
0000328000
0000B28000
000BD34000
00050B0000
0005BD0000
000BA00000
ENDCHAR
STARTCHAR uni021B
ENCODING 539
SWIDTH 588 0
DWIDTH 21 0
BBX 19 39 1 -13
BITMAP
5555555554
FFFFFFFFFC
0000000000
AAAAAAAAA8
5555555554
5555555554
FFFFFFFFFC
0010441000
0035C97000
0035C97000
0035C97000
0035C97000
0035C97000
0035C97000
0035C97000
0035C97000
0035C97000
0035C97000
0035C97000
0035C97000
0035C97000
0035C97000
0035C97000
0035C97000
0035C97000
0035C97000
0000000000
0005114000
000A368000
000A368000
000A368000
000A368000
0005368000
0000328000
0000B28000
000BD34000
00050B0000
0005BD0000
000B900000
ENDCHAR
STARTCHAR uni0237
ENCODING 567
SWIDTH 393 0
DWIDTH 14 0
BBX 13 30 0 -4
BITMAP
00441140
01CA7280
01CA7280
01CA7280
01CA7280
01CA7280
01CA7280
01CA7280
01CA7280
01CA7280
01CA7280
01CA7280
01CA7280
01CA7280
01CA7280
01CA7280
01CA7280
01CA7280
01CA7280
028D7240
1B5CA340
7D38D700
01E1CA00
2B875D00
291D2800
05F4B000
7F82C000
102E0000
2BE40000
29000000
ENDCHAR
STARTCHAR circumflex
ENCODING 710
SWIDTH 376 0
DWIDTH 14 0
BBX 11 9 1 27
BITMAP
019600
02E340
03B280
0A35C0
0D28D0
1C5D70
28DA34
35C728
62835C
ENDCHAR
STARTCHAR caron
ENCODING 711
SWIDTH 362 0
DWIDTH 13 0
BBX 11 9 1 27
BITMAP
924218
728A34
35CD70
289CA0
1C28D0
0D35C0
07A380
03D700
02CA00
ENDCHAR
STARTCHAR breve
ENCODING 728
SWIDTH 360 0
DWIDTH 13 0
BBX 11 5 1 28
BITMAP
440044
964658
75B974
1E56D0
01A900
ENDCHAR
STARTCHAR dotaccent
ENCODING 729
SWIDTH 255 0
DWIDTH 9 0
BBX 7 7 1 22
BITMAP
BFF8
0000
6AA4
6AA8
0000
BFF8
1550
ENDCHAR
STARTCHAR ring
ENCODING 730
SWIDTH 330 0
DWIDTH 12 0
BBX 10 10 1 28
BITMAP
005000
0BAE00
285280
63A8D0
990A60
9D0660
9A0A60
62F8D0
280280
07FD00
ENDCHAR
STARTCHAR ogonek
ENCODING 731
SWIDTH 250 0
DWIDTH 9 0
BBX 7 12 1 -10
BITMAP
0010
06F8
2E40
7464
A2E4
A340
A700
A728
A728
A728
A728
A728
ENDCHAR
STARTCHAR tilde
ENCODING 732
SWIDTH 665 0
DWIDTH 24 0
BBX 22 7 1 20
BITMAP
016AAAA90850
0BEAAAA91CA0
2C0000002CA0
74BFFFFFF4D0
62D5555502C0
A346AAAAAF40
9206AAAAA400
ENDCHAR
STARTCHAR hungarumlaut
ENCODING 733
SWIDTH 837 0
DWIDTH 30 0
BBX 28 9 1 25
BITMAP
000007800001A0
00007E00001B80
0007E0B801B81E
007D0BD01F81F4
07D0BD01F82F40
7D0B901F82F400
10B900042F4000
07900001F40000
01000000400000
ENDCHAR
STARTCHAR uni0307
ENCODING 775
SWIDTH 260 0
DWIDTH 9 0
BBX 7 7 1 14
BITMAP
1554
7FFC
0000
6AA8
6AA4
1550
7FFC
ENDCHAR
STARTCHAR uni030F
ENCODING 783
SWIDTH 554 0
DWIDTH 20 0
BBX 18 13 1 26
BITMAP
9240258000
B28028D000
35C01CA000
28D00D7000
1CA00A3800
0D70035C00
0B28028D00
035C01CA00
028D00D700
01CA00A380
00D70075C0
00A28028D0
0011401450
ENDCHAR
STARTCHAR uni0311
ENCODING 785
SWIDTH 375 0
DWIDTH 14 0
BBX 11 5 1 28
BITMAP
006900
0B96D0
286974
639798
550088
ENDCHAR
STARTCHAR uni0326
ENCODING 806
SWIDTH 274 0
DWIDTH 10 0
BBX 7 12 1 -14
BITMAP
1144
729C
729C
729C
729C
229C
025C
075C
7E28
1074
16E0
7A40
ENDCHAR
STARTCHAR Omega
ENCODING 937
SWIDTH 92 0
DWIDTH 3 0
BBX 1 1 0 0
BITMAP
00
ENDCHAR
STARTCHAR uni00B5.dup2
ENCODING 956
SWIDTH 802 0
DWIDTH 29 0
BBX 27 30 1 -4
BITMAP
11045000044110
725CA00018D734
725CA00018D734
725CA00018D734
725CA00018D734
725CA00018D734
725CA00018D734
725CA00018D734
725CA00018D734
725CA00018D734
725CA00018D734
725CA00018D734
725CA00018D734
725CA00018D734
725CA00018D734
725CA00028D734
725CA00035CA34
725CA000B28D70
725CAAAB875CA0
725CA6A91E38D0
725CA501B4B1C0
725CABFF92D740
725CA0501E0E00
725CAAAAF87800
725CA6AA42E000
725CA4006E4000
725CABFFE40000
725CA054000000
725CA000000000
62589000000000
ENDCHAR
STARTCHAR pi
ENCODING 960
SWIDTH 92 0
DWIDTH 3 0
BBX 1 1 0 0
BITMAP
00
ENDCHAR
STARTCHAR endash
ENCODING 8211
SWIDTH 473 0
DWIDTH 17 0
BBX 15 7 1 11
BITMAP
6AAAAAA4
6AAAAAA4
15555550
7FFFFFF8
00000000
6AAAAAA4
6AAAAAA4
ENDCHAR
STARTCHAR emdash
ENCODING 8212
SWIDTH 615 0
DWIDTH 22 0
BBX 20 7 1 11
BITMAP
6AAAAAAAA9
6AAAAAAAA9
1555555554
7FFFFFFFFE
0000000000
6AAAAAAAA9
6AAAAAAAA9
ENDCHAR
STARTCHAR quoteleft
ENCODING 8216
SWIDTH 254 0
DWIDTH 9 0
BBX 7 12 1 17
BITMAP
02F8
1E50
3814
71F8
A380
A340
A358
A368
A368
A368
A368
5104
ENDCHAR
STARTCHAR quoteright
ENCODING 8217
SWIDTH 251 0
DWIDTH 9 0
BBX 7 12 1 17
BITMAP
A368
A368
A368
A368
A368
0368
0728
6E28
6474
06E0
BF40
1000
ENDCHAR
STARTCHAR quotesinglbase
ENCODING 8218
SWIDTH 252 0
DWIDTH 9 0
BBX 7 12 1 -5
BITMAP
5114
A368
A368
A368
A368
5368
0328
0B28
7D34
5070
16D0
BE00
ENDCHAR
STARTCHAR quotedblleft
ENCODING 8220
SWIDTH 535 0
DWIDTH 19 0
BBX 17 12 1 17
BITMAP
02F8002F80
1E5001E500
3814038140
71F8071F80
A380072800
A340063400
A3580A3580
A3680A3580
A3680A3580
A3680A3580
A3680A3580
5104011040
ENDCHAR
STARTCHAR quotedblright
ENCODING 8221
SWIDTH 532 0
DWIDTH 19 0
BBX 17 12 1 17
BITMAP
A3680635C0
A3680635C0
A3680635C0
A3680635C0
A3680635C0
03680035C0
0728007580
6E2806E280
6474064340
06E0001E00
BF4007F400
1000010000
ENDCHAR
STARTCHAR quotedblbase
ENCODING 8222
SWIDTH 533 0
DWIDTH 19 0
BBX 17 12 1 -5
BITMAP
5114051040
A3680A3580
A3680A3580
A3680A3580
A3680A3580
5368063580
0328003580
0B28007280
7D3407D280
5070050740
16D0016D00
BE000BE400
ENDCHAR
STARTCHAR dagger
ENCODING 8224
SWIDTH 636 0
DWIDTH 23 0
BBX 21 29 1 0
BITMAP
0009729C0000
0009729C0000
0009729C0000
0009729C0000
0009729C0000
555D729D5540
FFFD729FFF80
0009729C0000
AAAD729EAA80
AAAD729EAA40
0009729D0000
FFFD729FFF80
0009729D0000
0009729C0000
0009729C0000
0009729C0000
0009729C0000
0009729C0000
0009729C0000
0009729C0000
0009729C0000
0009729C0000
0009729C0000
0009729C0000
0009729C0000
0009729C0000
0009729C0000
0009729C0000
0009729C0000
ENDCHAR
STARTCHAR daggerdbl
ENCODING 8225
SWIDTH 648 0
DWIDTH 23 0
BBX 21 29 1 0
BITMAP
000A358D0000
000A358D0000
000A358D0000
000A358D0000
000A358D0000
6AAA358EAA80
6AAE358EAA80
000A358D0000
BFFE358FFFC0
155A358D5540
6AAA358EAA80
AAAE358FAA80
000A358D0000
000A358D0000
000A358D0000
000A358D0000
000A358D0000
6AAE358EAA80
6AAA358EAA80
155A358D5540
BFFE358FFFC0
000A358D0000
6AAE358EAA80
6AAA358EAA80
000A358D0000
000A358D0000
000A358D0000
000A358D0000
000A358D0000
ENDCHAR
STARTCHAR bullet
ENCODING 8226
SWIDTH 501 0
DWIDTH 18 0
BBX 16 16 1 5
BITMAP
00055000
00BFFE40
079006D0
1E1BE474
28B96E2C
71D0038D
A34001CA
A30000D6
A70000D7
A34000D6
728001CA
35D0074D
2C7EBD28
0A0690B0
02E51B80
006FF900
ENDCHAR
STARTCHAR ellipsis
ENCODING 8230
SWIDTH 676 0
DWIDTH 24 0
BBX 22 7 1 0
BITMAP
555455505550
BFF8FFF5FFF0
000000000000
6AA8AAA5AAA0
555455515550
155455505550
BFF8FFF5FFF0
ENDCHAR
STARTCHAR perthousand
ENCODING 8240
SWIDTH 447 0
DWIDTH 16 0
BBX 15 33 1 -4
BITMAP
0001CA34
00028D70
00035CA0
00035C90
000728D0
000A35C0
000D7280
000D7240
001CA340
0028D700
0035CA00
0035CD00
00728D00
00A35C00
00D72800
00D73400
01CA3400
028D7000
035CA000
035CD000
0728D000
0A35C000
0D728000
0D734000
1CA34000
28D70000
35CA0000
35CD0000
728D0000
A35C0000
D7280000
D7340000
45100000
ENDCHAR
STARTCHAR guilsinglleft
ENCODING 8249
SWIDTH 465 0
DWIDTH 17 0
BBX 15 18 1 4
BITMAP
00000064
00001BE0
0001B900
006F81B4
06E41F90
7E06F814
507E42F4
1BD06E40
B90BE400
41B91800
2F941B90
B81F91B4
6F41BD00
01F90BE0
001BE064
00007E40
000006F4
00000014
ENDCHAR
STARTCHAR guilsinglright
ENCODING 8250
SWIDTH 465 0
DWIDTH 17 0
BBX 15 18 1 4
BITMAP
64000000
6F800000
01F90000
B91BE000
1B906E40
51BE46F4
7D06E414
07E42F90
006F41B4
0191F904
1F905BE0
B81BD0B4
02F91BE0
6E41B900
646F9000
06E40000
7E000000
50000000
ENDCHAR
STARTCHAR fraction
ENCODING 8260
SWIDTH 447 0
DWIDTH 16 0
BBX 15 33 1 -4
BITMAP
0001CA34
00028D70
00035CA0
00035C90
000728D0
000A35C0
000D7280
000D7240
001CA340
0028D700
0035CA00
0035CD00
00728D00
00A35C00
00D72800
00D73400
01CA3400
028D7000
035CA000
035CD000
0728D000
0A35C000
0D728000
0D734000
1CA34000
28D70000
35CA0000
35CD0000
728D0000
A35C0000
D7280000
D7340000
45100000
ENDCHAR
STARTCHAR uni2074
ENCODING 8308
SWIDTH 528 0
DWIDTH 19 0
BBX 17 24 1 5
BITMAP
000D71C000
0028A38000
0035D70000
00B28E0000
00D75C0000
02CA280000
034D740000
072CA00000
0E34D00400
1CB2C29C00
38D3429C00
71CB029C00
5145014800
BFFFFFFF80
5555555540
5555555540
BFFFFFFFC0
0000000000
AAAAAAAA80
5555555540
0000025C00
0000029C00
0000029C00
0000010400
ENDCHAR
STARTCHAR Euro
ENCODING 8364
SWIDTH 781 0
DWIDTH 28 0
BBX 26 33 1 -2
BITMAP
00000000554000
0000006FFFFE90
000006E50006B0
00002E06AAA500
0000F47E95AFD0
000387D0154040
000E1E0BFFFA40
002874B9001640
0071D2D1AA9400
00A38A1BA6AE00
01CB2C78000000
028D75D0000000
035CA380000000
0728D700000000
F735CABFFF4000
0635CD00000000
0A358D00000000
5635CD55550000
F725CABFFF0000
0728D700000000
035CA280000000
028D34E0000000
01C72C79000100
00A38B0BEABE00
0075D2D16A9000
002C747D405B80
000A1E06FFF900
000386E0040190
0000B46FAAAF90
00002E45AA9410
000002E90016F0
0000002BFFFE40
00000000150000
ENDCHAR
STARTCHAR trademark
ENCODING 8482
SWIDTH 1503 0
DWIDTH 54 0
BBX 52 22 1 7
BITMAP
FFFFFFFFFC1D35D0000000D35E
00000000001F2CA0000001CA2E
AAAAAAAAA81F4D740000034D7E
AAAAAAAAA81DCB2800000B28AA
00000000001CE34D00000D75CA
FFFFFFFFFC1C71CA000028A38A
555A7695541C28D3400035D74A
000A3680001C9C72C000A28E8A
000A3680001C9A38D001D71DCA
000A3680001CA75CB0028A35CA
000A3680001CA28E34075CB1CA
000A3680001CA1D71C0A38D5CA
000A3680001CA5A28D1C72D5CA
000A3680001CA735D728D365CA
000A3680001CA728A391CA25CA
000A3680001CA70D75C34D25CA
000A3680001CA70B28E72825CA
000A3680001CA7035D757425CA
000A3680001CA701CA28A025CA
000A3680001CA700D35DD025CA
000A3680001CA70072CB8025CA
00051140000451001041001445
ENDCHAR
STARTCHAR partialdiff
ENCODING 8706
SWIDTH 108 0
DWIDTH 4 0
BBX 1 1 0 0
BITMAP
00
ENDCHAR
STARTCHAR uni2206
ENCODING 8710
SWIDTH 108 0
DWIDTH 4 0
BBX 1 1 0 0
BITMAP
00
ENDCHAR
STARTCHAR product
ENCODING 8719
SWIDTH 521 0
DWIDTH 19 0
BBX 17 26 1 0
BITMAP
0010410000
0078D70000
00BCA38000
00DD35C000
02C728D000
03435CA000
07268D7000
0A35CA3800
0D70D75C00
1CA2B28D00
35D635CA00
728E28D700
A35C1CA340
D75C0D7280
A38D1CA340
75CA28D700
28D731CA00
1CA3535D00
0D72872800
0A38DA3400
075CA57000
028D70A000
01CA34D000
00D72A8000
00A34F4000
0071CB0000
ENDCHAR
STARTCHAR summation
ENCODING 8721
SWIDTH 108 0
DWIDTH 4 0
BBX 1 1 0 0
BITMAP
00
ENDCHAR
STARTCHAR minus
ENCODING 8722
SWIDTH 555 0
DWIDTH 20 0
BBX 18 7 1 12
BITMAP
7FFFFFFFD0
1555555540
5555555550
6AAAAAAA90
0000000000
7FFFFFFFD0
1555555540
ENDCHAR
STARTCHAR radical
ENCODING 8730
SWIDTH 108 0
DWIDTH 4 0
BBX 1 1 0 0
BITMAP
00
ENDCHAR
STARTCHAR infinity
ENCODING 8734
SWIDTH 108 0
DWIDTH 4 0
BBX 1 1 0 0
BITMAP
00
ENDCHAR
STARTCHAR integral
ENCODING 8747
SWIDTH 362 0
DWIDTH 13 0
BBX 13 34 0 -3
BITMAP
00001500
0002FF40
001E4000
00746B40
00E2E500
01CB0500
028D3F40
028DA000
028CA000
028CA000
028CA000
028CA000
028CA000
028CA000
028CA000
028CA000
028CA000
028CA000
028CA000
028CA000
028CA000
028CA000
028CA000
028CA000
028CA000
028CA000
028CA000
2F5CA000
1438D000
15E2C000
7F874000
002D0000
2BF40000
29400000
ENDCHAR
STARTCHAR approxequal
ENCODING 8776
SWIDTH 665 0
DWIDTH 24 0
BBX 22 16 1 11
BITMAP
016AAAA90850
0BEAAAA91CA0
2C0000002CA0
74BFFFFFF4D0
62D5555502C0
A346AAAAAF40
9206AAAAA400
000000000000
000000000000
016AAAA90850
0BEAAAA91CA0
2C0000002CA0
74BFFFFFF4D0
62D5555502C0
A346AAAAAF40
9206AAAAA400
ENDCHAR
STARTCHAR notequal
ENCODING 8800
SWIDTH 473 0
DWIDTH 17 0
BBX 15 33 1 -4
BITMAP
0001CA34
00028D70
00035CA0
00035C90
000728D0
000A35C0
000D7280
6AAEFBE4
6ABEFBE4
0028D700
7FFFFFF8
1576DE50
55B7EE54
6AFBFEA4
00D72800
00D73400
01CA3400
57DEB554
7FFFFFF4
035CD000
7FFFFFF4
1F7AD554
1EB7D554
7FFFFFF4
1CA34000
28D70000
35CA0000
35CD0000
728D0000
A35C0000
D7280000
D7340000
45100000
ENDCHAR
STARTCHAR lessequal
ENCODING 8804
SWIDTH 108 0
DWIDTH 4 0
BBX 1 1 0 0
BITMAP
00
ENDCHAR
STARTCHAR greaterequal
ENCODING 8805
SWIDTH 108 0
DWIDTH 4 0
BBX 1 1 0 0
BITMAP
00
ENDCHAR
STARTCHAR lozenge
ENCODING 9674
SWIDTH 521 0
DWIDTH 19 0
BBX 17 26 1 0
BITMAP
0010410000
0078D70000
00BCA38000
00DD35C000
02C728D000
03435CA000
07268D7000
0A35CA3800
0D70D75C00
1CA2B28D00
35D635CA00
728E28D700
A35C1CA340
D75C0D7280
A38D1CA340
75CA28D700
28D731CA00
1CA3535D00
0D72872800
0A38DA3400
075CA57000
028D70A000
01CA34D000
00D72A8000
00A34F4000
0071CB0000
ENDCHAR
STARTCHAR uniF8FF
ENCODING 63743
SWIDTH 108 0
DWIDTH 4 0
BBX 1 1 0 0
BITMAP
00
ENDCHAR
STARTCHAR uniFB01
ENCODING 64257
SWIDTH 962 0
DWIDTH 35 0
BBX 32 26 1 0
BITMAP
1104555555010441
725CBFFFFF435C97
725CA00000035C97
725CBAAAAA435C97
725CA55555035C97
725CA55555035C97
725CBFFFFF435C97
725CA00000035C97
725CA00000035C97
725CA00000035C97
725CA00000035C97
725CBFFFFD035C97
725CA00000035C97
725CAAAAA9035C97
725CBAAAA9035C97
725CA00000035C97
725CBFFFFD035C97
725CA55554035C97
725CA00000035C97
725CA00000035C97
725CA00000035C97
725CA00000035C97
725CA00000035C97
725CA00000035C97
725CA00000035C97
725CA00000035C97
ENDCHAR
STARTCHAR uniFB02
ENCODING 64258
SWIDTH 1208 0
DWIDTH 43 0
BBX 42 26 1 0
BITMAP
1104555555010441000000
725CBFFFFF435C97000000
725CA00000035C97000000
725CBAAAAA435C97000000
725CA55555035C97000000
725CA55555035C97000000
725CBFFFFF435C97000000
725CA00000035C97000000
725CA00000035C97000000
725CA00000035C97000000
725CA00000035C97000000
725CBFFFFD035C97000000
725CA00000035C97000000
725CAAAAA9035C97000000
725CBAAAA9035C97000000
725CA00000035C97000000
725CBFFFFD035C97000000
725CA55554035C97000000
725CA00000035C97000000
725CA00000035C97555540
725CA00000035C97FFFFD0
725CA00000035C97000000
725CA00000035C97AAAA90
725CA00000035C97555540
725CA00000035C97555540
725CA00000035C97FFFFD0
ENDCHAR
STARTCHAR .notdef
ENCODING -1
SWIDTH 108 0
DWIDTH 4 0
BBX 1 1 0 0
BITMAP
00
ENDCHAR
ENDFONT
